G75*
%MOIN*%
%OFA0B0*%
%FSLAX24Y24*%
%IPPOS*%
%LPD*%
%AMOC8*
5,1,8,0,0,1.08239X$1,22.5*
%
%ADD10C,0.0240*%
%ADD11C,0.0000*%
D10*
X001130Y000220D02*
X001130Y027720D01*
X034130Y027720D01*
X034130Y000220D01*
X001130Y000220D01*
D11*
X005005Y009720D02*
X005007Y009770D01*
X005013Y009819D01*
X005023Y009868D01*
X005036Y009915D01*
X005054Y009962D01*
X005075Y010007D01*
X005099Y010050D01*
X005127Y010091D01*
X005158Y010130D01*
X005192Y010166D01*
X005229Y010200D01*
X005269Y010230D01*
X005310Y010257D01*
X005354Y010281D01*
X005399Y010301D01*
X005446Y010317D01*
X005494Y010330D01*
X005543Y010339D01*
X005593Y010344D01*
X005642Y010345D01*
X005692Y010342D01*
X005741Y010335D01*
X005790Y010324D01*
X005837Y010310D01*
X005883Y010291D01*
X005928Y010269D01*
X005971Y010244D01*
X006011Y010215D01*
X006049Y010183D01*
X006085Y010149D01*
X006118Y010111D01*
X006147Y010071D01*
X006173Y010029D01*
X006196Y009985D01*
X006215Y009939D01*
X006231Y009892D01*
X006243Y009843D01*
X006251Y009794D01*
X006255Y009745D01*
X006255Y009695D01*
X006251Y009646D01*
X006243Y009597D01*
X006231Y009548D01*
X006215Y009501D01*
X006196Y009455D01*
X006173Y009411D01*
X006147Y009369D01*
X006118Y009329D01*
X006085Y009291D01*
X006049Y009257D01*
X006011Y009225D01*
X005971Y009196D01*
X005928Y009171D01*
X005883Y009149D01*
X005837Y009130D01*
X005790Y009116D01*
X005741Y009105D01*
X005692Y009098D01*
X005642Y009095D01*
X005593Y009096D01*
X005543Y009101D01*
X005494Y009110D01*
X005446Y009123D01*
X005399Y009139D01*
X005354Y009159D01*
X005310Y009183D01*
X005269Y009210D01*
X005229Y009240D01*
X005192Y009274D01*
X005158Y009310D01*
X005127Y009349D01*
X005099Y009390D01*
X005075Y009433D01*
X005054Y009478D01*
X005036Y009525D01*
X005023Y009572D01*
X005013Y009621D01*
X005007Y009670D01*
X005005Y009720D01*
X017005Y007220D02*
X017007Y007270D01*
X017013Y007319D01*
X017023Y007368D01*
X017036Y007415D01*
X017054Y007462D01*
X017075Y007507D01*
X017099Y007550D01*
X017127Y007591D01*
X017158Y007630D01*
X017192Y007666D01*
X017229Y007700D01*
X017269Y007730D01*
X017310Y007757D01*
X017354Y007781D01*
X017399Y007801D01*
X017446Y007817D01*
X017494Y007830D01*
X017543Y007839D01*
X017593Y007844D01*
X017642Y007845D01*
X017692Y007842D01*
X017741Y007835D01*
X017790Y007824D01*
X017837Y007810D01*
X017883Y007791D01*
X017928Y007769D01*
X017971Y007744D01*
X018011Y007715D01*
X018049Y007683D01*
X018085Y007649D01*
X018118Y007611D01*
X018147Y007571D01*
X018173Y007529D01*
X018196Y007485D01*
X018215Y007439D01*
X018231Y007392D01*
X018243Y007343D01*
X018251Y007294D01*
X018255Y007245D01*
X018255Y007195D01*
X018251Y007146D01*
X018243Y007097D01*
X018231Y007048D01*
X018215Y007001D01*
X018196Y006955D01*
X018173Y006911D01*
X018147Y006869D01*
X018118Y006829D01*
X018085Y006791D01*
X018049Y006757D01*
X018011Y006725D01*
X017971Y006696D01*
X017928Y006671D01*
X017883Y006649D01*
X017837Y006630D01*
X017790Y006616D01*
X017741Y006605D01*
X017692Y006598D01*
X017642Y006595D01*
X017593Y006596D01*
X017543Y006601D01*
X017494Y006610D01*
X017446Y006623D01*
X017399Y006639D01*
X017354Y006659D01*
X017310Y006683D01*
X017269Y006710D01*
X017229Y006740D01*
X017192Y006774D01*
X017158Y006810D01*
X017127Y006849D01*
X017099Y006890D01*
X017075Y006933D01*
X017054Y006978D01*
X017036Y007025D01*
X017023Y007072D01*
X017013Y007121D01*
X017007Y007170D01*
X017005Y007220D01*
X029005Y009720D02*
X029007Y009770D01*
X029013Y009819D01*
X029023Y009868D01*
X029036Y009915D01*
X029054Y009962D01*
X029075Y010007D01*
X029099Y010050D01*
X029127Y010091D01*
X029158Y010130D01*
X029192Y010166D01*
X029229Y010200D01*
X029269Y010230D01*
X029310Y010257D01*
X029354Y010281D01*
X029399Y010301D01*
X029446Y010317D01*
X029494Y010330D01*
X029543Y010339D01*
X029593Y010344D01*
X029642Y010345D01*
X029692Y010342D01*
X029741Y010335D01*
X029790Y010324D01*
X029837Y010310D01*
X029883Y010291D01*
X029928Y010269D01*
X029971Y010244D01*
X030011Y010215D01*
X030049Y010183D01*
X030085Y010149D01*
X030118Y010111D01*
X030147Y010071D01*
X030173Y010029D01*
X030196Y009985D01*
X030215Y009939D01*
X030231Y009892D01*
X030243Y009843D01*
X030251Y009794D01*
X030255Y009745D01*
X030255Y009695D01*
X030251Y009646D01*
X030243Y009597D01*
X030231Y009548D01*
X030215Y009501D01*
X030196Y009455D01*
X030173Y009411D01*
X030147Y009369D01*
X030118Y009329D01*
X030085Y009291D01*
X030049Y009257D01*
X030011Y009225D01*
X029971Y009196D01*
X029928Y009171D01*
X029883Y009149D01*
X029837Y009130D01*
X029790Y009116D01*
X029741Y009105D01*
X029692Y009098D01*
X029642Y009095D01*
X029593Y009096D01*
X029543Y009101D01*
X029494Y009110D01*
X029446Y009123D01*
X029399Y009139D01*
X029354Y009159D01*
X029310Y009183D01*
X029269Y009210D01*
X029229Y009240D01*
X029192Y009274D01*
X029158Y009310D01*
X029127Y009349D01*
X029099Y009390D01*
X029075Y009433D01*
X029054Y009478D01*
X029036Y009525D01*
X029023Y009572D01*
X029013Y009621D01*
X029007Y009670D01*
X029005Y009720D01*
X017315Y023720D02*
X017317Y023755D01*
X017323Y023790D01*
X017333Y023824D01*
X017346Y023857D01*
X017363Y023888D01*
X017384Y023916D01*
X017407Y023943D01*
X017434Y023966D01*
X017462Y023987D01*
X017493Y024004D01*
X017526Y024017D01*
X017560Y024027D01*
X017595Y024033D01*
X017630Y024035D01*
X017665Y024033D01*
X017700Y024027D01*
X017734Y024017D01*
X017767Y024004D01*
X017798Y023987D01*
X017826Y023966D01*
X017853Y023943D01*
X017876Y023916D01*
X017897Y023888D01*
X017914Y023857D01*
X017927Y023824D01*
X017937Y023790D01*
X017943Y023755D01*
X017945Y023720D01*
X017943Y023685D01*
X017937Y023650D01*
X017927Y023616D01*
X017914Y023583D01*
X017897Y023552D01*
X017876Y023524D01*
X017853Y023497D01*
X017826Y023474D01*
X017798Y023453D01*
X017767Y023436D01*
X017734Y023423D01*
X017700Y023413D01*
X017665Y023407D01*
X017630Y023405D01*
X017595Y023407D01*
X017560Y023413D01*
X017526Y023423D01*
X017493Y023436D01*
X017462Y023453D01*
X017434Y023474D01*
X017407Y023497D01*
X017384Y023524D01*
X017363Y023552D01*
X017346Y023583D01*
X017333Y023616D01*
X017323Y023650D01*
X017317Y023685D01*
X017315Y023720D01*
X015346Y025689D02*
X015348Y025724D01*
X015354Y025759D01*
X015364Y025793D01*
X015377Y025826D01*
X015394Y025857D01*
X015415Y025885D01*
X015438Y025912D01*
X015465Y025935D01*
X015493Y025956D01*
X015524Y025973D01*
X015557Y025986D01*
X015591Y025996D01*
X015626Y026002D01*
X015661Y026004D01*
X015696Y026002D01*
X015731Y025996D01*
X015765Y025986D01*
X015798Y025973D01*
X015829Y025956D01*
X015857Y025935D01*
X015884Y025912D01*
X015907Y025885D01*
X015928Y025857D01*
X015945Y025826D01*
X015958Y025793D01*
X015968Y025759D01*
X015974Y025724D01*
X015976Y025689D01*
X015974Y025654D01*
X015968Y025619D01*
X015958Y025585D01*
X015945Y025552D01*
X015928Y025521D01*
X015907Y025493D01*
X015884Y025466D01*
X015857Y025443D01*
X015829Y025422D01*
X015798Y025405D01*
X015765Y025392D01*
X015731Y025382D01*
X015696Y025376D01*
X015661Y025374D01*
X015626Y025376D01*
X015591Y025382D01*
X015557Y025392D01*
X015524Y025405D01*
X015493Y025422D01*
X015465Y025443D01*
X015438Y025466D01*
X015415Y025493D01*
X015394Y025521D01*
X015377Y025552D01*
X015364Y025585D01*
X015354Y025619D01*
X015348Y025654D01*
X015346Y025689D01*
X019284Y025689D02*
X019286Y025724D01*
X019292Y025759D01*
X019302Y025793D01*
X019315Y025826D01*
X019332Y025857D01*
X019353Y025885D01*
X019376Y025912D01*
X019403Y025935D01*
X019431Y025956D01*
X019462Y025973D01*
X019495Y025986D01*
X019529Y025996D01*
X019564Y026002D01*
X019599Y026004D01*
X019634Y026002D01*
X019669Y025996D01*
X019703Y025986D01*
X019736Y025973D01*
X019767Y025956D01*
X019795Y025935D01*
X019822Y025912D01*
X019845Y025885D01*
X019866Y025857D01*
X019883Y025826D01*
X019896Y025793D01*
X019906Y025759D01*
X019912Y025724D01*
X019914Y025689D01*
X019912Y025654D01*
X019906Y025619D01*
X019896Y025585D01*
X019883Y025552D01*
X019866Y025521D01*
X019845Y025493D01*
X019822Y025466D01*
X019795Y025443D01*
X019767Y025422D01*
X019736Y025405D01*
X019703Y025392D01*
X019669Y025382D01*
X019634Y025376D01*
X019599Y025374D01*
X019564Y025376D01*
X019529Y025382D01*
X019495Y025392D01*
X019462Y025405D01*
X019431Y025422D01*
X019403Y025443D01*
X019376Y025466D01*
X019353Y025493D01*
X019332Y025521D01*
X019315Y025552D01*
X019302Y025585D01*
X019292Y025619D01*
X019286Y025654D01*
X019284Y025689D01*
X023505Y025220D02*
X023507Y025270D01*
X023513Y025319D01*
X023523Y025368D01*
X023536Y025415D01*
X023554Y025462D01*
X023575Y025507D01*
X023599Y025550D01*
X023627Y025591D01*
X023658Y025630D01*
X023692Y025666D01*
X023729Y025700D01*
X023769Y025730D01*
X023810Y025757D01*
X023854Y025781D01*
X023899Y025801D01*
X023946Y025817D01*
X023994Y025830D01*
X024043Y025839D01*
X024093Y025844D01*
X024142Y025845D01*
X024192Y025842D01*
X024241Y025835D01*
X024290Y025824D01*
X024337Y025810D01*
X024383Y025791D01*
X024428Y025769D01*
X024471Y025744D01*
X024511Y025715D01*
X024549Y025683D01*
X024585Y025649D01*
X024618Y025611D01*
X024647Y025571D01*
X024673Y025529D01*
X024696Y025485D01*
X024715Y025439D01*
X024731Y025392D01*
X024743Y025343D01*
X024751Y025294D01*
X024755Y025245D01*
X024755Y025195D01*
X024751Y025146D01*
X024743Y025097D01*
X024731Y025048D01*
X024715Y025001D01*
X024696Y024955D01*
X024673Y024911D01*
X024647Y024869D01*
X024618Y024829D01*
X024585Y024791D01*
X024549Y024757D01*
X024511Y024725D01*
X024471Y024696D01*
X024428Y024671D01*
X024383Y024649D01*
X024337Y024630D01*
X024290Y024616D01*
X024241Y024605D01*
X024192Y024598D01*
X024142Y024595D01*
X024093Y024596D01*
X024043Y024601D01*
X023994Y024610D01*
X023946Y024623D01*
X023899Y024639D01*
X023854Y024659D01*
X023810Y024683D01*
X023769Y024710D01*
X023729Y024740D01*
X023692Y024774D01*
X023658Y024810D01*
X023627Y024849D01*
X023599Y024890D01*
X023575Y024933D01*
X023554Y024978D01*
X023536Y025025D01*
X023523Y025072D01*
X023513Y025121D01*
X023507Y025170D01*
X023505Y025220D01*
X005005Y025220D02*
X005007Y025270D01*
X005013Y025319D01*
X005023Y025368D01*
X005036Y025415D01*
X005054Y025462D01*
X005075Y025507D01*
X005099Y025550D01*
X005127Y025591D01*
X005158Y025630D01*
X005192Y025666D01*
X005229Y025700D01*
X005269Y025730D01*
X005310Y025757D01*
X005354Y025781D01*
X005399Y025801D01*
X005446Y025817D01*
X005494Y025830D01*
X005543Y025839D01*
X005593Y025844D01*
X005642Y025845D01*
X005692Y025842D01*
X005741Y025835D01*
X005790Y025824D01*
X005837Y025810D01*
X005883Y025791D01*
X005928Y025769D01*
X005971Y025744D01*
X006011Y025715D01*
X006049Y025683D01*
X006085Y025649D01*
X006118Y025611D01*
X006147Y025571D01*
X006173Y025529D01*
X006196Y025485D01*
X006215Y025439D01*
X006231Y025392D01*
X006243Y025343D01*
X006251Y025294D01*
X006255Y025245D01*
X006255Y025195D01*
X006251Y025146D01*
X006243Y025097D01*
X006231Y025048D01*
X006215Y025001D01*
X006196Y024955D01*
X006173Y024911D01*
X006147Y024869D01*
X006118Y024829D01*
X006085Y024791D01*
X006049Y024757D01*
X006011Y024725D01*
X005971Y024696D01*
X005928Y024671D01*
X005883Y024649D01*
X005837Y024630D01*
X005790Y024616D01*
X005741Y024605D01*
X005692Y024598D01*
X005642Y024595D01*
X005593Y024596D01*
X005543Y024601D01*
X005494Y024610D01*
X005446Y024623D01*
X005399Y024639D01*
X005354Y024659D01*
X005310Y024683D01*
X005269Y024710D01*
X005229Y024740D01*
X005192Y024774D01*
X005158Y024810D01*
X005127Y024849D01*
X005099Y024890D01*
X005075Y024933D01*
X005054Y024978D01*
X005036Y025025D01*
X005023Y025072D01*
X005013Y025121D01*
X005007Y025170D01*
X005005Y025220D01*
M02*
