G75*
%MOIN*%
%OFA0B0*%
%FSLAX24Y24*%
%IPPOS*%
%LPD*%
%AMOC8*
5,1,8,0,0,1.08239X$1,22.5*
%
%ADD10R,0.0990X0.0990*%
%ADD11OC8,0.0520*%
%ADD12C,0.0520*%
%ADD13C,0.0520*%
%ADD14OC8,0.0600*%
%ADD15C,0.0560*%
%ADD16C,0.1310*%
%ADD17C,0.0600*%
%ADD18C,0.0120*%
%ADD19C,0.0240*%
%ADD20C,0.0525*%
D10*
X015661Y023720D03*
X017630Y025689D03*
X019599Y023720D03*
D11*
X012130Y024620D03*
X009630Y024620D03*
X007630Y020720D03*
X007130Y017720D03*
X007130Y015720D03*
X007130Y013720D03*
X007130Y012720D03*
X007130Y011720D03*
X003130Y011720D03*
X003130Y012720D03*
X003130Y013720D03*
X003130Y015720D03*
X003130Y017720D03*
X011630Y020720D03*
X012130Y016720D03*
X012130Y012720D03*
X012130Y011720D03*
X012130Y007720D03*
X028130Y012720D03*
X028130Y013720D03*
X028130Y014720D03*
X028130Y015720D03*
X028130Y016720D03*
X028130Y017720D03*
X032130Y017720D03*
X032130Y016720D03*
X032130Y015720D03*
X032130Y014720D03*
X032130Y013720D03*
X032130Y012720D03*
D12*
X012130Y023820D03*
X009630Y023820D03*
D13*
X013130Y020980D02*
X013130Y020460D01*
X014130Y020460D02*
X014130Y020980D01*
X015130Y020980D02*
X015130Y020460D01*
X016130Y020460D02*
X016130Y020980D01*
X017130Y020980D02*
X017130Y020460D01*
X018130Y020460D02*
X018130Y020980D01*
X019130Y020980D02*
X019130Y020460D01*
X020130Y020460D02*
X020130Y020980D01*
X021130Y020980D02*
X021130Y020460D01*
X022130Y020460D02*
X022130Y020980D01*
X019390Y013720D02*
X018870Y013720D01*
X018870Y012720D02*
X019390Y012720D01*
X019390Y011720D02*
X018870Y011720D01*
X018870Y010720D02*
X019390Y010720D01*
X016390Y010720D02*
X015870Y010720D01*
X015870Y011720D02*
X016390Y011720D01*
X016390Y012720D02*
X015870Y012720D01*
X015870Y013720D02*
X016390Y013720D01*
X003890Y008720D02*
X003370Y008720D01*
X003370Y007720D02*
X003890Y007720D01*
X003890Y006720D02*
X003370Y006720D01*
X003370Y005720D02*
X003890Y005720D01*
X003890Y004720D02*
X003370Y004720D01*
X003370Y003720D02*
X003890Y003720D01*
X003890Y002720D02*
X003370Y002720D01*
X003370Y001720D02*
X003890Y001720D01*
X031370Y001720D02*
X031890Y001720D01*
X031890Y002720D02*
X031370Y002720D01*
X031370Y003720D02*
X031890Y003720D01*
X031890Y004720D02*
X031370Y004720D01*
X031370Y005720D02*
X031890Y005720D01*
X031890Y006720D02*
X031370Y006720D01*
X031370Y007720D02*
X031890Y007720D01*
X031890Y008720D02*
X031370Y008720D01*
D14*
X026630Y009720D03*
X026630Y010720D03*
X026630Y011720D03*
X026630Y012720D03*
X025630Y012720D03*
X025630Y011720D03*
X025630Y010720D03*
X025630Y009720D03*
X025630Y013720D03*
X025630Y014720D03*
X025630Y015720D03*
X025630Y016720D03*
X025630Y017720D03*
X025630Y018720D03*
X026630Y018720D03*
X026630Y017720D03*
X026630Y016720D03*
X026630Y015720D03*
X026630Y014720D03*
X026630Y013720D03*
X009630Y013720D03*
X009630Y014720D03*
X009630Y015720D03*
X009630Y016720D03*
X009630Y017720D03*
X009630Y018720D03*
X008630Y018720D03*
X008630Y017720D03*
X008630Y016720D03*
X008630Y015720D03*
X008630Y014720D03*
X008630Y013720D03*
X008630Y012720D03*
X008630Y011720D03*
X008630Y010720D03*
X008630Y009720D03*
X009630Y009720D03*
X009630Y010720D03*
X009630Y011720D03*
X009630Y012720D03*
D15*
X027755Y023150D03*
X028735Y023150D03*
X029525Y023150D03*
X030505Y023150D03*
D16*
X031715Y024220D03*
X026545Y024220D03*
D17*
X007630Y023520D02*
X007630Y022920D01*
X006630Y022920D02*
X006630Y023520D01*
X005630Y023520D02*
X005630Y022920D01*
X004630Y022920D02*
X004630Y023520D01*
X003630Y023520D02*
X003630Y022920D01*
D18*
X001440Y027410D02*
X001440Y000530D01*
X002212Y000530D01*
X001765Y000976D01*
X001700Y001134D01*
X001700Y008306D01*
X001765Y008464D01*
X001886Y008585D01*
X002386Y009085D01*
X002544Y009150D01*
X002994Y009150D01*
X003047Y009203D01*
X003257Y009290D01*
X004003Y009290D01*
X004213Y009203D01*
X004373Y009043D01*
X004460Y008833D01*
X004460Y008607D01*
X004373Y008397D01*
X004213Y008237D01*
X004003Y008150D01*
X003257Y008150D01*
X003047Y008237D01*
X002994Y008290D01*
X002808Y008290D01*
X002560Y008042D01*
X002560Y001398D01*
X002808Y001150D01*
X032452Y001150D01*
X032700Y001398D01*
X032700Y007966D01*
X032376Y008290D01*
X032266Y008290D01*
X032213Y008237D01*
X032003Y008150D01*
X031257Y008150D01*
X031047Y008237D01*
X030887Y008397D01*
X030800Y008607D01*
X030800Y008833D01*
X030887Y009043D01*
X031047Y009203D01*
X031257Y009290D01*
X032003Y009290D01*
X032213Y009203D01*
X032266Y009150D01*
X032376Y009150D01*
X033200Y009974D01*
X033200Y013767D01*
X032944Y013510D01*
X032840Y013406D01*
X032704Y013350D01*
X032566Y013350D01*
X032500Y013284D01*
X032500Y013156D01*
X032700Y012956D01*
X032700Y012484D01*
X032366Y012150D01*
X031894Y012150D01*
X031560Y012484D01*
X031560Y012956D01*
X031760Y013156D01*
X031760Y013284D01*
X031560Y013484D01*
X031560Y013956D01*
X031824Y014220D01*
X031694Y014350D01*
X030783Y014350D01*
X029840Y013406D01*
X029704Y013350D01*
X028566Y013350D01*
X028436Y013220D01*
X028700Y012956D01*
X028700Y012484D01*
X028366Y012150D01*
X027894Y012150D01*
X027694Y012350D01*
X027123Y012350D01*
X026993Y012220D01*
X027123Y012090D01*
X027204Y012090D01*
X027340Y012034D01*
X028340Y011034D01*
X028444Y010930D01*
X028500Y010794D01*
X028500Y008646D01*
X028444Y008510D01*
X026444Y006510D01*
X026340Y006406D01*
X026204Y006350D01*
X026070Y006350D01*
X025954Y006235D01*
X025744Y006148D01*
X025516Y006148D01*
X025306Y006235D01*
X025145Y006396D01*
X025058Y006606D01*
X025058Y006834D01*
X025145Y007044D01*
X025306Y007205D01*
X025341Y007220D01*
X025306Y007235D01*
X025145Y007396D01*
X025058Y007606D01*
X025058Y007834D01*
X025145Y008044D01*
X025306Y008205D01*
X025341Y008220D01*
X025306Y008235D01*
X025145Y008396D01*
X025058Y008606D01*
X025058Y008834D01*
X025145Y009044D01*
X025294Y009193D01*
X025020Y009467D01*
X025020Y009973D01*
X025267Y010220D01*
X025137Y010350D01*
X024783Y010350D01*
X024500Y010067D01*
X024500Y004873D01*
X024783Y004590D01*
X028477Y004590D01*
X030816Y006930D01*
X030856Y006970D01*
X030887Y007043D01*
X031047Y007203D01*
X031257Y007290D01*
X032003Y007290D01*
X032213Y007203D01*
X032373Y007043D01*
X032460Y006833D01*
X032460Y006607D01*
X032373Y006397D01*
X032213Y006237D01*
X032172Y006220D01*
X032213Y006203D01*
X032373Y006043D01*
X032460Y005833D01*
X032460Y005607D01*
X032373Y005397D01*
X032213Y005237D01*
X032172Y005220D01*
X032213Y005203D01*
X032373Y005043D01*
X032460Y004833D01*
X032460Y004607D01*
X032373Y004397D01*
X032213Y004237D01*
X032172Y004220D01*
X032213Y004203D01*
X032373Y004043D01*
X032460Y003833D01*
X032460Y003607D01*
X032373Y003397D01*
X032213Y003237D01*
X032172Y003220D01*
X032213Y003203D01*
X032373Y003043D01*
X032460Y002833D01*
X032460Y002607D01*
X032373Y002397D01*
X032213Y002237D01*
X032172Y002220D01*
X032213Y002203D01*
X032373Y002043D01*
X032460Y001833D01*
X032460Y001607D01*
X032373Y001397D01*
X032213Y001237D01*
X032003Y001150D01*
X031257Y001150D01*
X031047Y001237D01*
X030934Y001350D01*
X022056Y001350D01*
X021920Y001406D01*
X021420Y001906D01*
X021316Y002010D01*
X021260Y002146D01*
X021260Y012794D01*
X021316Y012930D01*
X024316Y015930D01*
X024420Y016034D01*
X024556Y016090D01*
X025137Y016090D01*
X025267Y016220D01*
X025020Y016467D01*
X025020Y016973D01*
X025373Y017326D01*
X025170Y017529D01*
X025170Y017680D01*
X025590Y017680D01*
X025590Y017760D01*
X025170Y017760D01*
X025170Y017911D01*
X025373Y018114D01*
X025197Y018290D01*
X024510Y018290D01*
X024454Y018235D01*
X024244Y018148D01*
X024016Y018148D01*
X023806Y018235D01*
X023645Y018396D01*
X023558Y018606D01*
X023558Y018834D01*
X023645Y019044D01*
X023806Y019205D01*
X024016Y019292D01*
X024244Y019292D01*
X024454Y019205D01*
X024510Y019150D01*
X025197Y019150D01*
X025200Y019153D01*
X025200Y019306D01*
X025265Y019464D01*
X025765Y019964D01*
X025886Y020085D01*
X026044Y020150D01*
X032452Y020150D01*
X032700Y020398D01*
X032700Y026542D01*
X032452Y026790D01*
X028138Y026790D01*
X028138Y023602D01*
X028245Y023494D01*
X028401Y023650D01*
X028618Y023740D01*
X028852Y023740D01*
X029069Y023650D01*
X029130Y023589D01*
X029191Y023650D01*
X029408Y023740D01*
X029642Y023740D01*
X029859Y023650D01*
X030025Y023484D01*
X030096Y023314D01*
X030097Y023319D01*
X030129Y023381D01*
X030169Y023437D01*
X030218Y023486D01*
X030274Y023526D01*
X030336Y023558D01*
X030402Y023579D01*
X030470Y023590D01*
X030475Y023590D01*
X030475Y023180D01*
X030535Y023180D01*
X030535Y023590D01*
X030540Y023590D01*
X030608Y023579D01*
X030674Y023558D01*
X030736Y023526D01*
X030792Y023486D01*
X030841Y023437D01*
X030881Y023381D01*
X030913Y023319D01*
X030934Y023253D01*
X030945Y023185D01*
X030945Y023180D01*
X030535Y023180D01*
X030535Y023120D01*
X030945Y023120D01*
X030945Y023115D01*
X030934Y023047D01*
X030913Y022981D01*
X030881Y022919D01*
X030841Y022863D01*
X030792Y022814D01*
X030736Y022774D01*
X030674Y022742D01*
X030608Y022721D01*
X030540Y022710D01*
X030535Y022710D01*
X030535Y023120D01*
X030475Y023120D01*
X030475Y022710D01*
X030470Y022710D01*
X030402Y022721D01*
X030336Y022742D01*
X030274Y022774D01*
X030218Y022814D01*
X030169Y022863D01*
X030129Y022919D01*
X030097Y022981D01*
X030096Y022986D01*
X030025Y022816D01*
X029895Y022686D01*
X029895Y022041D01*
X029839Y021905D01*
X029735Y021801D01*
X029444Y021510D01*
X029340Y021406D01*
X029204Y021350D01*
X025283Y021350D01*
X022840Y018906D01*
X022704Y018850D01*
X017283Y018850D01*
X017000Y018567D01*
X017000Y015646D01*
X016944Y015510D01*
X016840Y015406D01*
X016340Y014906D01*
X016204Y014850D01*
X010783Y014850D01*
X010340Y014406D01*
X010204Y014350D01*
X010123Y014350D01*
X009993Y014220D01*
X010123Y014090D01*
X010477Y014090D01*
X010816Y014430D01*
X010920Y014534D01*
X011056Y014590D01*
X013204Y014590D01*
X013340Y014534D01*
X013783Y014090D01*
X015434Y014090D01*
X015547Y014203D01*
X013670Y014203D01*
X013552Y014322D02*
X020260Y014322D01*
X020260Y014440D02*
X013433Y014440D01*
X013280Y014559D02*
X020260Y014559D01*
X020260Y014677D02*
X010610Y014677D01*
X010492Y014559D02*
X010980Y014559D01*
X010827Y014440D02*
X010373Y014440D01*
X010094Y014322D02*
X010708Y014322D01*
X010590Y014203D02*
X010010Y014203D01*
X009630Y013720D02*
X010630Y013720D01*
X011130Y014220D01*
X013130Y014220D01*
X013630Y013720D01*
X016130Y013720D01*
X016503Y014290D02*
X015757Y014290D01*
X015547Y014203D01*
X016503Y014290D02*
X016713Y014203D01*
X020260Y014203D01*
X020260Y014085D02*
X019600Y014085D01*
X019610Y014079D02*
X019551Y014109D01*
X019488Y014130D01*
X019423Y014140D01*
X019150Y014140D01*
X019150Y013740D01*
X019110Y013740D01*
X019110Y014140D01*
X018837Y014140D01*
X018772Y014130D01*
X018709Y014109D01*
X018650Y014079D01*
X018596Y014040D01*
X018550Y013994D01*
X018511Y013940D01*
X018481Y013881D01*
X018460Y013818D01*
X018450Y013753D01*
X018450Y013740D01*
X019110Y013740D01*
X019110Y013700D01*
X019150Y013700D01*
X019150Y013740D01*
X019810Y013740D01*
X019810Y013753D01*
X019800Y013818D01*
X019779Y013881D01*
X019749Y013940D01*
X019710Y013994D01*
X019664Y014040D01*
X019610Y014079D01*
X019730Y013966D02*
X020260Y013966D01*
X020260Y013848D02*
X019790Y013848D01*
X019810Y013700D02*
X019150Y013700D01*
X019150Y013300D01*
X019423Y013300D01*
X019488Y013310D01*
X019551Y013331D01*
X019610Y013361D01*
X019664Y013400D01*
X019710Y013446D01*
X019749Y013500D01*
X019779Y013559D01*
X019800Y013622D01*
X019810Y013687D01*
X019810Y013700D01*
X019796Y013611D02*
X020260Y013611D01*
X020260Y013729D02*
X019150Y013729D01*
X019110Y013729D02*
X016960Y013729D01*
X016960Y013833D02*
X016873Y014043D01*
X016713Y014203D01*
X016832Y014085D02*
X018660Y014085D01*
X018530Y013966D02*
X016905Y013966D01*
X016954Y013848D02*
X018470Y013848D01*
X018450Y013700D02*
X018450Y013687D01*
X018460Y013622D01*
X018481Y013559D01*
X018511Y013500D01*
X018550Y013446D01*
X018596Y013400D01*
X018650Y013361D01*
X018709Y013331D01*
X018772Y013310D01*
X018837Y013300D01*
X019110Y013300D01*
X019110Y013700D01*
X018450Y013700D01*
X018464Y013611D02*
X016960Y013611D01*
X016960Y013607D02*
X016960Y013833D01*
X016960Y013607D02*
X016873Y013397D01*
X016713Y013237D01*
X016672Y013220D01*
X016713Y013203D01*
X016873Y013043D01*
X016960Y012833D01*
X016960Y012607D01*
X016873Y012397D01*
X016713Y012237D01*
X016672Y012220D01*
X016713Y012203D01*
X016873Y012043D01*
X016960Y011833D01*
X018465Y011833D01*
X018460Y011818D02*
X018450Y011753D01*
X018450Y011740D01*
X019110Y011740D01*
X019110Y012140D01*
X018837Y012140D01*
X018772Y012130D01*
X018709Y012109D01*
X018650Y012079D01*
X018596Y012040D01*
X018550Y011994D01*
X018511Y011940D01*
X018481Y011881D01*
X018460Y011818D01*
X018450Y011700D02*
X018450Y011687D01*
X018460Y011622D01*
X018481Y011559D01*
X018511Y011500D01*
X018550Y011446D01*
X018596Y011400D01*
X018650Y011361D01*
X018709Y011331D01*
X018772Y011310D01*
X018837Y011300D01*
X019110Y011300D01*
X019110Y011700D01*
X019150Y011700D01*
X019150Y011740D01*
X019110Y011740D01*
X019110Y011700D01*
X018450Y011700D01*
X018469Y011596D02*
X016956Y011596D01*
X016960Y011607D02*
X016960Y011833D01*
X016960Y011715D02*
X019110Y011715D01*
X019150Y011715D02*
X020260Y011715D01*
X020260Y011833D02*
X019795Y011833D01*
X019800Y011818D02*
X019779Y011881D01*
X019749Y011940D01*
X019710Y011994D01*
X019664Y012040D01*
X019610Y012079D01*
X019551Y012109D01*
X019488Y012130D01*
X019423Y012140D01*
X019150Y012140D01*
X019150Y011740D01*
X019810Y011740D01*
X019810Y011753D01*
X019800Y011818D01*
X019810Y011700D02*
X019150Y011700D01*
X019150Y011300D01*
X019423Y011300D01*
X019488Y011310D01*
X019551Y011331D01*
X019610Y011361D01*
X019664Y011400D01*
X019710Y011446D01*
X019749Y011500D01*
X019779Y011559D01*
X019800Y011622D01*
X019810Y011687D01*
X019810Y011700D01*
X019791Y011596D02*
X020260Y011596D01*
X020260Y011478D02*
X019733Y011478D01*
X019607Y011359D02*
X020260Y011359D01*
X020260Y011241D02*
X016717Y011241D01*
X016713Y011237D02*
X016873Y011397D01*
X016960Y011607D01*
X016907Y011478D02*
X018527Y011478D01*
X018653Y011359D02*
X016835Y011359D01*
X016713Y011237D02*
X016672Y011220D01*
X016713Y011203D01*
X016873Y011043D01*
X016960Y010833D01*
X016960Y010607D01*
X016873Y010397D01*
X016713Y010237D01*
X016503Y010150D01*
X015757Y010150D01*
X015547Y010237D01*
X015434Y010350D01*
X013783Y010350D01*
X013523Y010090D01*
X013690Y010090D01*
X013806Y010205D01*
X014016Y010292D01*
X014244Y010292D01*
X014454Y010205D01*
X014615Y010044D01*
X014702Y009834D01*
X014702Y009606D01*
X014615Y009396D01*
X014454Y009235D01*
X014244Y009148D01*
X014016Y009148D01*
X013806Y009235D01*
X013690Y009350D01*
X011783Y009350D01*
X011500Y009067D01*
X011556Y009090D01*
X019977Y009090D01*
X020260Y009373D01*
X020260Y015067D01*
X018179Y017148D01*
X018016Y017148D01*
X017806Y017235D01*
X017645Y017396D01*
X017558Y017606D01*
X017558Y017834D01*
X017645Y018044D01*
X017806Y018205D01*
X018016Y018292D01*
X018244Y018292D01*
X018454Y018205D01*
X018615Y018044D01*
X018702Y017834D01*
X018702Y017671D01*
X020840Y015534D01*
X020944Y015430D01*
X021000Y015294D01*
X021000Y009146D01*
X020944Y009010D01*
X020840Y008906D01*
X020444Y008510D01*
X020340Y008406D01*
X020204Y008350D01*
X011783Y008350D01*
X011340Y007906D01*
X011204Y007850D01*
X008556Y007850D01*
X008500Y007873D01*
X008737Y007636D01*
X008806Y007705D01*
X009016Y007792D01*
X009244Y007792D01*
X009454Y007705D01*
X009615Y007544D01*
X009702Y007334D01*
X009702Y007106D01*
X009615Y006896D01*
X009454Y006735D01*
X009244Y006648D01*
X009016Y006648D01*
X008806Y006735D01*
X008690Y006850D01*
X008556Y006850D01*
X008420Y006906D01*
X006816Y008510D01*
X006760Y008646D01*
X006760Y010794D01*
X006816Y010930D01*
X006920Y011034D01*
X007037Y011150D01*
X006894Y011150D01*
X006694Y011350D01*
X005556Y011350D01*
X005420Y011406D01*
X005316Y011510D01*
X004477Y012350D01*
X003566Y012350D01*
X003436Y012220D01*
X003700Y011956D01*
X003700Y011484D01*
X003366Y011150D01*
X002894Y011150D01*
X002694Y011350D01*
X002556Y011350D01*
X002420Y011406D01*
X002316Y011510D01*
X001816Y012010D01*
X001760Y012146D01*
X001760Y013294D01*
X001816Y013430D01*
X001920Y013534D01*
X002420Y014034D01*
X002556Y014090D01*
X002694Y014090D01*
X002760Y014156D01*
X002760Y015284D01*
X002694Y015350D01*
X002556Y015350D01*
X002420Y015406D01*
X001920Y015906D01*
X001920Y015906D01*
X001816Y016010D01*
X001760Y016146D01*
X001760Y018794D01*
X001816Y018930D01*
X001920Y019034D01*
X003816Y020930D01*
X003920Y021034D01*
X004056Y021090D01*
X007194Y021090D01*
X007394Y021290D01*
X007866Y021290D01*
X008200Y020956D01*
X008200Y020484D01*
X007866Y020150D01*
X007394Y020150D01*
X007194Y020350D01*
X004283Y020350D01*
X002500Y018567D01*
X002500Y016373D01*
X002739Y016135D01*
X002894Y016290D01*
X003366Y016290D01*
X003700Y015956D01*
X003700Y015484D01*
X003500Y015284D01*
X003500Y014156D01*
X003700Y013956D01*
X003700Y013484D01*
X003436Y013220D01*
X003566Y013090D01*
X004704Y013090D01*
X004840Y013034D01*
X005783Y012090D01*
X006694Y012090D01*
X006824Y012220D01*
X006560Y012484D01*
X006560Y012956D01*
X006824Y013220D01*
X006560Y013484D01*
X006560Y013956D01*
X006894Y014290D01*
X007366Y014290D01*
X007566Y014090D01*
X008137Y014090D01*
X008267Y014220D01*
X008020Y014467D01*
X008020Y014973D01*
X008267Y015220D01*
X008020Y015467D01*
X008020Y015973D01*
X008267Y016220D01*
X008137Y016350D01*
X006556Y016350D01*
X006420Y016406D01*
X005920Y016906D01*
X005816Y017010D01*
X005760Y017146D01*
X005760Y019294D01*
X005816Y019430D01*
X005920Y019534D01*
X006316Y019930D01*
X006420Y020034D01*
X006556Y020090D01*
X010215Y020090D01*
X010252Y020075D01*
X008977Y021350D01*
X006056Y021350D01*
X005920Y021406D01*
X005420Y021906D01*
X005316Y022010D01*
X005260Y022146D01*
X005260Y022427D01*
X005130Y022557D01*
X004976Y022403D01*
X004751Y022310D01*
X004509Y022310D01*
X004284Y022403D01*
X004130Y022557D01*
X003976Y022403D01*
X003751Y022310D01*
X003509Y022310D01*
X003284Y022403D01*
X003113Y022574D01*
X003020Y022799D01*
X003020Y023641D01*
X003113Y023866D01*
X003200Y023953D01*
X003200Y026806D01*
X003265Y026964D01*
X003386Y027085D01*
X003712Y027410D01*
X001440Y027410D01*
X001440Y027357D02*
X003658Y027357D01*
X003540Y027238D02*
X001440Y027238D01*
X001440Y027120D02*
X003421Y027120D01*
X003303Y027001D02*
X001440Y027001D01*
X001440Y026883D02*
X003232Y026883D01*
X003200Y026764D02*
X001440Y026764D01*
X001440Y026646D02*
X003200Y026646D01*
X003200Y026527D02*
X001440Y026527D01*
X001440Y026409D02*
X003200Y026409D01*
X003200Y026290D02*
X001440Y026290D01*
X001440Y026172D02*
X003200Y026172D01*
X003200Y026053D02*
X001440Y026053D01*
X001440Y025935D02*
X003200Y025935D01*
X003200Y025816D02*
X001440Y025816D01*
X001440Y025698D02*
X003200Y025698D01*
X003200Y025579D02*
X001440Y025579D01*
X001440Y025461D02*
X003200Y025461D01*
X003200Y025342D02*
X001440Y025342D01*
X001440Y025224D02*
X003200Y025224D01*
X003200Y025105D02*
X001440Y025105D01*
X001440Y024987D02*
X003200Y024987D01*
X003200Y024868D02*
X001440Y024868D01*
X001440Y024750D02*
X003200Y024750D01*
X003200Y024631D02*
X001440Y024631D01*
X001440Y024513D02*
X003200Y024513D01*
X003200Y024394D02*
X001440Y024394D01*
X001440Y024276D02*
X003200Y024276D01*
X003200Y024157D02*
X001440Y024157D01*
X001440Y024039D02*
X003200Y024039D01*
X003167Y023920D02*
X001440Y023920D01*
X001440Y023802D02*
X003086Y023802D01*
X003037Y023683D02*
X001440Y023683D01*
X001440Y023565D02*
X003020Y023565D01*
X003020Y023446D02*
X001440Y023446D01*
X001440Y023328D02*
X003020Y023328D01*
X003020Y023209D02*
X001440Y023209D01*
X001440Y023091D02*
X003020Y023091D01*
X003020Y022972D02*
X001440Y022972D01*
X001440Y022854D02*
X003020Y022854D01*
X003046Y022735D02*
X001440Y022735D01*
X001440Y022617D02*
X003095Y022617D01*
X003189Y022498D02*
X001440Y022498D01*
X001440Y022380D02*
X003341Y022380D01*
X003919Y022380D02*
X004341Y022380D01*
X004189Y022498D02*
X004071Y022498D01*
X004919Y022380D02*
X005260Y022380D01*
X005260Y022261D02*
X001440Y022261D01*
X001440Y022143D02*
X005262Y022143D01*
X005311Y022024D02*
X001440Y022024D01*
X001440Y021906D02*
X005421Y021906D01*
X005540Y021787D02*
X001440Y021787D01*
X001440Y021669D02*
X005658Y021669D01*
X005777Y021550D02*
X001440Y021550D01*
X001440Y021432D02*
X005895Y021432D01*
X006130Y021720D02*
X005630Y022220D01*
X005630Y023220D01*
X006130Y023883D02*
X005976Y024037D01*
X005751Y024130D01*
X005509Y024130D01*
X005284Y024037D01*
X005130Y023883D01*
X004976Y024037D01*
X004751Y024130D01*
X004509Y024130D01*
X004284Y024037D01*
X004130Y023883D01*
X004060Y023953D01*
X004060Y026542D01*
X004308Y026790D01*
X026656Y026790D01*
X026669Y026784D01*
X026841Y026784D01*
X026854Y026790D01*
X027278Y026790D01*
X027278Y024852D01*
X027092Y025038D01*
X026737Y025185D01*
X026353Y025185D01*
X025998Y025038D01*
X025727Y024767D01*
X025580Y024412D01*
X025580Y024028D01*
X025727Y023673D01*
X025998Y023402D01*
X026353Y023255D01*
X026737Y023255D01*
X027092Y023402D01*
X027278Y023588D01*
X027278Y023507D01*
X027255Y023484D01*
X027165Y023267D01*
X027165Y023033D01*
X027255Y022816D01*
X027421Y022650D01*
X027638Y022560D01*
X027872Y022560D01*
X028089Y022650D01*
X028245Y022806D01*
X028401Y022650D01*
X028618Y022560D01*
X028852Y022560D01*
X029069Y022650D01*
X029130Y022711D01*
X029155Y022686D01*
X029155Y022268D01*
X028977Y022090D01*
X025056Y022090D01*
X024920Y022034D01*
X024816Y021930D01*
X022477Y019590D01*
X017056Y019590D01*
X016920Y019534D01*
X016816Y019430D01*
X016420Y019034D01*
X016380Y018993D01*
X016340Y019034D01*
X015944Y019430D01*
X015840Y019534D01*
X015704Y019590D01*
X011783Y019590D01*
X009444Y021930D01*
X009340Y022034D01*
X009204Y022090D01*
X006283Y022090D01*
X006000Y022373D01*
X006000Y022427D01*
X006130Y022557D01*
X006284Y022403D01*
X006509Y022310D01*
X006751Y022310D01*
X006976Y022403D01*
X007147Y022574D01*
X007211Y022729D01*
X007237Y022679D01*
X007279Y022620D01*
X007330Y022569D01*
X007389Y022527D01*
X007453Y022494D01*
X007522Y022471D01*
X007590Y022461D01*
X007590Y023180D01*
X007670Y023180D01*
X007670Y023260D01*
X007590Y023260D01*
X007590Y023979D01*
X007522Y023969D01*
X007453Y023946D01*
X007389Y023913D01*
X007330Y023871D01*
X007279Y023820D01*
X007237Y023761D01*
X007211Y023711D01*
X007147Y023866D01*
X006976Y024037D01*
X006751Y024130D01*
X006509Y024130D01*
X006284Y024037D01*
X006130Y023883D01*
X006093Y023920D02*
X006167Y023920D01*
X006288Y024039D02*
X005972Y024039D01*
X005816Y024285D02*
X005444Y024285D01*
X005100Y024427D01*
X004837Y024690D01*
X004695Y025034D01*
X004695Y025406D01*
X004837Y025750D01*
X005100Y026013D01*
X005444Y026155D01*
X005816Y026155D01*
X006160Y026013D01*
X006423Y025750D01*
X006565Y025406D01*
X006565Y025034D01*
X006423Y024690D01*
X006160Y024427D01*
X005816Y024285D01*
X006079Y024394D02*
X009262Y024394D01*
X009210Y024446D02*
X009339Y024317D01*
X009307Y024303D01*
X009147Y024143D01*
X009060Y023933D01*
X009060Y023707D01*
X009147Y023497D01*
X009307Y023337D01*
X009517Y023250D01*
X009743Y023250D01*
X009953Y023337D01*
X010113Y023497D01*
X010200Y023707D01*
X010200Y023933D01*
X010113Y024143D01*
X009953Y024303D01*
X009921Y024317D01*
X010050Y024446D01*
X010050Y024600D01*
X009650Y024600D01*
X009650Y024640D01*
X009610Y024640D01*
X009610Y025040D01*
X009456Y025040D01*
X009210Y024794D01*
X009210Y024640D01*
X009610Y024640D01*
X009610Y024600D01*
X009210Y024600D01*
X009210Y024446D01*
X009210Y024513D02*
X006245Y024513D01*
X006363Y024631D02*
X009610Y024631D01*
X009650Y024631D02*
X011560Y024631D01*
X011560Y024513D02*
X010050Y024513D01*
X010050Y024640D02*
X009650Y024640D01*
X009650Y025040D01*
X009804Y025040D01*
X010050Y024794D01*
X010050Y024640D01*
X010050Y024750D02*
X011560Y024750D01*
X011560Y024856D02*
X011560Y024384D01*
X011724Y024220D01*
X011647Y024143D01*
X011560Y023933D01*
X011560Y023707D01*
X011647Y023497D01*
X011807Y023337D01*
X012017Y023250D01*
X012243Y023250D01*
X012453Y023337D01*
X012613Y023497D01*
X012700Y023707D01*
X012700Y023933D01*
X012613Y024143D01*
X012536Y024220D01*
X012700Y024384D01*
X012700Y024856D01*
X012366Y025190D01*
X011894Y025190D01*
X011560Y024856D01*
X011572Y024868D02*
X009976Y024868D01*
X009857Y024987D02*
X011690Y024987D01*
X011809Y025105D02*
X006565Y025105D01*
X006565Y025224D02*
X015243Y025224D01*
X015307Y025159D02*
X015537Y025064D01*
X015786Y025064D01*
X016016Y025159D01*
X016191Y025334D01*
X016286Y025564D01*
X016286Y025813D01*
X016191Y026043D01*
X016016Y026218D01*
X015786Y026313D01*
X015537Y026313D01*
X015307Y026218D01*
X015132Y026043D01*
X015037Y025813D01*
X015037Y025564D01*
X015132Y025334D01*
X015307Y025159D01*
X015437Y025105D02*
X012451Y025105D01*
X012570Y024987D02*
X023215Y024987D01*
X023195Y025034D02*
X023337Y024690D01*
X023600Y024427D01*
X023944Y024285D01*
X024316Y024285D01*
X024660Y024427D01*
X024923Y024690D01*
X025065Y025034D01*
X025065Y025406D01*
X024923Y025750D01*
X024660Y026013D01*
X024316Y026155D01*
X023944Y026155D01*
X023600Y026013D01*
X023337Y025750D01*
X023195Y025406D01*
X023195Y025034D01*
X023195Y025105D02*
X019823Y025105D01*
X019723Y025064D02*
X019953Y025159D01*
X020128Y025334D01*
X020223Y025564D01*
X020223Y025813D01*
X020128Y026043D01*
X019953Y026218D01*
X019723Y026313D01*
X019474Y026313D01*
X019244Y026218D01*
X019069Y026043D01*
X018974Y025813D01*
X018974Y025564D01*
X019069Y025334D01*
X019244Y025159D01*
X019474Y025064D01*
X019723Y025064D01*
X020017Y025224D02*
X023195Y025224D01*
X023195Y025342D02*
X020131Y025342D01*
X020181Y025461D02*
X023218Y025461D01*
X023267Y025579D02*
X020223Y025579D01*
X020223Y025698D02*
X023316Y025698D01*
X023404Y025816D02*
X020222Y025816D01*
X020173Y025935D02*
X023522Y025935D01*
X023698Y026053D02*
X020118Y026053D01*
X019999Y026172D02*
X027278Y026172D01*
X027278Y026290D02*
X019779Y026290D01*
X019418Y026290D02*
X018245Y026290D01*
X018253Y026282D02*
X018223Y026312D01*
X018187Y026333D01*
X018146Y026344D01*
X017690Y026344D01*
X017690Y025749D01*
X017570Y025749D01*
X017570Y026344D01*
X017114Y026344D01*
X017073Y026333D01*
X017037Y026312D01*
X017007Y026282D01*
X016986Y026245D01*
X016975Y026205D01*
X016975Y025749D01*
X017570Y025749D01*
X017570Y025629D01*
X016975Y025629D01*
X016975Y025172D01*
X016986Y025132D01*
X017007Y025095D01*
X017037Y025065D01*
X017073Y025044D01*
X017114Y025034D01*
X017570Y025034D01*
X017570Y025628D01*
X017690Y025628D01*
X017690Y025034D01*
X018146Y025034D01*
X018187Y025044D01*
X018223Y025065D01*
X018253Y025095D01*
X018274Y025132D01*
X018285Y025172D01*
X018285Y025629D01*
X017690Y025629D01*
X017690Y025749D01*
X018285Y025749D01*
X018285Y026205D01*
X018274Y026245D01*
X018253Y026282D01*
X018285Y026172D02*
X019198Y026172D01*
X019079Y026053D02*
X018285Y026053D01*
X018285Y025935D02*
X019024Y025935D01*
X018975Y025816D02*
X018285Y025816D01*
X018285Y025579D02*
X018974Y025579D01*
X018974Y025698D02*
X017690Y025698D01*
X017690Y025816D02*
X017570Y025816D01*
X017570Y025698D02*
X016286Y025698D01*
X016285Y025816D02*
X016975Y025816D01*
X016975Y025935D02*
X016236Y025935D01*
X016181Y026053D02*
X016975Y026053D01*
X016975Y026172D02*
X016062Y026172D01*
X015842Y026290D02*
X017015Y026290D01*
X017570Y026290D02*
X017690Y026290D01*
X017690Y026172D02*
X017570Y026172D01*
X017570Y026053D02*
X017690Y026053D01*
X017690Y025935D02*
X017570Y025935D01*
X017570Y025579D02*
X017690Y025579D01*
X017690Y025461D02*
X017570Y025461D01*
X017570Y025342D02*
X017690Y025342D01*
X017690Y025224D02*
X017570Y025224D01*
X017570Y025105D02*
X017690Y025105D01*
X018259Y025105D02*
X019374Y025105D01*
X019180Y025224D02*
X018285Y025224D01*
X018285Y025342D02*
X019066Y025342D01*
X019016Y025461D02*
X018285Y025461D01*
X018928Y024478D02*
X018841Y024391D01*
X018794Y024277D01*
X018794Y023163D01*
X018841Y023049D01*
X018928Y022962D01*
X019042Y022915D01*
X020155Y022915D01*
X020269Y022962D01*
X020356Y023049D01*
X020404Y023163D01*
X020404Y024277D01*
X020356Y024391D01*
X020269Y024478D01*
X020155Y024525D01*
X019042Y024525D01*
X018928Y024478D01*
X019012Y024513D02*
X016248Y024513D01*
X016218Y024525D02*
X016332Y024478D01*
X016419Y024391D01*
X016466Y024277D01*
X016466Y023163D01*
X016419Y023049D01*
X016332Y022962D01*
X016218Y022915D01*
X015105Y022915D01*
X014991Y022962D01*
X014904Y023049D01*
X014856Y023163D01*
X014856Y024277D01*
X014904Y024391D01*
X014991Y024478D01*
X015105Y024525D01*
X016218Y024525D01*
X016416Y024394D02*
X018844Y024394D01*
X018794Y024276D02*
X017922Y024276D01*
X017984Y024250D02*
X017754Y024345D01*
X017506Y024345D01*
X017276Y024250D01*
X017100Y024074D01*
X017005Y023844D01*
X017005Y023596D01*
X017100Y023366D01*
X017276Y023190D01*
X017506Y023095D01*
X017754Y023095D01*
X017984Y023190D01*
X018160Y023366D01*
X018255Y023596D01*
X018255Y023844D01*
X018160Y024074D01*
X017984Y024250D01*
X018077Y024157D02*
X018794Y024157D01*
X018794Y024039D02*
X018175Y024039D01*
X018224Y023920D02*
X018794Y023920D01*
X018794Y023802D02*
X018255Y023802D01*
X018255Y023683D02*
X018794Y023683D01*
X018794Y023565D02*
X018242Y023565D01*
X018193Y023446D02*
X018794Y023446D01*
X018794Y023328D02*
X018121Y023328D01*
X018003Y023209D02*
X018794Y023209D01*
X018824Y023091D02*
X016436Y023091D01*
X016466Y023209D02*
X017257Y023209D01*
X017139Y023328D02*
X016466Y023328D01*
X016466Y023446D02*
X017067Y023446D01*
X017018Y023565D02*
X016466Y023565D01*
X016466Y023683D02*
X017005Y023683D01*
X017005Y023802D02*
X016466Y023802D01*
X016466Y023920D02*
X017036Y023920D01*
X017085Y024039D02*
X016466Y024039D01*
X016466Y024157D02*
X017183Y024157D01*
X017338Y024276D02*
X016466Y024276D01*
X017001Y025105D02*
X015886Y025105D01*
X016080Y025224D02*
X016975Y025224D01*
X016975Y025342D02*
X016194Y025342D01*
X016244Y025461D02*
X016975Y025461D01*
X016975Y025579D02*
X016286Y025579D01*
X015481Y026290D02*
X004060Y026290D01*
X004060Y026172D02*
X015261Y026172D01*
X015142Y026053D02*
X006062Y026053D01*
X006238Y025935D02*
X015087Y025935D01*
X015038Y025816D02*
X006356Y025816D01*
X006444Y025698D02*
X015037Y025698D01*
X015037Y025579D02*
X006493Y025579D01*
X006542Y025461D02*
X015079Y025461D01*
X015129Y025342D02*
X006565Y025342D01*
X006545Y024987D02*
X009403Y024987D01*
X009284Y024868D02*
X006496Y024868D01*
X006447Y024750D02*
X009210Y024750D01*
X009610Y024750D02*
X009650Y024750D01*
X009650Y024868D02*
X009610Y024868D01*
X009610Y024987D02*
X009650Y024987D01*
X009998Y024394D02*
X011560Y024394D01*
X011668Y024276D02*
X009981Y024276D01*
X010099Y024157D02*
X011661Y024157D01*
X011604Y024039D02*
X010156Y024039D01*
X010200Y023920D02*
X011560Y023920D01*
X011560Y023802D02*
X010200Y023802D01*
X010190Y023683D02*
X011570Y023683D01*
X011619Y023565D02*
X010141Y023565D01*
X010062Y023446D02*
X011698Y023446D01*
X011829Y023328D02*
X009931Y023328D01*
X009329Y023328D02*
X008090Y023328D01*
X008090Y023260D02*
X008090Y023556D01*
X008079Y023628D01*
X008056Y023697D01*
X008023Y023761D01*
X007981Y023820D01*
X007930Y023871D01*
X007871Y023913D01*
X007807Y023946D01*
X007738Y023969D01*
X007670Y023979D01*
X007670Y023260D01*
X008090Y023260D01*
X008090Y023180D02*
X007670Y023180D01*
X007670Y022461D01*
X007738Y022471D01*
X007807Y022494D01*
X007871Y022527D01*
X007930Y022569D01*
X007981Y022620D01*
X008023Y022679D01*
X008056Y022743D01*
X008079Y022812D01*
X008090Y022884D01*
X008090Y023180D01*
X008090Y023091D02*
X014887Y023091D01*
X014856Y023209D02*
X007670Y023209D01*
X007670Y023091D02*
X007590Y023091D01*
X007590Y022972D02*
X007670Y022972D01*
X007670Y022854D02*
X007590Y022854D01*
X007590Y022735D02*
X007670Y022735D01*
X007670Y022617D02*
X007590Y022617D01*
X007590Y022498D02*
X007670Y022498D01*
X007815Y022498D02*
X029155Y022498D01*
X029155Y022380D02*
X006919Y022380D01*
X007071Y022498D02*
X007445Y022498D01*
X007283Y022617D02*
X007165Y022617D01*
X007977Y022617D02*
X027501Y022617D01*
X027336Y022735D02*
X008052Y022735D01*
X008085Y022854D02*
X027239Y022854D01*
X027190Y022972D02*
X020279Y022972D01*
X020373Y023091D02*
X027165Y023091D01*
X027165Y023209D02*
X020404Y023209D01*
X020404Y023328D02*
X026178Y023328D01*
X025954Y023446D02*
X020404Y023446D01*
X020404Y023565D02*
X025836Y023565D01*
X025723Y023683D02*
X020404Y023683D01*
X020404Y023802D02*
X025674Y023802D01*
X025625Y023920D02*
X020404Y023920D01*
X020404Y024039D02*
X025580Y024039D01*
X025580Y024157D02*
X020404Y024157D01*
X020404Y024276D02*
X025580Y024276D01*
X025580Y024394D02*
X024579Y024394D01*
X024745Y024513D02*
X025622Y024513D01*
X025671Y024631D02*
X024863Y024631D01*
X024947Y024750D02*
X025720Y024750D01*
X025828Y024868D02*
X024996Y024868D01*
X025045Y024987D02*
X025947Y024987D01*
X026160Y025105D02*
X025065Y025105D01*
X025065Y025224D02*
X027278Y025224D01*
X027278Y025342D02*
X025065Y025342D01*
X025042Y025461D02*
X027278Y025461D01*
X027278Y025579D02*
X024993Y025579D01*
X024944Y025698D02*
X027278Y025698D01*
X027278Y025816D02*
X024856Y025816D01*
X024738Y025935D02*
X027278Y025935D01*
X027278Y026053D02*
X024562Y026053D01*
X023264Y024868D02*
X012688Y024868D01*
X012700Y024750D02*
X023313Y024750D01*
X023397Y024631D02*
X012700Y024631D01*
X012700Y024513D02*
X015075Y024513D01*
X014907Y024394D02*
X012700Y024394D01*
X012592Y024276D02*
X014856Y024276D01*
X014856Y024157D02*
X012599Y024157D01*
X012656Y024039D02*
X014856Y024039D01*
X014856Y023920D02*
X012700Y023920D01*
X012700Y023802D02*
X014856Y023802D01*
X014856Y023683D02*
X012690Y023683D01*
X012641Y023565D02*
X014856Y023565D01*
X014856Y023446D02*
X012562Y023446D01*
X012431Y023328D02*
X014856Y023328D01*
X014981Y022972D02*
X008090Y022972D01*
X008090Y023446D02*
X009198Y023446D01*
X009119Y023565D02*
X008089Y023565D01*
X008061Y023683D02*
X009070Y023683D01*
X009060Y023802D02*
X007994Y023802D01*
X007858Y023920D02*
X009060Y023920D01*
X009104Y024039D02*
X006972Y024039D01*
X007093Y023920D02*
X007402Y023920D01*
X007266Y023802D02*
X007174Y023802D01*
X007590Y023802D02*
X007670Y023802D01*
X007670Y023920D02*
X007590Y023920D01*
X007590Y023683D02*
X007670Y023683D01*
X007670Y023565D02*
X007590Y023565D01*
X007590Y023446D02*
X007670Y023446D01*
X007670Y023328D02*
X007590Y023328D01*
X006341Y022380D02*
X006000Y022380D01*
X006071Y022498D02*
X006189Y022498D01*
X006112Y022261D02*
X029148Y022261D01*
X029029Y022143D02*
X006231Y022143D01*
X006130Y021720D02*
X009130Y021720D01*
X011630Y019220D01*
X015630Y019220D01*
X016130Y018720D01*
X016130Y016220D01*
X015630Y015720D01*
X009630Y015720D01*
X010114Y016099D02*
X015486Y016099D01*
X015477Y016090D02*
X015760Y016373D01*
X015760Y018567D01*
X015477Y018850D01*
X011556Y018850D01*
X011519Y018865D01*
X012295Y018090D01*
X014690Y018090D01*
X014806Y018205D01*
X015016Y018292D01*
X015244Y018292D01*
X015454Y018205D01*
X015615Y018044D01*
X015702Y017834D01*
X015702Y017606D01*
X015615Y017396D01*
X015454Y017235D01*
X015244Y017148D01*
X015016Y017148D01*
X014806Y017235D01*
X014690Y017350D01*
X012068Y017350D01*
X011932Y017406D01*
X009988Y019350D01*
X006783Y019350D01*
X006500Y019067D01*
X006500Y017373D01*
X006783Y017090D01*
X008137Y017090D01*
X008267Y017220D01*
X008137Y017350D01*
X007566Y017350D01*
X007366Y017150D01*
X006894Y017150D01*
X006560Y017484D01*
X006560Y017956D01*
X006894Y018290D01*
X007366Y018290D01*
X007566Y018090D01*
X008137Y018090D01*
X008373Y018326D01*
X008170Y018529D01*
X008170Y018680D01*
X008590Y018680D01*
X008590Y018760D01*
X008590Y019180D01*
X008439Y019180D01*
X008170Y018911D01*
X008170Y018760D01*
X008590Y018760D01*
X008670Y018760D01*
X008670Y019180D01*
X008821Y019180D01*
X009024Y018977D01*
X009377Y019330D01*
X009883Y019330D01*
X010240Y018973D01*
X010240Y018467D01*
X009993Y018220D01*
X010240Y017973D01*
X010240Y017467D01*
X009993Y017220D01*
X010123Y017090D01*
X011694Y017090D01*
X011894Y017290D01*
X012366Y017290D01*
X012700Y016956D01*
X012700Y016484D01*
X012366Y016150D01*
X011894Y016150D01*
X011694Y016350D01*
X010123Y016350D01*
X009993Y016220D01*
X010123Y016090D01*
X015477Y016090D01*
X015604Y016218D02*
X012434Y016218D01*
X012552Y016336D02*
X015723Y016336D01*
X015760Y016455D02*
X012671Y016455D01*
X012700Y016573D02*
X015760Y016573D01*
X015760Y016692D02*
X012700Y016692D01*
X012700Y016810D02*
X015760Y016810D01*
X015760Y016929D02*
X012700Y016929D01*
X012609Y017047D02*
X015760Y017047D01*
X015760Y017166D02*
X015287Y017166D01*
X015504Y017284D02*
X015760Y017284D01*
X015760Y017403D02*
X015618Y017403D01*
X015667Y017521D02*
X015760Y017521D01*
X015760Y017640D02*
X015702Y017640D01*
X015702Y017758D02*
X015760Y017758D01*
X015760Y017877D02*
X015685Y017877D01*
X015636Y017995D02*
X015760Y017995D01*
X015760Y018114D02*
X015546Y018114D01*
X015390Y018232D02*
X015760Y018232D01*
X015760Y018351D02*
X012034Y018351D01*
X011916Y018469D02*
X015760Y018469D01*
X015739Y018588D02*
X011797Y018588D01*
X011679Y018706D02*
X015621Y018706D01*
X015502Y018825D02*
X011560Y018825D01*
X010988Y018351D02*
X010123Y018351D01*
X010240Y018469D02*
X010869Y018469D01*
X010751Y018588D02*
X010240Y018588D01*
X010240Y018706D02*
X010632Y018706D01*
X010514Y018825D02*
X010240Y018825D01*
X010240Y018943D02*
X010395Y018943D01*
X010277Y019062D02*
X010151Y019062D01*
X010158Y019180D02*
X010033Y019180D01*
X010040Y019299D02*
X009914Y019299D01*
X010141Y019720D02*
X006630Y019720D01*
X006130Y019220D01*
X006130Y017220D01*
X006630Y016720D01*
X008630Y016720D01*
X008213Y017166D02*
X007382Y017166D01*
X007500Y017284D02*
X008203Y017284D01*
X008630Y017720D02*
X007130Y017720D01*
X007543Y018114D02*
X008161Y018114D01*
X008279Y018232D02*
X007424Y018232D01*
X006836Y018232D02*
X006500Y018232D01*
X006500Y018114D02*
X006717Y018114D01*
X006599Y017995D02*
X006500Y017995D01*
X006500Y017877D02*
X006560Y017877D01*
X006560Y017758D02*
X006500Y017758D01*
X006500Y017640D02*
X006560Y017640D01*
X006560Y017521D02*
X006500Y017521D01*
X006500Y017403D02*
X006641Y017403D01*
X006589Y017284D02*
X006760Y017284D01*
X006708Y017166D02*
X006878Y017166D01*
X006254Y016573D02*
X005800Y016573D01*
X005682Y016692D02*
X006135Y016692D01*
X006017Y016810D02*
X005563Y016810D01*
X005445Y016929D02*
X005898Y016929D01*
X005801Y017047D02*
X005326Y017047D01*
X005208Y017166D02*
X005760Y017166D01*
X005760Y017284D02*
X005089Y017284D01*
X004971Y017403D02*
X005760Y017403D01*
X005760Y017521D02*
X004852Y017521D01*
X004734Y017640D02*
X005760Y017640D01*
X005760Y017758D02*
X004615Y017758D01*
X004497Y017877D02*
X005760Y017877D01*
X005760Y017995D02*
X004378Y017995D01*
X004340Y018034D02*
X004204Y018090D01*
X003566Y018090D01*
X003366Y018290D01*
X002894Y018290D01*
X002560Y017956D01*
X002560Y017484D01*
X002894Y017150D01*
X003366Y017150D01*
X003566Y017350D01*
X003977Y017350D01*
X005816Y015510D01*
X005920Y015406D01*
X006056Y015350D01*
X006694Y015350D01*
X006894Y015150D01*
X007366Y015150D01*
X007700Y015484D01*
X007700Y015956D01*
X007366Y016290D01*
X006894Y016290D01*
X006694Y016090D01*
X006283Y016090D01*
X004340Y018034D01*
X004130Y017720D02*
X006130Y015720D01*
X007130Y015720D01*
X007700Y015744D02*
X008020Y015744D01*
X008020Y015862D02*
X007700Y015862D01*
X007676Y015981D02*
X008028Y015981D01*
X008146Y016099D02*
X007557Y016099D01*
X007439Y016218D02*
X008265Y016218D01*
X008151Y016336D02*
X006037Y016336D01*
X005919Y016455D02*
X006372Y016455D01*
X006156Y016218D02*
X006821Y016218D01*
X006703Y016099D02*
X006274Y016099D01*
X005702Y015625D02*
X003700Y015625D01*
X003700Y015507D02*
X005820Y015507D01*
X005965Y015388D02*
X003604Y015388D01*
X003500Y015270D02*
X006774Y015270D01*
X006893Y015151D02*
X003500Y015151D01*
X003500Y015033D02*
X008080Y015033D01*
X008020Y014914D02*
X003500Y014914D01*
X003500Y014796D02*
X008020Y014796D01*
X008020Y014677D02*
X003500Y014677D01*
X003500Y014559D02*
X008020Y014559D01*
X008047Y014440D02*
X003500Y014440D01*
X003500Y014322D02*
X008166Y014322D01*
X008250Y014203D02*
X007453Y014203D01*
X007130Y013720D02*
X008630Y013720D01*
X009630Y014720D02*
X010130Y014720D01*
X010630Y015220D01*
X016130Y015220D01*
X016630Y015720D01*
X016630Y018720D01*
X017130Y019220D01*
X022630Y019220D01*
X025130Y021720D01*
X029130Y021720D01*
X029525Y022115D01*
X029525Y023150D01*
X029944Y022735D02*
X030358Y022735D01*
X030475Y022735D02*
X030535Y022735D01*
X030652Y022735D02*
X032700Y022735D01*
X032700Y022617D02*
X029895Y022617D01*
X029895Y022498D02*
X032700Y022498D01*
X032700Y022380D02*
X029895Y022380D01*
X029895Y022261D02*
X032700Y022261D01*
X032700Y022143D02*
X029895Y022143D01*
X029888Y022024D02*
X032700Y022024D01*
X032700Y021906D02*
X029839Y021906D01*
X029720Y021787D02*
X032700Y021787D01*
X032700Y021669D02*
X029602Y021669D01*
X029483Y021550D02*
X032700Y021550D01*
X032700Y021432D02*
X029365Y021432D01*
X029155Y022617D02*
X028989Y022617D01*
X028481Y022617D02*
X028009Y022617D01*
X028174Y022735D02*
X028316Y022735D01*
X028315Y023565D02*
X028175Y023565D01*
X028138Y023683D02*
X028480Y023683D01*
X028138Y023802D02*
X030844Y023802D01*
X030795Y023920D02*
X028138Y023920D01*
X028138Y024039D02*
X030750Y024039D01*
X030750Y024028D02*
X030897Y023673D01*
X031168Y023402D01*
X031523Y023255D01*
X031907Y023255D01*
X032262Y023402D01*
X032533Y023673D01*
X032680Y024028D01*
X032680Y024412D01*
X032533Y024767D01*
X032262Y025038D01*
X031907Y025185D01*
X031523Y025185D01*
X031168Y025038D01*
X030897Y024767D01*
X030750Y024412D01*
X030750Y024028D01*
X030750Y024157D02*
X028138Y024157D01*
X028138Y024276D02*
X030750Y024276D01*
X030750Y024394D02*
X028138Y024394D01*
X028138Y024513D02*
X030792Y024513D01*
X030841Y024631D02*
X028138Y024631D01*
X028138Y024750D02*
X030890Y024750D01*
X030998Y024868D02*
X028138Y024868D01*
X028138Y024987D02*
X031117Y024987D01*
X031330Y025105D02*
X028138Y025105D01*
X028138Y025224D02*
X032700Y025224D01*
X032700Y025342D02*
X028138Y025342D01*
X028138Y025461D02*
X032700Y025461D01*
X032700Y025579D02*
X028138Y025579D01*
X028138Y025698D02*
X032700Y025698D01*
X032700Y025816D02*
X028138Y025816D01*
X028138Y025935D02*
X032700Y025935D01*
X032700Y026053D02*
X028138Y026053D01*
X028138Y026172D02*
X032700Y026172D01*
X032700Y026290D02*
X028138Y026290D01*
X028138Y026409D02*
X032700Y026409D01*
X032700Y026527D02*
X028138Y026527D01*
X028138Y026646D02*
X032596Y026646D01*
X032478Y026764D02*
X028138Y026764D01*
X027278Y026764D02*
X004282Y026764D01*
X004164Y026646D02*
X027278Y026646D01*
X027278Y026527D02*
X004060Y026527D01*
X004060Y026409D02*
X027278Y026409D01*
X027278Y025105D02*
X026930Y025105D01*
X027143Y024987D02*
X027278Y024987D01*
X027278Y024868D02*
X027262Y024868D01*
X027254Y023565D02*
X027278Y023565D01*
X027239Y023446D02*
X027136Y023446D01*
X027190Y023328D02*
X026912Y023328D01*
X028990Y023683D02*
X029270Y023683D01*
X029780Y023683D02*
X030893Y023683D01*
X031006Y023565D02*
X030653Y023565D01*
X030535Y023565D02*
X030475Y023565D01*
X030357Y023565D02*
X029945Y023565D01*
X030041Y023446D02*
X030179Y023446D01*
X030102Y023328D02*
X030090Y023328D01*
X030090Y022972D02*
X030102Y022972D01*
X030041Y022854D02*
X030179Y022854D01*
X030475Y022854D02*
X030535Y022854D01*
X030535Y022972D02*
X030475Y022972D01*
X030475Y023091D02*
X030535Y023091D01*
X030535Y023209D02*
X030475Y023209D01*
X030475Y023328D02*
X030535Y023328D01*
X030535Y023446D02*
X030475Y023446D01*
X030831Y023446D02*
X031124Y023446D01*
X030908Y023328D02*
X031348Y023328D01*
X030941Y023209D02*
X032700Y023209D01*
X032700Y023091D02*
X030941Y023091D01*
X030908Y022972D02*
X032700Y022972D01*
X032700Y022854D02*
X030831Y022854D01*
X032082Y023328D02*
X032700Y023328D01*
X032700Y023446D02*
X032306Y023446D01*
X032424Y023565D02*
X032700Y023565D01*
X032700Y023683D02*
X032537Y023683D01*
X032586Y023802D02*
X032700Y023802D01*
X032700Y023920D02*
X032635Y023920D01*
X032680Y024039D02*
X032700Y024039D01*
X032700Y024157D02*
X032680Y024157D01*
X032680Y024276D02*
X032700Y024276D01*
X032700Y024394D02*
X032680Y024394D01*
X032700Y024513D02*
X032638Y024513D01*
X032589Y024631D02*
X032700Y024631D01*
X032700Y024750D02*
X032540Y024750D01*
X032432Y024868D02*
X032700Y024868D01*
X032700Y024987D02*
X032313Y024987D01*
X032100Y025105D02*
X032700Y025105D01*
X032700Y021313D02*
X025246Y021313D01*
X025128Y021195D02*
X032700Y021195D01*
X032700Y021076D02*
X025009Y021076D01*
X024891Y020958D02*
X032700Y020958D01*
X032700Y020839D02*
X024772Y020839D01*
X024654Y020721D02*
X032700Y020721D01*
X032700Y020602D02*
X024535Y020602D01*
X024417Y020484D02*
X032700Y020484D01*
X032667Y020365D02*
X024298Y020365D01*
X024180Y020247D02*
X032548Y020247D01*
X032130Y017720D02*
X032130Y016720D01*
X032630Y016720D01*
X033130Y016220D01*
X033130Y014220D01*
X032630Y013720D01*
X032130Y013720D01*
X032130Y012720D01*
X031737Y012307D02*
X028523Y012307D01*
X028405Y012189D02*
X031855Y012189D01*
X031618Y012426D02*
X028642Y012426D01*
X028700Y012544D02*
X031560Y012544D01*
X031560Y012663D02*
X028700Y012663D01*
X028700Y012781D02*
X031560Y012781D01*
X031560Y012900D02*
X028700Y012900D01*
X028638Y013018D02*
X031622Y013018D01*
X031740Y013137D02*
X028520Y013137D01*
X028471Y013255D02*
X031760Y013255D01*
X031670Y013374D02*
X029760Y013374D01*
X029925Y013492D02*
X031560Y013492D01*
X031560Y013611D02*
X030044Y013611D01*
X030162Y013729D02*
X031560Y013729D01*
X031560Y013848D02*
X030281Y013848D01*
X030399Y013966D02*
X031570Y013966D01*
X031688Y014085D02*
X030518Y014085D01*
X030636Y014203D02*
X031807Y014203D01*
X031722Y014322D02*
X030755Y014322D01*
X030630Y014720D02*
X032130Y014720D01*
X032130Y015720D02*
X030630Y015720D01*
X029630Y016720D01*
X028130Y016720D01*
X027130Y016720D02*
X028130Y015720D01*
X028130Y014720D02*
X027130Y015720D01*
X026630Y015720D01*
X026630Y016720D02*
X027130Y016720D01*
X026630Y017720D02*
X028130Y017720D01*
X025590Y017758D02*
X018702Y017758D01*
X018685Y017877D02*
X025170Y017877D01*
X025254Y017995D02*
X018636Y017995D01*
X018546Y018114D02*
X025373Y018114D01*
X025255Y018232D02*
X024448Y018232D01*
X023812Y018232D02*
X018390Y018232D01*
X017870Y018232D02*
X017000Y018232D01*
X017000Y018114D02*
X017714Y018114D01*
X017624Y017995D02*
X017000Y017995D01*
X017000Y017877D02*
X017575Y017877D01*
X017558Y017758D02*
X017000Y017758D01*
X017000Y017640D02*
X017558Y017640D01*
X017593Y017521D02*
X017000Y017521D01*
X017000Y017403D02*
X017642Y017403D01*
X017756Y017284D02*
X017000Y017284D01*
X017000Y017166D02*
X017973Y017166D01*
X018280Y017047D02*
X017000Y017047D01*
X017000Y016929D02*
X018398Y016929D01*
X018517Y016810D02*
X017000Y016810D01*
X017000Y016692D02*
X018635Y016692D01*
X018754Y016573D02*
X017000Y016573D01*
X017000Y016455D02*
X018872Y016455D01*
X018991Y016336D02*
X017000Y016336D01*
X017000Y016218D02*
X019109Y016218D01*
X019228Y016099D02*
X017000Y016099D01*
X017000Y015981D02*
X019346Y015981D01*
X019465Y015862D02*
X017000Y015862D01*
X017000Y015744D02*
X019583Y015744D01*
X019702Y015625D02*
X016991Y015625D01*
X016940Y015507D02*
X019820Y015507D01*
X019939Y015388D02*
X016821Y015388D01*
X016703Y015270D02*
X020057Y015270D01*
X020176Y015151D02*
X016584Y015151D01*
X016466Y015033D02*
X020260Y015033D01*
X020260Y014914D02*
X016347Y014914D01*
X016913Y013492D02*
X018516Y013492D01*
X018632Y013374D02*
X016850Y013374D01*
X016731Y013255D02*
X020260Y013255D01*
X020260Y013137D02*
X019445Y013137D01*
X019423Y013140D02*
X019150Y013140D01*
X019150Y012740D01*
X019110Y012740D01*
X019110Y013140D01*
X018837Y013140D01*
X018772Y013130D01*
X018709Y013109D01*
X018650Y013079D01*
X018596Y013040D01*
X018550Y012994D01*
X018511Y012940D01*
X018481Y012881D01*
X018460Y012818D01*
X018450Y012753D01*
X018450Y012740D01*
X019110Y012740D01*
X019110Y012700D01*
X019150Y012700D01*
X019150Y012740D01*
X019810Y012740D01*
X019810Y012753D01*
X019800Y012818D01*
X019779Y012881D01*
X019749Y012940D01*
X019710Y012994D01*
X019664Y013040D01*
X019610Y013079D01*
X019551Y013109D01*
X019488Y013130D01*
X019423Y013140D01*
X019150Y013137D02*
X019110Y013137D01*
X019110Y013018D02*
X019150Y013018D01*
X019150Y012900D02*
X019110Y012900D01*
X019110Y012781D02*
X019150Y012781D01*
X019150Y012700D02*
X019810Y012700D01*
X019810Y012687D01*
X019800Y012622D01*
X019779Y012559D01*
X019749Y012500D01*
X019710Y012446D01*
X019664Y012400D01*
X019610Y012361D01*
X019551Y012331D01*
X019488Y012310D01*
X019423Y012300D01*
X019150Y012300D01*
X019150Y012700D01*
X019150Y012663D02*
X019110Y012663D01*
X019110Y012700D02*
X019110Y012300D01*
X018837Y012300D01*
X018772Y012310D01*
X018709Y012331D01*
X018650Y012361D01*
X018596Y012400D01*
X018550Y012446D01*
X018511Y012500D01*
X018481Y012559D01*
X018460Y012622D01*
X018450Y012687D01*
X018450Y012700D01*
X019110Y012700D01*
X019110Y012544D02*
X019150Y012544D01*
X019150Y012426D02*
X019110Y012426D01*
X019110Y012307D02*
X019150Y012307D01*
X019150Y012070D02*
X019110Y012070D01*
X019110Y011952D02*
X019150Y011952D01*
X019150Y011833D02*
X019110Y011833D01*
X019110Y011596D02*
X019150Y011596D01*
X019150Y011478D02*
X019110Y011478D01*
X019110Y011359D02*
X019150Y011359D01*
X019150Y011140D02*
X019150Y010740D01*
X019110Y010740D01*
X019110Y011140D01*
X018837Y011140D01*
X018772Y011130D01*
X018709Y011109D01*
X018650Y011079D01*
X018596Y011040D01*
X018550Y010994D01*
X018511Y010940D01*
X018481Y010881D01*
X018460Y010818D01*
X018450Y010753D01*
X018450Y010740D01*
X019110Y010740D01*
X019110Y010700D01*
X019150Y010700D01*
X019150Y010740D01*
X019810Y010740D01*
X019810Y010753D01*
X019800Y010818D01*
X019779Y010881D01*
X019749Y010940D01*
X019710Y010994D01*
X019664Y011040D01*
X019610Y011079D01*
X019551Y011109D01*
X019488Y011130D01*
X019423Y011140D01*
X019150Y011140D01*
X019150Y011122D02*
X019110Y011122D01*
X019110Y011004D02*
X019150Y011004D01*
X019150Y010885D02*
X019110Y010885D01*
X019110Y010767D02*
X019150Y010767D01*
X019150Y010700D02*
X019810Y010700D01*
X019810Y010687D01*
X019800Y010622D01*
X019779Y010559D01*
X019749Y010500D01*
X019710Y010446D01*
X019664Y010400D01*
X019610Y010361D01*
X019551Y010331D01*
X019488Y010310D01*
X019423Y010300D01*
X019150Y010300D01*
X019150Y010700D01*
X019110Y010700D02*
X019110Y010300D01*
X018837Y010300D01*
X018772Y010310D01*
X018709Y010331D01*
X018650Y010361D01*
X018596Y010400D01*
X018550Y010446D01*
X018511Y010500D01*
X018481Y010559D01*
X018460Y010622D01*
X018450Y010687D01*
X018450Y010700D01*
X019110Y010700D01*
X019110Y010648D02*
X019150Y010648D01*
X019150Y010530D02*
X019110Y010530D01*
X019110Y010411D02*
X019150Y010411D01*
X019675Y010411D02*
X020260Y010411D01*
X020260Y010293D02*
X016769Y010293D01*
X016879Y010411D02*
X018585Y010411D01*
X018496Y010530D02*
X016928Y010530D01*
X016960Y010648D02*
X018456Y010648D01*
X018452Y010767D02*
X016960Y010767D01*
X016939Y010885D02*
X018483Y010885D01*
X018560Y011004D02*
X016890Y011004D01*
X016794Y011122D02*
X018748Y011122D01*
X019512Y011122D02*
X020260Y011122D01*
X020260Y011004D02*
X019700Y011004D01*
X019777Y010885D02*
X020260Y010885D01*
X020260Y010767D02*
X019808Y010767D01*
X019804Y010648D02*
X020260Y010648D01*
X020260Y010530D02*
X019764Y010530D01*
X020260Y010174D02*
X016561Y010174D01*
X016130Y010720D02*
X013630Y010720D01*
X013130Y010220D01*
X011130Y010220D01*
X010630Y010720D01*
X009630Y010720D01*
X010130Y010720D01*
X009630Y011720D02*
X010630Y011720D01*
X011630Y010720D01*
X012630Y010720D01*
X013630Y011720D01*
X014630Y011720D01*
X014652Y011720D01*
X016130Y011720D01*
X016728Y012189D02*
X020260Y012189D01*
X020260Y012307D02*
X019467Y012307D01*
X019689Y012426D02*
X020260Y012426D01*
X020260Y012544D02*
X019772Y012544D01*
X019806Y012663D02*
X020260Y012663D01*
X020260Y012781D02*
X019806Y012781D01*
X019770Y012900D02*
X020260Y012900D01*
X020260Y013018D02*
X019686Y013018D01*
X019628Y013374D02*
X020260Y013374D01*
X020260Y013492D02*
X019744Y013492D01*
X019150Y013492D02*
X019110Y013492D01*
X019110Y013374D02*
X019150Y013374D01*
X019150Y013611D02*
X019110Y013611D01*
X019110Y013848D02*
X019150Y013848D01*
X019150Y013966D02*
X019110Y013966D01*
X019110Y014085D02*
X019150Y014085D01*
X018815Y013137D02*
X016780Y013137D01*
X016884Y013018D02*
X018574Y013018D01*
X018490Y012900D02*
X016933Y012900D01*
X016960Y012781D02*
X018454Y012781D01*
X018454Y012663D02*
X016960Y012663D01*
X016934Y012544D02*
X018488Y012544D01*
X018571Y012426D02*
X016885Y012426D01*
X016783Y012307D02*
X018793Y012307D01*
X018637Y012070D02*
X016846Y012070D01*
X016911Y011952D02*
X018519Y011952D01*
X019623Y012070D02*
X020260Y012070D01*
X020260Y011952D02*
X019741Y011952D01*
X021000Y011952D02*
X021260Y011952D01*
X021260Y012070D02*
X021000Y012070D01*
X021000Y012189D02*
X021260Y012189D01*
X021260Y012307D02*
X021000Y012307D01*
X021000Y012426D02*
X021260Y012426D01*
X021260Y012544D02*
X021000Y012544D01*
X021000Y012663D02*
X021260Y012663D01*
X021260Y012781D02*
X021000Y012781D01*
X021000Y012900D02*
X021304Y012900D01*
X021405Y013018D02*
X021000Y013018D01*
X021000Y013137D02*
X021523Y013137D01*
X021642Y013255D02*
X021000Y013255D01*
X021000Y013374D02*
X021760Y013374D01*
X021879Y013492D02*
X021000Y013492D01*
X021000Y013611D02*
X021997Y013611D01*
X022116Y013729D02*
X021000Y013729D01*
X021000Y013848D02*
X022234Y013848D01*
X022353Y013966D02*
X021000Y013966D01*
X021000Y014085D02*
X022471Y014085D01*
X022590Y014203D02*
X021000Y014203D01*
X021000Y014322D02*
X022708Y014322D01*
X022827Y014440D02*
X021000Y014440D01*
X021000Y014559D02*
X022945Y014559D01*
X023064Y014677D02*
X021000Y014677D01*
X021000Y014796D02*
X023182Y014796D01*
X023301Y014914D02*
X021000Y014914D01*
X021000Y015033D02*
X023419Y015033D01*
X023538Y015151D02*
X021000Y015151D01*
X021000Y015270D02*
X023656Y015270D01*
X023775Y015388D02*
X020961Y015388D01*
X020867Y015507D02*
X023893Y015507D01*
X024012Y015625D02*
X020748Y015625D01*
X020630Y015744D02*
X024130Y015744D01*
X024249Y015862D02*
X020511Y015862D01*
X020393Y015981D02*
X024367Y015981D01*
X024630Y015720D02*
X025630Y015720D01*
X025146Y016099D02*
X020274Y016099D01*
X020156Y016218D02*
X025265Y016218D01*
X025151Y016336D02*
X020037Y016336D01*
X019919Y016455D02*
X025033Y016455D01*
X025020Y016573D02*
X019800Y016573D01*
X019682Y016692D02*
X025020Y016692D01*
X025020Y016810D02*
X019563Y016810D01*
X019445Y016929D02*
X025020Y016929D01*
X025094Y017047D02*
X019326Y017047D01*
X019208Y017166D02*
X025213Y017166D01*
X025331Y017284D02*
X019089Y017284D01*
X018971Y017403D02*
X025297Y017403D01*
X025178Y017521D02*
X018852Y017521D01*
X018734Y017640D02*
X025170Y017640D01*
X023690Y018351D02*
X017000Y018351D01*
X017000Y018469D02*
X023614Y018469D01*
X023565Y018588D02*
X017021Y018588D01*
X017139Y018706D02*
X023558Y018706D01*
X023558Y018825D02*
X017258Y018825D01*
X016685Y019299D02*
X016075Y019299D01*
X015956Y019417D02*
X016804Y019417D01*
X016925Y019536D02*
X015835Y019536D01*
X016014Y019891D02*
X015246Y019891D01*
X015243Y019890D02*
X015453Y019977D01*
X015613Y020137D01*
X015630Y020178D01*
X015647Y020137D01*
X015807Y019977D01*
X016017Y019890D01*
X016243Y019890D01*
X016453Y019977D01*
X016613Y020137D01*
X016630Y020178D01*
X016647Y020137D01*
X016807Y019977D01*
X017017Y019890D01*
X017243Y019890D01*
X017453Y019977D01*
X017613Y020137D01*
X017630Y020178D01*
X017647Y020137D01*
X017807Y019977D01*
X018017Y019890D01*
X018243Y019890D01*
X018453Y019977D01*
X018613Y020137D01*
X018630Y020178D01*
X018647Y020137D01*
X018807Y019977D01*
X019017Y019890D01*
X019243Y019890D01*
X019453Y019977D01*
X019613Y020137D01*
X019630Y020178D01*
X019647Y020137D01*
X019807Y019977D01*
X020017Y019890D01*
X020243Y019890D01*
X020453Y019977D01*
X020613Y020137D01*
X020630Y020178D01*
X020647Y020137D01*
X020807Y019977D01*
X021017Y019890D01*
X021243Y019890D01*
X021453Y019977D01*
X021613Y020137D01*
X021700Y020347D01*
X021700Y021093D01*
X021613Y021303D01*
X021453Y021463D01*
X021243Y021550D01*
X021017Y021550D01*
X020807Y021463D01*
X020647Y021303D01*
X020630Y021262D01*
X020613Y021303D01*
X020453Y021463D01*
X020243Y021550D01*
X020017Y021550D01*
X019807Y021463D01*
X019647Y021303D01*
X019630Y021262D01*
X019613Y021303D01*
X019453Y021463D01*
X019243Y021550D01*
X019017Y021550D01*
X018807Y021463D01*
X018647Y021303D01*
X018630Y021262D01*
X018613Y021303D01*
X018453Y021463D01*
X018243Y021550D01*
X018017Y021550D01*
X017807Y021463D01*
X017647Y021303D01*
X017630Y021262D01*
X017613Y021303D01*
X017453Y021463D01*
X017243Y021550D01*
X017017Y021550D01*
X016807Y021463D01*
X016647Y021303D01*
X016630Y021262D01*
X016613Y021303D01*
X016453Y021463D01*
X016243Y021550D01*
X016017Y021550D01*
X015807Y021463D01*
X015647Y021303D01*
X015630Y021262D01*
X015613Y021303D01*
X015453Y021463D01*
X015243Y021550D01*
X015017Y021550D01*
X014807Y021463D01*
X014647Y021303D01*
X014630Y021262D01*
X014613Y021303D01*
X014453Y021463D01*
X014243Y021550D01*
X014017Y021550D01*
X013807Y021463D01*
X013647Y021303D01*
X013630Y021262D01*
X013613Y021303D01*
X013453Y021463D01*
X013243Y021550D01*
X013017Y021550D01*
X012807Y021463D01*
X012647Y021303D01*
X012560Y021093D01*
X012560Y020347D01*
X012647Y020137D01*
X012807Y019977D01*
X013017Y019890D01*
X013243Y019890D01*
X013453Y019977D01*
X013613Y020137D01*
X013630Y020178D01*
X013647Y020137D01*
X013807Y019977D01*
X014017Y019890D01*
X014243Y019890D01*
X014453Y019977D01*
X014613Y020137D01*
X014630Y020178D01*
X014647Y020137D01*
X014807Y019977D01*
X015017Y019890D01*
X015243Y019890D01*
X015014Y019891D02*
X014246Y019891D01*
X014014Y019891D02*
X013246Y019891D01*
X013014Y019891D02*
X011482Y019891D01*
X011364Y020010D02*
X012774Y020010D01*
X012656Y020128D02*
X011245Y020128D01*
X011297Y020247D02*
X011127Y020247D01*
X011179Y020365D02*
X011008Y020365D01*
X011060Y020484D02*
X010890Y020484D01*
X010771Y020602D02*
X011060Y020602D01*
X011060Y020484D02*
X011394Y020150D01*
X011866Y020150D01*
X012200Y020484D01*
X012200Y020956D01*
X011866Y021290D01*
X011394Y021290D01*
X011060Y020956D01*
X011060Y020484D01*
X011060Y020721D02*
X010653Y020721D01*
X010534Y020839D02*
X011060Y020839D01*
X011061Y020958D02*
X010416Y020958D01*
X010297Y021076D02*
X011180Y021076D01*
X011298Y021195D02*
X010179Y021195D01*
X010060Y021313D02*
X012657Y021313D01*
X012602Y021195D02*
X011962Y021195D01*
X012080Y021076D02*
X012560Y021076D01*
X012560Y020958D02*
X012199Y020958D01*
X012200Y020839D02*
X012560Y020839D01*
X012560Y020721D02*
X012200Y020721D01*
X012200Y020602D02*
X012560Y020602D01*
X012560Y020484D02*
X012200Y020484D01*
X012081Y020365D02*
X012560Y020365D01*
X012601Y020247D02*
X011963Y020247D01*
X011601Y019773D02*
X022659Y019773D01*
X022778Y019891D02*
X021246Y019891D01*
X021014Y019891D02*
X020246Y019891D01*
X020014Y019891D02*
X019246Y019891D01*
X019014Y019891D02*
X018246Y019891D01*
X018014Y019891D02*
X017246Y019891D01*
X017014Y019891D02*
X016246Y019891D01*
X016486Y020010D02*
X016774Y020010D01*
X016656Y020128D02*
X016604Y020128D01*
X017486Y020010D02*
X017774Y020010D01*
X017656Y020128D02*
X017604Y020128D01*
X018486Y020010D02*
X018774Y020010D01*
X018656Y020128D02*
X018604Y020128D01*
X019486Y020010D02*
X019774Y020010D01*
X019656Y020128D02*
X019604Y020128D01*
X020486Y020010D02*
X020774Y020010D01*
X020656Y020128D02*
X020604Y020128D01*
X021486Y020010D02*
X022896Y020010D01*
X023015Y020128D02*
X022388Y020128D01*
X022404Y020140D02*
X022450Y020186D01*
X022489Y020240D01*
X022519Y020299D01*
X022540Y020362D01*
X022550Y020427D01*
X022550Y020700D01*
X022150Y020700D01*
X022150Y020740D01*
X022550Y020740D01*
X022550Y021013D01*
X022540Y021078D01*
X022519Y021141D01*
X022489Y021200D01*
X022450Y021254D01*
X022404Y021300D01*
X022350Y021339D01*
X022291Y021369D01*
X022228Y021390D01*
X022163Y021400D01*
X022150Y021400D01*
X022150Y020740D01*
X022110Y020740D01*
X022110Y021400D01*
X022097Y021400D01*
X022032Y021390D01*
X021969Y021369D01*
X021910Y021339D01*
X021856Y021300D01*
X021810Y021254D01*
X021771Y021200D01*
X021741Y021141D01*
X021720Y021078D01*
X021710Y021013D01*
X021710Y020740D01*
X022110Y020740D01*
X022110Y020700D01*
X022150Y020700D01*
X022150Y020040D01*
X022163Y020040D01*
X022228Y020050D01*
X022291Y020071D01*
X022350Y020101D01*
X022404Y020140D01*
X022493Y020247D02*
X023133Y020247D01*
X023252Y020365D02*
X022540Y020365D01*
X022550Y020484D02*
X023370Y020484D01*
X023489Y020602D02*
X022550Y020602D01*
X022550Y020839D02*
X023726Y020839D01*
X023844Y020958D02*
X022550Y020958D01*
X022540Y021076D02*
X023963Y021076D01*
X024081Y021195D02*
X022492Y021195D01*
X022386Y021313D02*
X024200Y021313D01*
X024318Y021432D02*
X021485Y021432D01*
X021603Y021313D02*
X021874Y021313D01*
X021768Y021195D02*
X021658Y021195D01*
X021700Y021076D02*
X021720Y021076D01*
X021710Y020958D02*
X021700Y020958D01*
X021700Y020839D02*
X021710Y020839D01*
X021700Y020721D02*
X022110Y020721D01*
X022110Y020700D02*
X021710Y020700D01*
X021710Y020427D01*
X021720Y020362D01*
X021741Y020299D01*
X021771Y020240D01*
X021810Y020186D01*
X021856Y020140D01*
X021910Y020101D01*
X021969Y020071D01*
X022032Y020050D01*
X022097Y020040D01*
X022110Y020040D01*
X022110Y020700D01*
X022150Y020721D02*
X023607Y020721D01*
X024061Y020128D02*
X025991Y020128D01*
X025811Y020010D02*
X023943Y020010D01*
X023824Y019891D02*
X025693Y019891D01*
X025574Y019773D02*
X023706Y019773D01*
X023587Y019654D02*
X025456Y019654D01*
X025337Y019536D02*
X023469Y019536D01*
X023350Y019417D02*
X025246Y019417D01*
X025200Y019299D02*
X023232Y019299D01*
X023113Y019180D02*
X023780Y019180D01*
X023662Y019062D02*
X022995Y019062D01*
X022876Y018943D02*
X023603Y018943D01*
X024480Y019180D02*
X025200Y019180D01*
X024437Y021550D02*
X009823Y021550D01*
X009705Y021669D02*
X024555Y021669D01*
X024674Y021787D02*
X009586Y021787D01*
X009468Y021906D02*
X024792Y021906D01*
X024911Y022024D02*
X009349Y022024D01*
X009942Y021432D02*
X012775Y021432D01*
X013485Y021432D02*
X013775Y021432D01*
X013657Y021313D02*
X013603Y021313D01*
X014485Y021432D02*
X014775Y021432D01*
X014657Y021313D02*
X014603Y021313D01*
X015485Y021432D02*
X015775Y021432D01*
X015657Y021313D02*
X015603Y021313D01*
X016485Y021432D02*
X016775Y021432D01*
X016657Y021313D02*
X016603Y021313D01*
X017485Y021432D02*
X017775Y021432D01*
X017657Y021313D02*
X017603Y021313D01*
X018485Y021432D02*
X018775Y021432D01*
X018657Y021313D02*
X018603Y021313D01*
X019485Y021432D02*
X019775Y021432D01*
X019657Y021313D02*
X019603Y021313D01*
X020485Y021432D02*
X020775Y021432D01*
X020657Y021313D02*
X020603Y021313D01*
X021700Y020602D02*
X021710Y020602D01*
X021700Y020484D02*
X021710Y020484D01*
X021700Y020365D02*
X021720Y020365D01*
X021767Y020247D02*
X021659Y020247D01*
X021604Y020128D02*
X021872Y020128D01*
X022110Y020128D02*
X022150Y020128D01*
X022150Y020247D02*
X022110Y020247D01*
X022110Y020365D02*
X022150Y020365D01*
X022150Y020484D02*
X022110Y020484D01*
X022110Y020602D02*
X022150Y020602D01*
X022150Y020839D02*
X022110Y020839D01*
X022110Y020958D02*
X022150Y020958D01*
X022150Y021076D02*
X022110Y021076D01*
X022110Y021195D02*
X022150Y021195D01*
X022150Y021313D02*
X022110Y021313D01*
X022541Y019654D02*
X011719Y019654D01*
X012153Y018232D02*
X014870Y018232D01*
X014714Y018114D02*
X012271Y018114D01*
X012141Y017720D02*
X010141Y019720D01*
X010199Y020128D02*
X004061Y020128D01*
X003943Y020010D02*
X006396Y020010D01*
X006278Y019891D02*
X003824Y019891D01*
X003706Y019773D02*
X006159Y019773D01*
X006041Y019654D02*
X003587Y019654D01*
X003469Y019536D02*
X005922Y019536D01*
X005811Y019417D02*
X003350Y019417D01*
X003232Y019299D02*
X005762Y019299D01*
X005760Y019180D02*
X003113Y019180D01*
X002995Y019062D02*
X005760Y019062D01*
X005760Y018943D02*
X002876Y018943D01*
X002758Y018825D02*
X005760Y018825D01*
X005760Y018706D02*
X002639Y018706D01*
X002521Y018588D02*
X005760Y018588D01*
X005760Y018469D02*
X002500Y018469D01*
X002500Y018351D02*
X005760Y018351D01*
X005760Y018232D02*
X003424Y018232D01*
X003543Y018114D02*
X005760Y018114D01*
X006500Y018351D02*
X008349Y018351D01*
X008230Y018469D02*
X006500Y018469D01*
X006500Y018588D02*
X008170Y018588D01*
X008170Y018825D02*
X006500Y018825D01*
X006500Y018943D02*
X008203Y018943D01*
X008321Y019062D02*
X006500Y019062D01*
X006613Y019180D02*
X009227Y019180D01*
X009109Y019062D02*
X008939Y019062D01*
X008670Y019062D02*
X008590Y019062D01*
X008590Y018943D02*
X008670Y018943D01*
X008670Y018825D02*
X008590Y018825D01*
X008590Y018706D02*
X006500Y018706D01*
X006732Y019299D02*
X009346Y019299D01*
X010080Y020247D02*
X007963Y020247D01*
X008081Y020365D02*
X009962Y020365D01*
X009843Y020484D02*
X008200Y020484D01*
X008200Y020602D02*
X009725Y020602D01*
X009606Y020721D02*
X008200Y020721D01*
X008200Y020839D02*
X009488Y020839D01*
X009369Y020958D02*
X008199Y020958D01*
X008080Y021076D02*
X009251Y021076D01*
X009132Y021195D02*
X007962Y021195D01*
X007630Y020720D02*
X004130Y020720D01*
X002130Y018720D01*
X002130Y016220D01*
X002630Y015720D01*
X003130Y015720D01*
X003130Y013720D01*
X002630Y013720D01*
X002130Y013220D01*
X002130Y012220D01*
X002630Y011720D01*
X003130Y011720D01*
X002803Y011241D02*
X001440Y011241D01*
X001440Y011359D02*
X002535Y011359D01*
X002349Y011478D02*
X001440Y011478D01*
X001440Y011596D02*
X002231Y011596D01*
X002112Y011715D02*
X001440Y011715D01*
X001440Y011833D02*
X001994Y011833D01*
X001875Y011952D02*
X001440Y011952D01*
X001440Y012070D02*
X001792Y012070D01*
X001760Y012189D02*
X001440Y012189D01*
X001440Y012307D02*
X001760Y012307D01*
X001760Y012426D02*
X001440Y012426D01*
X001440Y012544D02*
X001760Y012544D01*
X001760Y012663D02*
X001440Y012663D01*
X001440Y012781D02*
X001760Y012781D01*
X001760Y012900D02*
X001440Y012900D01*
X001440Y013018D02*
X001760Y013018D01*
X001760Y013137D02*
X001440Y013137D01*
X001440Y013255D02*
X001760Y013255D01*
X001793Y013374D02*
X001440Y013374D01*
X001440Y013492D02*
X001879Y013492D01*
X001997Y013611D02*
X001440Y013611D01*
X001440Y013729D02*
X002116Y013729D01*
X002234Y013848D02*
X001440Y013848D01*
X001440Y013966D02*
X002353Y013966D01*
X002543Y014085D02*
X001440Y014085D01*
X001440Y014203D02*
X002760Y014203D01*
X002760Y014322D02*
X001440Y014322D01*
X001440Y014440D02*
X002760Y014440D01*
X002760Y014559D02*
X001440Y014559D01*
X001440Y014677D02*
X002760Y014677D01*
X002760Y014796D02*
X001440Y014796D01*
X001440Y014914D02*
X002760Y014914D01*
X002760Y015033D02*
X001440Y015033D01*
X001440Y015151D02*
X002760Y015151D01*
X002760Y015270D02*
X001440Y015270D01*
X001440Y015388D02*
X002465Y015388D01*
X002320Y015507D02*
X001440Y015507D01*
X001440Y015625D02*
X002202Y015625D01*
X002083Y015744D02*
X001440Y015744D01*
X001440Y015862D02*
X001965Y015862D01*
X001846Y015981D02*
X001440Y015981D01*
X001440Y016099D02*
X001780Y016099D01*
X001760Y016218D02*
X001440Y016218D01*
X001440Y016336D02*
X001760Y016336D01*
X001760Y016455D02*
X001440Y016455D01*
X001440Y016573D02*
X001760Y016573D01*
X001760Y016692D02*
X001440Y016692D01*
X001440Y016810D02*
X001760Y016810D01*
X001760Y016929D02*
X001440Y016929D01*
X001440Y017047D02*
X001760Y017047D01*
X001760Y017166D02*
X001440Y017166D01*
X001440Y017284D02*
X001760Y017284D01*
X001760Y017403D02*
X001440Y017403D01*
X001440Y017521D02*
X001760Y017521D01*
X001760Y017640D02*
X001440Y017640D01*
X001440Y017758D02*
X001760Y017758D01*
X001760Y017877D02*
X001440Y017877D01*
X001440Y017995D02*
X001760Y017995D01*
X001760Y018114D02*
X001440Y018114D01*
X001440Y018232D02*
X001760Y018232D01*
X001760Y018351D02*
X001440Y018351D01*
X001440Y018469D02*
X001760Y018469D01*
X001760Y018588D02*
X001440Y018588D01*
X001440Y018706D02*
X001760Y018706D01*
X001773Y018825D02*
X001440Y018825D01*
X001440Y018943D02*
X001830Y018943D01*
X001948Y019062D02*
X001440Y019062D01*
X001440Y019180D02*
X002067Y019180D01*
X002185Y019299D02*
X001440Y019299D01*
X001440Y019417D02*
X002304Y019417D01*
X002422Y019536D02*
X001440Y019536D01*
X001440Y019654D02*
X002541Y019654D01*
X002659Y019773D02*
X001440Y019773D01*
X001440Y019891D02*
X002778Y019891D01*
X002896Y020010D02*
X001440Y020010D01*
X001440Y020128D02*
X003015Y020128D01*
X003133Y020247D02*
X001440Y020247D01*
X001440Y020365D02*
X003252Y020365D01*
X003370Y020484D02*
X001440Y020484D01*
X001440Y020602D02*
X003489Y020602D01*
X003607Y020721D02*
X001440Y020721D01*
X001440Y020839D02*
X003726Y020839D01*
X003844Y020958D02*
X001440Y020958D01*
X001440Y021076D02*
X004023Y021076D01*
X004180Y020247D02*
X007297Y020247D01*
X007298Y021195D02*
X001440Y021195D01*
X001440Y021313D02*
X009014Y021313D01*
X009161Y024157D02*
X004060Y024157D01*
X004060Y024039D02*
X004288Y024039D01*
X004167Y023920D02*
X004093Y023920D01*
X004060Y024276D02*
X009279Y024276D01*
X005288Y024039D02*
X004972Y024039D01*
X005093Y023920D02*
X005167Y023920D01*
X005181Y024394D02*
X004060Y024394D01*
X004060Y024513D02*
X005015Y024513D01*
X004897Y024631D02*
X004060Y024631D01*
X004060Y024750D02*
X004813Y024750D01*
X004764Y024868D02*
X004060Y024868D01*
X004060Y024987D02*
X004715Y024987D01*
X004695Y025105D02*
X004060Y025105D01*
X004060Y025224D02*
X004695Y025224D01*
X004695Y025342D02*
X004060Y025342D01*
X004060Y025461D02*
X004718Y025461D01*
X004767Y025579D02*
X004060Y025579D01*
X004060Y025698D02*
X004816Y025698D01*
X004904Y025816D02*
X004060Y025816D01*
X004060Y025935D02*
X005022Y025935D01*
X005198Y026053D02*
X004060Y026053D01*
X005071Y022498D02*
X005189Y022498D01*
X002836Y018232D02*
X002500Y018232D01*
X002500Y018114D02*
X002717Y018114D01*
X002599Y017995D02*
X002500Y017995D01*
X002500Y017877D02*
X002560Y017877D01*
X002560Y017758D02*
X002500Y017758D01*
X002500Y017640D02*
X002560Y017640D01*
X002560Y017521D02*
X002500Y017521D01*
X002500Y017403D02*
X002641Y017403D01*
X002760Y017284D02*
X002500Y017284D01*
X002500Y017166D02*
X002878Y017166D01*
X002500Y017047D02*
X004280Y017047D01*
X004398Y016929D02*
X002500Y016929D01*
X002500Y016810D02*
X004517Y016810D01*
X004635Y016692D02*
X002500Y016692D01*
X002500Y016573D02*
X004754Y016573D01*
X004872Y016455D02*
X002500Y016455D01*
X002537Y016336D02*
X004991Y016336D01*
X005109Y016218D02*
X003439Y016218D01*
X003557Y016099D02*
X005228Y016099D01*
X005346Y015981D02*
X003676Y015981D01*
X003700Y015862D02*
X005465Y015862D01*
X005583Y015744D02*
X003700Y015744D01*
X002821Y016218D02*
X002656Y016218D01*
X003382Y017166D02*
X004161Y017166D01*
X004043Y017284D02*
X003500Y017284D01*
X003130Y017720D02*
X004130Y017720D01*
X007367Y015151D02*
X008198Y015151D01*
X008218Y015270D02*
X007486Y015270D01*
X007604Y015388D02*
X008099Y015388D01*
X008020Y015507D02*
X007700Y015507D01*
X007700Y015625D02*
X008020Y015625D01*
X006807Y014203D02*
X003500Y014203D01*
X003572Y014085D02*
X006688Y014085D01*
X006570Y013966D02*
X003690Y013966D01*
X003700Y013848D02*
X006560Y013848D01*
X006560Y013729D02*
X003700Y013729D01*
X003700Y013611D02*
X006560Y013611D01*
X006560Y013492D02*
X003700Y013492D01*
X003590Y013374D02*
X006670Y013374D01*
X006789Y013255D02*
X003471Y013255D01*
X003520Y013137D02*
X006740Y013137D01*
X006622Y013018D02*
X004855Y013018D01*
X004974Y012900D02*
X006560Y012900D01*
X006560Y012781D02*
X005092Y012781D01*
X005211Y012663D02*
X006560Y012663D01*
X006560Y012544D02*
X005329Y012544D01*
X005448Y012426D02*
X006618Y012426D01*
X006737Y012307D02*
X005566Y012307D01*
X005685Y012189D02*
X006792Y012189D01*
X007130Y012720D02*
X008630Y012720D01*
X008630Y011720D02*
X008130Y011720D01*
X007130Y010720D01*
X007130Y008720D01*
X008630Y007220D01*
X009130Y007220D01*
X009457Y006738D02*
X016818Y006738D01*
X016837Y006690D02*
X017100Y006427D01*
X017444Y006285D01*
X017816Y006285D01*
X018160Y006427D01*
X018423Y006690D01*
X018565Y007034D01*
X018565Y007406D01*
X018423Y007750D01*
X018160Y008013D01*
X017816Y008155D01*
X017444Y008155D01*
X017100Y008013D01*
X016837Y007750D01*
X016695Y007406D01*
X016695Y007034D01*
X016837Y006690D01*
X016909Y006619D02*
X004460Y006619D01*
X004460Y006607D02*
X004460Y006833D01*
X004373Y007043D01*
X004213Y007203D01*
X004003Y007290D01*
X003257Y007290D01*
X003047Y007203D01*
X002887Y007043D01*
X002800Y006833D01*
X002800Y006607D01*
X002887Y006397D01*
X003047Y006237D01*
X003088Y006220D01*
X003047Y006203D01*
X002887Y006043D01*
X002800Y005833D01*
X002800Y005607D01*
X002887Y005397D01*
X003047Y005237D01*
X003088Y005220D01*
X003047Y005203D01*
X002887Y005043D01*
X002800Y004833D01*
X002800Y004607D01*
X002887Y004397D01*
X003047Y004237D01*
X003088Y004220D01*
X003047Y004203D01*
X002887Y004043D01*
X002800Y003833D01*
X002800Y003607D01*
X002887Y003397D01*
X003047Y003237D01*
X003088Y003220D01*
X003047Y003203D01*
X002887Y003043D01*
X002800Y002833D01*
X002800Y002607D01*
X002887Y002397D01*
X003047Y002237D01*
X003088Y002220D01*
X003047Y002203D01*
X002887Y002043D01*
X002800Y001833D01*
X002800Y001607D01*
X002887Y001397D01*
X003047Y001237D01*
X003257Y001150D01*
X004003Y001150D01*
X004213Y001237D01*
X004373Y001397D01*
X004460Y001607D01*
X004460Y001833D01*
X004373Y002043D01*
X004213Y002203D01*
X004172Y002220D01*
X004213Y002237D01*
X004373Y002397D01*
X004460Y002607D01*
X004460Y002833D01*
X004373Y003043D01*
X004213Y003203D01*
X004172Y003220D01*
X004213Y003237D01*
X004373Y003397D01*
X004460Y003607D01*
X004460Y003833D01*
X004373Y004043D01*
X004213Y004203D01*
X004172Y004220D01*
X004213Y004237D01*
X004373Y004397D01*
X004460Y004607D01*
X004460Y004833D01*
X004373Y005043D01*
X004213Y005203D01*
X004172Y005220D01*
X004213Y005237D01*
X004373Y005397D01*
X004460Y005607D01*
X004460Y005833D01*
X004373Y006043D01*
X004213Y006203D01*
X004172Y006220D01*
X004213Y006237D01*
X004373Y006397D01*
X004460Y006607D01*
X004416Y006501D02*
X017027Y006501D01*
X017210Y006382D02*
X004358Y006382D01*
X004240Y006264D02*
X021260Y006264D01*
X021260Y006382D02*
X018050Y006382D01*
X018233Y006501D02*
X021260Y006501D01*
X021260Y006619D02*
X018351Y006619D01*
X018442Y006738D02*
X021260Y006738D01*
X021260Y006856D02*
X018491Y006856D01*
X018540Y006975D02*
X021260Y006975D01*
X021260Y007093D02*
X018565Y007093D01*
X018565Y007212D02*
X021260Y007212D01*
X021260Y007330D02*
X018565Y007330D01*
X018547Y007449D02*
X021260Y007449D01*
X021260Y007567D02*
X018498Y007567D01*
X018449Y007686D02*
X021260Y007686D01*
X021260Y007804D02*
X018368Y007804D01*
X018250Y007923D02*
X021260Y007923D01*
X021260Y008041D02*
X018091Y008041D01*
X017169Y008041D02*
X012615Y008041D01*
X012700Y007956D02*
X012366Y008290D01*
X011894Y008290D01*
X011560Y007956D01*
X011560Y007484D01*
X011894Y007150D01*
X012366Y007150D01*
X012700Y007484D01*
X012700Y007956D01*
X012700Y007923D02*
X017010Y007923D01*
X016892Y007804D02*
X012700Y007804D01*
X012700Y007686D02*
X016811Y007686D01*
X016762Y007567D02*
X012700Y007567D01*
X012665Y007449D02*
X016713Y007449D01*
X016695Y007330D02*
X012546Y007330D01*
X012428Y007212D02*
X016695Y007212D01*
X016695Y007093D02*
X009697Y007093D01*
X009702Y007212D02*
X011832Y007212D01*
X011714Y007330D02*
X009702Y007330D01*
X009655Y007449D02*
X011595Y007449D01*
X011560Y007567D02*
X009593Y007567D01*
X009474Y007686D02*
X011560Y007686D01*
X011560Y007804D02*
X008569Y007804D01*
X008688Y007686D02*
X008786Y007686D01*
X008630Y008220D02*
X011130Y008220D01*
X011630Y008720D01*
X020130Y008720D01*
X020630Y009220D01*
X020630Y015220D01*
X018130Y017720D01*
X016567Y019180D02*
X016193Y019180D01*
X016312Y019062D02*
X016448Y019062D01*
X015774Y020010D02*
X015486Y020010D01*
X015604Y020128D02*
X015656Y020128D01*
X014774Y020010D02*
X014486Y020010D01*
X014604Y020128D02*
X014656Y020128D01*
X013774Y020010D02*
X013486Y020010D01*
X013604Y020128D02*
X013656Y020128D01*
X011462Y017877D02*
X010240Y017877D01*
X010240Y017758D02*
X011580Y017758D01*
X011699Y017640D02*
X010240Y017640D01*
X010240Y017521D02*
X011817Y017521D01*
X011941Y017403D02*
X010175Y017403D01*
X010057Y017284D02*
X011888Y017284D01*
X011769Y017166D02*
X010047Y017166D01*
X009630Y016720D02*
X012130Y016720D01*
X011708Y016336D02*
X010109Y016336D01*
X009995Y016218D02*
X011826Y016218D01*
X012491Y017166D02*
X014973Y017166D01*
X014756Y017284D02*
X012372Y017284D01*
X012141Y017720D02*
X015130Y017720D01*
X011343Y017995D02*
X010218Y017995D01*
X010099Y018114D02*
X011225Y018114D01*
X011106Y018232D02*
X010005Y018232D01*
X010729Y014796D02*
X020260Y014796D01*
X021630Y012720D02*
X024630Y015720D01*
X024630Y014720D02*
X022130Y012220D01*
X022130Y002720D01*
X022630Y002220D01*
X030630Y002220D01*
X031130Y002720D01*
X031630Y002720D01*
X032207Y002235D02*
X032700Y002235D01*
X032700Y002353D02*
X032329Y002353D01*
X032404Y002472D02*
X032700Y002472D01*
X032700Y002590D02*
X032453Y002590D01*
X032460Y002709D02*
X032700Y002709D01*
X032700Y002827D02*
X032460Y002827D01*
X032414Y002946D02*
X032700Y002946D01*
X032700Y003064D02*
X032352Y003064D01*
X032234Y003183D02*
X032700Y003183D01*
X032700Y003301D02*
X032277Y003301D01*
X032382Y003420D02*
X032700Y003420D01*
X032700Y003538D02*
X032432Y003538D01*
X032460Y003657D02*
X032700Y003657D01*
X032700Y003775D02*
X032460Y003775D01*
X032435Y003894D02*
X032700Y003894D01*
X032700Y004012D02*
X032386Y004012D01*
X032286Y004131D02*
X032700Y004131D01*
X032700Y004249D02*
X032225Y004249D01*
X032344Y004368D02*
X032700Y004368D01*
X032700Y004486D02*
X032410Y004486D01*
X032459Y004605D02*
X032700Y004605D01*
X032700Y004723D02*
X032460Y004723D01*
X032457Y004842D02*
X032700Y004842D01*
X032700Y004960D02*
X032408Y004960D01*
X032338Y005079D02*
X032700Y005079D01*
X032700Y005197D02*
X032219Y005197D01*
X032292Y005316D02*
X032700Y005316D01*
X032700Y005434D02*
X032389Y005434D01*
X032438Y005553D02*
X032700Y005553D01*
X032700Y005671D02*
X032460Y005671D01*
X032460Y005790D02*
X032700Y005790D01*
X032700Y005908D02*
X032429Y005908D01*
X032380Y006027D02*
X032700Y006027D01*
X032700Y006145D02*
X032271Y006145D01*
X032240Y006264D02*
X032700Y006264D01*
X032700Y006382D02*
X032358Y006382D01*
X032416Y006501D02*
X032700Y006501D01*
X032700Y006619D02*
X032460Y006619D01*
X032460Y006738D02*
X032700Y006738D01*
X032700Y006856D02*
X032451Y006856D01*
X032402Y006975D02*
X032700Y006975D01*
X032700Y007093D02*
X032323Y007093D01*
X032193Y007212D02*
X032700Y007212D01*
X032700Y007330D02*
X032049Y007330D01*
X032051Y007331D02*
X032110Y007361D01*
X032164Y007400D01*
X032210Y007446D01*
X032249Y007500D01*
X032279Y007559D01*
X032300Y007622D01*
X032310Y007687D01*
X032310Y007700D01*
X031650Y007700D01*
X031650Y007740D01*
X031610Y007740D01*
X031610Y008140D01*
X031337Y008140D01*
X031272Y008130D01*
X031209Y008109D01*
X031150Y008079D01*
X031096Y008040D01*
X031050Y007994D01*
X031011Y007940D01*
X030981Y007881D01*
X030960Y007818D01*
X030950Y007753D01*
X030950Y007740D01*
X031610Y007740D01*
X031610Y007700D01*
X031650Y007700D01*
X031650Y007300D01*
X031923Y007300D01*
X031988Y007310D01*
X032051Y007331D01*
X032212Y007449D02*
X032700Y007449D01*
X032700Y007567D02*
X032282Y007567D01*
X032310Y007686D02*
X032700Y007686D01*
X032700Y007804D02*
X032302Y007804D01*
X032300Y007818D02*
X032279Y007881D01*
X032249Y007940D01*
X032210Y007994D01*
X032164Y008040D01*
X032110Y008079D01*
X032051Y008109D01*
X031988Y008130D01*
X031923Y008140D01*
X031650Y008140D01*
X031650Y007740D01*
X032310Y007740D01*
X032310Y007753D01*
X032300Y007818D01*
X032258Y007923D02*
X032700Y007923D01*
X032625Y008041D02*
X032163Y008041D01*
X032026Y008160D02*
X032506Y008160D01*
X032388Y008278D02*
X032254Y008278D01*
X031650Y008041D02*
X031610Y008041D01*
X031610Y007923D02*
X031650Y007923D01*
X031650Y007804D02*
X031610Y007804D01*
X031610Y007700D02*
X030950Y007700D01*
X030950Y007687D01*
X030960Y007622D01*
X030981Y007559D01*
X031011Y007500D01*
X031050Y007446D01*
X031096Y007400D01*
X031150Y007361D01*
X031209Y007331D01*
X031272Y007310D01*
X031337Y007300D01*
X031610Y007300D01*
X031610Y007700D01*
X031610Y007686D02*
X031650Y007686D01*
X031650Y007567D02*
X031610Y007567D01*
X031610Y007449D02*
X031650Y007449D01*
X031650Y007330D02*
X031610Y007330D01*
X031211Y007330D02*
X027263Y007330D01*
X027145Y007212D02*
X031067Y007212D01*
X030937Y007093D02*
X027026Y007093D01*
X026908Y006975D02*
X030858Y006975D01*
X030743Y006856D02*
X026789Y006856D01*
X026671Y006738D02*
X030624Y006738D01*
X030506Y006619D02*
X026552Y006619D01*
X026434Y006501D02*
X030387Y006501D01*
X030269Y006382D02*
X026281Y006382D01*
X025983Y006264D02*
X030150Y006264D01*
X030032Y006145D02*
X024500Y006145D01*
X024500Y006027D02*
X029913Y006027D01*
X029795Y005908D02*
X024500Y005908D01*
X024500Y005790D02*
X029676Y005790D01*
X029558Y005671D02*
X024500Y005671D01*
X024500Y005553D02*
X029439Y005553D01*
X029321Y005434D02*
X024500Y005434D01*
X024500Y005316D02*
X029202Y005316D01*
X029084Y005197D02*
X024500Y005197D01*
X024500Y005079D02*
X028965Y005079D01*
X028847Y004960D02*
X024500Y004960D01*
X024532Y004842D02*
X028728Y004842D01*
X028610Y004723D02*
X024650Y004723D01*
X024769Y004605D02*
X028491Y004605D01*
X028630Y004220D02*
X031130Y006720D01*
X031630Y006720D01*
X031048Y007449D02*
X027382Y007449D01*
X027500Y007567D02*
X030978Y007567D01*
X030950Y007686D02*
X027619Y007686D01*
X027737Y007804D02*
X030958Y007804D01*
X031002Y007923D02*
X027856Y007923D01*
X027974Y008041D02*
X031097Y008041D01*
X031234Y008160D02*
X028093Y008160D01*
X028211Y008278D02*
X031006Y008278D01*
X030887Y008397D02*
X028330Y008397D01*
X028446Y008515D02*
X030838Y008515D01*
X030800Y008634D02*
X028495Y008634D01*
X028500Y008752D02*
X030800Y008752D01*
X030815Y008871D02*
X030022Y008871D01*
X030160Y008927D02*
X030423Y009190D01*
X030565Y009534D01*
X030565Y009906D01*
X030423Y010250D01*
X030160Y010513D01*
X029816Y010655D01*
X029444Y010655D01*
X029100Y010513D01*
X028837Y010250D01*
X028695Y009906D01*
X028695Y009534D01*
X028837Y009190D01*
X029100Y008927D01*
X029444Y008785D01*
X029816Y008785D01*
X030160Y008927D01*
X030221Y008989D02*
X030864Y008989D01*
X030951Y009108D02*
X030340Y009108D01*
X030437Y009226D02*
X031102Y009226D01*
X030536Y009463D02*
X032689Y009463D01*
X032807Y009582D02*
X030565Y009582D01*
X030565Y009700D02*
X032926Y009700D01*
X033044Y009819D02*
X030565Y009819D01*
X030552Y009937D02*
X033163Y009937D01*
X033200Y010056D02*
X030503Y010056D01*
X030454Y010174D02*
X033200Y010174D01*
X033200Y010293D02*
X030380Y010293D01*
X030261Y010411D02*
X033200Y010411D01*
X033200Y010530D02*
X030119Y010530D01*
X029833Y010648D02*
X033200Y010648D01*
X033200Y010767D02*
X028500Y010767D01*
X028500Y010648D02*
X029427Y010648D01*
X029141Y010530D02*
X028500Y010530D01*
X028500Y010411D02*
X028999Y010411D01*
X028880Y010293D02*
X028500Y010293D01*
X028500Y010174D02*
X028806Y010174D01*
X028757Y010056D02*
X028500Y010056D01*
X028500Y009937D02*
X028708Y009937D01*
X028695Y009819D02*
X028500Y009819D01*
X028500Y009700D02*
X028695Y009700D01*
X028695Y009582D02*
X028500Y009582D01*
X028500Y009463D02*
X028724Y009463D01*
X028773Y009345D02*
X028500Y009345D01*
X028500Y009226D02*
X028823Y009226D01*
X028920Y009108D02*
X028500Y009108D01*
X028500Y008989D02*
X029039Y008989D01*
X029238Y008871D02*
X028500Y008871D01*
X028130Y008720D02*
X026130Y006720D01*
X025630Y006720D01*
X025101Y006501D02*
X024500Y006501D01*
X024500Y006619D02*
X025058Y006619D01*
X025058Y006738D02*
X024500Y006738D01*
X024500Y006856D02*
X025067Y006856D01*
X025116Y006975D02*
X024500Y006975D01*
X024500Y007093D02*
X025193Y007093D01*
X025321Y007212D02*
X024500Y007212D01*
X024500Y007330D02*
X025210Y007330D01*
X025123Y007449D02*
X024500Y007449D01*
X024500Y007567D02*
X025074Y007567D01*
X025058Y007686D02*
X024500Y007686D01*
X024500Y007804D02*
X025058Y007804D01*
X025094Y007923D02*
X024500Y007923D01*
X024500Y008041D02*
X025143Y008041D01*
X025260Y008160D02*
X024500Y008160D01*
X024500Y008278D02*
X025262Y008278D01*
X025144Y008397D02*
X024500Y008397D01*
X024500Y008515D02*
X025095Y008515D01*
X025058Y008634D02*
X024500Y008634D01*
X024500Y008752D02*
X025058Y008752D01*
X025073Y008871D02*
X024500Y008871D01*
X024500Y008989D02*
X025122Y008989D01*
X025208Y009108D02*
X024500Y009108D01*
X024500Y009226D02*
X025261Y009226D01*
X025143Y009345D02*
X024500Y009345D01*
X024500Y009463D02*
X025024Y009463D01*
X025020Y009582D02*
X024500Y009582D01*
X024500Y009700D02*
X025020Y009700D01*
X025020Y009819D02*
X024500Y009819D01*
X024500Y009937D02*
X025020Y009937D01*
X025103Y010056D02*
X024500Y010056D01*
X024607Y010174D02*
X025221Y010174D01*
X025195Y010293D02*
X024726Y010293D01*
X024630Y010720D02*
X024130Y010220D01*
X024130Y004720D01*
X024630Y004220D01*
X028630Y004220D01*
X029130Y003720D02*
X024130Y003720D01*
X023630Y004220D01*
X023630Y010720D01*
X024630Y011720D01*
X025630Y011720D01*
X025630Y010720D02*
X024630Y010720D01*
X023130Y011220D02*
X023130Y003720D01*
X023630Y003220D01*
X029630Y003220D01*
X031130Y004720D01*
X031630Y004720D01*
X031630Y003720D02*
X031130Y003720D01*
X030130Y002720D01*
X023130Y002720D01*
X022630Y003220D01*
X022630Y011720D01*
X024630Y013720D01*
X025630Y013720D01*
X025630Y014720D02*
X024630Y014720D01*
X024630Y012720D02*
X023130Y011220D01*
X021630Y012720D02*
X021630Y002220D01*
X022130Y001720D01*
X031630Y001720D01*
X032047Y001168D02*
X032470Y001168D01*
X032588Y001287D02*
X032263Y001287D01*
X032376Y001405D02*
X032700Y001405D01*
X032700Y001524D02*
X032426Y001524D01*
X032460Y001642D02*
X032700Y001642D01*
X032700Y001761D02*
X032460Y001761D01*
X032441Y001879D02*
X032700Y001879D01*
X032700Y001998D02*
X032392Y001998D01*
X032300Y002116D02*
X032700Y002116D01*
X031213Y001168D02*
X004047Y001168D01*
X004263Y001287D02*
X030997Y001287D01*
X029130Y003720D02*
X031130Y005720D01*
X031630Y005720D01*
X028130Y008720D02*
X028130Y010720D01*
X027130Y011720D01*
X026630Y011720D01*
X027024Y012189D02*
X027855Y012189D01*
X027737Y012307D02*
X027080Y012307D01*
X027252Y012070D02*
X033200Y012070D01*
X033200Y011952D02*
X027422Y011952D01*
X027540Y011833D02*
X033200Y011833D01*
X033200Y011715D02*
X027659Y011715D01*
X027777Y011596D02*
X033200Y011596D01*
X033200Y011478D02*
X027896Y011478D01*
X028014Y011359D02*
X033200Y011359D01*
X033200Y011241D02*
X028133Y011241D01*
X028251Y011122D02*
X033200Y011122D01*
X033200Y011004D02*
X028370Y011004D01*
X028462Y010885D02*
X033200Y010885D01*
X033200Y012189D02*
X032405Y012189D01*
X032523Y012307D02*
X033200Y012307D01*
X033200Y012426D02*
X032642Y012426D01*
X032700Y012544D02*
X033200Y012544D01*
X033200Y012663D02*
X032700Y012663D01*
X032700Y012781D02*
X033200Y012781D01*
X033200Y012900D02*
X032700Y012900D01*
X032638Y013018D02*
X033200Y013018D01*
X033200Y013137D02*
X032520Y013137D01*
X032500Y013255D02*
X033200Y013255D01*
X033200Y013374D02*
X032760Y013374D01*
X032925Y013492D02*
X033200Y013492D01*
X033200Y013611D02*
X033044Y013611D01*
X033162Y013729D02*
X033200Y013729D01*
X030630Y014720D02*
X029630Y013720D01*
X028130Y013720D01*
X028130Y012720D02*
X026630Y012720D01*
X025630Y012720D02*
X024630Y012720D01*
X026630Y010720D02*
X027130Y010720D01*
X027630Y010220D01*
X027630Y009220D01*
X026130Y007720D01*
X025630Y007720D01*
X025630Y008720D02*
X026130Y008720D01*
X026630Y009220D01*
X026630Y009720D01*
X025158Y006382D02*
X024500Y006382D01*
X024500Y006264D02*
X025277Y006264D01*
X021260Y006145D02*
X004271Y006145D01*
X004380Y006027D02*
X021260Y006027D01*
X021260Y005908D02*
X004429Y005908D01*
X004460Y005790D02*
X021260Y005790D01*
X021260Y005671D02*
X004460Y005671D01*
X004438Y005553D02*
X021260Y005553D01*
X021260Y005434D02*
X004389Y005434D01*
X004292Y005316D02*
X021260Y005316D01*
X021260Y005197D02*
X004219Y005197D01*
X004338Y005079D02*
X021260Y005079D01*
X021260Y004960D02*
X004408Y004960D01*
X004457Y004842D02*
X021260Y004842D01*
X021260Y004723D02*
X004460Y004723D01*
X004459Y004605D02*
X021260Y004605D01*
X021260Y004486D02*
X004410Y004486D01*
X004344Y004368D02*
X021260Y004368D01*
X021260Y004249D02*
X004225Y004249D01*
X004286Y004131D02*
X021260Y004131D01*
X021260Y004012D02*
X004386Y004012D01*
X004435Y003894D02*
X021260Y003894D01*
X021260Y003775D02*
X004460Y003775D01*
X004460Y003657D02*
X021260Y003657D01*
X021260Y003538D02*
X004432Y003538D01*
X004382Y003420D02*
X021260Y003420D01*
X021260Y003301D02*
X004277Y003301D01*
X004234Y003183D02*
X021260Y003183D01*
X021260Y003064D02*
X004352Y003064D01*
X004414Y002946D02*
X021260Y002946D01*
X021260Y002827D02*
X004460Y002827D01*
X004460Y002709D02*
X021260Y002709D01*
X021260Y002590D02*
X004453Y002590D01*
X004404Y002472D02*
X021260Y002472D01*
X021260Y002353D02*
X004329Y002353D01*
X004207Y002235D02*
X021260Y002235D01*
X021273Y002116D02*
X004300Y002116D01*
X004392Y001998D02*
X021329Y001998D01*
X021448Y001879D02*
X004441Y001879D01*
X004460Y001761D02*
X021566Y001761D01*
X021685Y001642D02*
X004460Y001642D01*
X004426Y001524D02*
X021803Y001524D01*
X021924Y001405D02*
X004376Y001405D01*
X003213Y001168D02*
X002790Y001168D01*
X002672Y001287D02*
X002997Y001287D01*
X002884Y001405D02*
X002560Y001405D01*
X002560Y001524D02*
X002834Y001524D01*
X002800Y001642D02*
X002560Y001642D01*
X002560Y001761D02*
X002800Y001761D01*
X002819Y001879D02*
X002560Y001879D01*
X002560Y001998D02*
X002868Y001998D01*
X002960Y002116D02*
X002560Y002116D01*
X002560Y002235D02*
X003053Y002235D01*
X002931Y002353D02*
X002560Y002353D01*
X002560Y002472D02*
X002856Y002472D01*
X002807Y002590D02*
X002560Y002590D01*
X002560Y002709D02*
X002800Y002709D01*
X002800Y002827D02*
X002560Y002827D01*
X002560Y002946D02*
X002846Y002946D01*
X002908Y003064D02*
X002560Y003064D01*
X002560Y003183D02*
X003026Y003183D01*
X002983Y003301D02*
X002560Y003301D01*
X002560Y003420D02*
X002878Y003420D01*
X002828Y003538D02*
X002560Y003538D01*
X002560Y003657D02*
X002800Y003657D01*
X002800Y003775D02*
X002560Y003775D01*
X002560Y003894D02*
X002825Y003894D01*
X002874Y004012D02*
X002560Y004012D01*
X002560Y004131D02*
X002974Y004131D01*
X003035Y004249D02*
X002560Y004249D01*
X002560Y004368D02*
X002916Y004368D01*
X002850Y004486D02*
X002560Y004486D01*
X002560Y004605D02*
X002801Y004605D01*
X002800Y004723D02*
X002560Y004723D01*
X002560Y004842D02*
X002803Y004842D01*
X002852Y004960D02*
X002560Y004960D01*
X002560Y005079D02*
X002922Y005079D01*
X003041Y005197D02*
X002560Y005197D01*
X002560Y005316D02*
X002968Y005316D01*
X002871Y005434D02*
X002560Y005434D01*
X002560Y005553D02*
X002822Y005553D01*
X002800Y005671D02*
X002560Y005671D01*
X002560Y005790D02*
X002800Y005790D01*
X002831Y005908D02*
X002560Y005908D01*
X002560Y006027D02*
X002880Y006027D01*
X002989Y006145D02*
X002560Y006145D01*
X002560Y006264D02*
X003020Y006264D01*
X002902Y006382D02*
X002560Y006382D01*
X002560Y006501D02*
X002844Y006501D01*
X002800Y006619D02*
X002560Y006619D01*
X002560Y006738D02*
X002800Y006738D01*
X002809Y006856D02*
X002560Y006856D01*
X002560Y006975D02*
X002858Y006975D01*
X002937Y007093D02*
X002560Y007093D01*
X002560Y007212D02*
X003067Y007212D01*
X003150Y007361D02*
X003209Y007331D01*
X003272Y007310D01*
X003337Y007300D01*
X003610Y007300D01*
X003610Y007700D01*
X003650Y007700D01*
X003650Y007740D01*
X003610Y007740D01*
X003610Y008140D01*
X003337Y008140D01*
X003272Y008130D01*
X003209Y008109D01*
X003150Y008079D01*
X003096Y008040D01*
X003050Y007994D01*
X003011Y007940D01*
X002981Y007881D01*
X002960Y007818D01*
X002950Y007753D01*
X002950Y007740D01*
X003610Y007740D01*
X003610Y007700D01*
X002950Y007700D01*
X002950Y007687D01*
X002960Y007622D01*
X002981Y007559D01*
X003011Y007500D01*
X003050Y007446D01*
X003096Y007400D01*
X003150Y007361D01*
X003211Y007330D02*
X002560Y007330D01*
X002560Y007449D02*
X003048Y007449D01*
X002978Y007567D02*
X002560Y007567D01*
X002560Y007686D02*
X002950Y007686D01*
X002958Y007804D02*
X002560Y007804D01*
X002560Y007923D02*
X003002Y007923D01*
X003097Y008041D02*
X002560Y008041D01*
X002678Y008160D02*
X003234Y008160D01*
X003006Y008278D02*
X002796Y008278D01*
X002172Y008871D02*
X001440Y008871D01*
X001440Y008989D02*
X002291Y008989D01*
X002442Y009108D02*
X001440Y009108D01*
X001440Y009226D02*
X003102Y009226D01*
X004158Y009226D02*
X004823Y009226D01*
X004837Y009190D02*
X005100Y008927D01*
X005444Y008785D01*
X005816Y008785D01*
X006160Y008927D01*
X006423Y009190D01*
X006565Y009534D01*
X006565Y009906D01*
X006423Y010250D01*
X006160Y010513D01*
X005816Y010655D01*
X005444Y010655D01*
X005100Y010513D01*
X004837Y010250D01*
X004695Y009906D01*
X004695Y009534D01*
X004837Y009190D01*
X004920Y009108D02*
X004309Y009108D01*
X004396Y008989D02*
X005039Y008989D01*
X005238Y008871D02*
X004445Y008871D01*
X004460Y008752D02*
X006760Y008752D01*
X006760Y008871D02*
X006022Y008871D01*
X006221Y008989D02*
X006760Y008989D01*
X006760Y009108D02*
X006340Y009108D01*
X006437Y009226D02*
X006760Y009226D01*
X006760Y009345D02*
X006487Y009345D01*
X006536Y009463D02*
X006760Y009463D01*
X006760Y009582D02*
X006565Y009582D01*
X006565Y009700D02*
X006760Y009700D01*
X006760Y009819D02*
X006565Y009819D01*
X006552Y009937D02*
X006760Y009937D01*
X006760Y010056D02*
X006503Y010056D01*
X006454Y010174D02*
X006760Y010174D01*
X006760Y010293D02*
X006380Y010293D01*
X006261Y010411D02*
X006760Y010411D01*
X006760Y010530D02*
X006119Y010530D01*
X005833Y010648D02*
X006760Y010648D01*
X006760Y010767D02*
X001440Y010767D01*
X001440Y010885D02*
X006798Y010885D01*
X006890Y011004D02*
X001440Y011004D01*
X001440Y011122D02*
X007009Y011122D01*
X006803Y011241D02*
X003457Y011241D01*
X003575Y011359D02*
X005535Y011359D01*
X005349Y011478D02*
X003694Y011478D01*
X003700Y011596D02*
X005231Y011596D01*
X005112Y011715D02*
X003700Y011715D01*
X003700Y011833D02*
X004994Y011833D01*
X004875Y011952D02*
X003700Y011952D01*
X003586Y012070D02*
X004757Y012070D01*
X004638Y012189D02*
X003468Y012189D01*
X003523Y012307D02*
X004520Y012307D01*
X004630Y012720D02*
X005630Y011720D01*
X007130Y011720D01*
X008130Y010720D02*
X007630Y010220D01*
X007630Y009220D01*
X008630Y008220D01*
X009130Y008720D02*
X010630Y008720D01*
X011630Y009720D01*
X014130Y009720D01*
X014660Y009937D02*
X020260Y009937D01*
X020260Y009819D02*
X014702Y009819D01*
X014702Y009700D02*
X020260Y009700D01*
X020260Y009582D02*
X014692Y009582D01*
X014643Y009463D02*
X020260Y009463D01*
X020231Y009345D02*
X014564Y009345D01*
X014433Y009226D02*
X020113Y009226D01*
X019994Y009108D02*
X011541Y009108D01*
X011659Y009226D02*
X013827Y009226D01*
X013696Y009345D02*
X011778Y009345D01*
X011711Y008278D02*
X011882Y008278D01*
X011763Y008160D02*
X011593Y008160D01*
X011645Y008041D02*
X011474Y008041D01*
X011560Y007923D02*
X011356Y007923D01*
X012378Y008278D02*
X021260Y008278D01*
X021260Y008160D02*
X012497Y008160D01*
X013607Y010174D02*
X013774Y010174D01*
X013726Y010293D02*
X015491Y010293D01*
X015699Y010174D02*
X014486Y010174D01*
X014604Y010056D02*
X020260Y010056D01*
X021000Y010056D02*
X021260Y010056D01*
X021260Y010174D02*
X021000Y010174D01*
X021000Y010293D02*
X021260Y010293D01*
X021260Y010411D02*
X021000Y010411D01*
X021000Y010530D02*
X021260Y010530D01*
X021260Y010648D02*
X021000Y010648D01*
X021000Y010767D02*
X021260Y010767D01*
X021260Y010885D02*
X021000Y010885D01*
X021000Y011004D02*
X021260Y011004D01*
X021260Y011122D02*
X021000Y011122D01*
X021000Y011241D02*
X021260Y011241D01*
X021260Y011359D02*
X021000Y011359D01*
X021000Y011478D02*
X021260Y011478D01*
X021260Y011596D02*
X021000Y011596D01*
X021000Y011715D02*
X021260Y011715D01*
X021260Y011833D02*
X021000Y011833D01*
X021000Y009937D02*
X021260Y009937D01*
X021260Y009819D02*
X021000Y009819D01*
X021000Y009700D02*
X021260Y009700D01*
X021260Y009582D02*
X021000Y009582D01*
X021000Y009463D02*
X021260Y009463D01*
X021260Y009345D02*
X021000Y009345D01*
X021000Y009226D02*
X021260Y009226D01*
X021260Y009108D02*
X020984Y009108D01*
X020922Y008989D02*
X021260Y008989D01*
X021260Y008871D02*
X020804Y008871D01*
X020685Y008752D02*
X021260Y008752D01*
X021260Y008634D02*
X020567Y008634D01*
X020448Y008515D02*
X021260Y008515D01*
X021260Y008397D02*
X020316Y008397D01*
X016720Y006975D02*
X009648Y006975D01*
X009576Y006856D02*
X016769Y006856D01*
X012130Y011720D02*
X012130Y012720D01*
X011630Y013720D02*
X012630Y013720D01*
X013630Y012720D01*
X016130Y012720D01*
X011630Y013720D02*
X010630Y012720D01*
X009630Y012720D01*
X008630Y010720D02*
X008130Y010720D01*
X008630Y009720D02*
X008630Y009220D01*
X009130Y008720D01*
X007878Y007449D02*
X004212Y007449D01*
X004210Y007446D02*
X004249Y007500D01*
X004279Y007559D01*
X004300Y007622D01*
X004310Y007687D01*
X004310Y007700D01*
X003650Y007700D01*
X003650Y007300D01*
X003923Y007300D01*
X003988Y007310D01*
X004051Y007331D01*
X004110Y007361D01*
X004164Y007400D01*
X004210Y007446D01*
X004282Y007567D02*
X007760Y007567D01*
X007641Y007686D02*
X004310Y007686D01*
X004310Y007740D02*
X004310Y007753D01*
X004300Y007818D01*
X004279Y007881D01*
X004249Y007940D01*
X004210Y007994D01*
X004164Y008040D01*
X004110Y008079D01*
X004051Y008109D01*
X003988Y008130D01*
X003923Y008140D01*
X003650Y008140D01*
X003650Y007740D01*
X004310Y007740D01*
X004302Y007804D02*
X007523Y007804D01*
X007404Y007923D02*
X004258Y007923D01*
X004163Y008041D02*
X007286Y008041D01*
X007167Y008160D02*
X004026Y008160D01*
X004254Y008278D02*
X007049Y008278D01*
X006930Y008397D02*
X004373Y008397D01*
X004422Y008515D02*
X006814Y008515D01*
X006765Y008634D02*
X004460Y008634D01*
X004773Y009345D02*
X001440Y009345D01*
X001440Y009463D02*
X004724Y009463D01*
X004695Y009582D02*
X001440Y009582D01*
X001440Y009700D02*
X004695Y009700D01*
X004695Y009819D02*
X001440Y009819D01*
X001440Y009937D02*
X004708Y009937D01*
X004757Y010056D02*
X001440Y010056D01*
X001440Y010174D02*
X004806Y010174D01*
X004880Y010293D02*
X001440Y010293D01*
X001440Y010411D02*
X004999Y010411D01*
X005141Y010530D02*
X001440Y010530D01*
X001440Y010648D02*
X005427Y010648D01*
X004630Y012720D02*
X003130Y012720D01*
X002054Y008752D02*
X001440Y008752D01*
X001440Y008634D02*
X001935Y008634D01*
X001817Y008515D02*
X001440Y008515D01*
X001440Y008397D02*
X001738Y008397D01*
X001700Y008278D02*
X001440Y008278D01*
X001440Y008160D02*
X001700Y008160D01*
X001700Y008041D02*
X001440Y008041D01*
X001440Y007923D02*
X001700Y007923D01*
X001700Y007804D02*
X001440Y007804D01*
X001440Y007686D02*
X001700Y007686D01*
X001700Y007567D02*
X001440Y007567D01*
X001440Y007449D02*
X001700Y007449D01*
X001700Y007330D02*
X001440Y007330D01*
X001440Y007212D02*
X001700Y007212D01*
X001700Y007093D02*
X001440Y007093D01*
X001440Y006975D02*
X001700Y006975D01*
X001700Y006856D02*
X001440Y006856D01*
X001440Y006738D02*
X001700Y006738D01*
X001700Y006619D02*
X001440Y006619D01*
X001440Y006501D02*
X001700Y006501D01*
X001700Y006382D02*
X001440Y006382D01*
X001440Y006264D02*
X001700Y006264D01*
X001700Y006145D02*
X001440Y006145D01*
X001440Y006027D02*
X001700Y006027D01*
X001700Y005908D02*
X001440Y005908D01*
X001440Y005790D02*
X001700Y005790D01*
X001700Y005671D02*
X001440Y005671D01*
X001440Y005553D02*
X001700Y005553D01*
X001700Y005434D02*
X001440Y005434D01*
X001440Y005316D02*
X001700Y005316D01*
X001700Y005197D02*
X001440Y005197D01*
X001440Y005079D02*
X001700Y005079D01*
X001700Y004960D02*
X001440Y004960D01*
X001440Y004842D02*
X001700Y004842D01*
X001700Y004723D02*
X001440Y004723D01*
X001440Y004605D02*
X001700Y004605D01*
X001700Y004486D02*
X001440Y004486D01*
X001440Y004368D02*
X001700Y004368D01*
X001700Y004249D02*
X001440Y004249D01*
X001440Y004131D02*
X001700Y004131D01*
X001700Y004012D02*
X001440Y004012D01*
X001440Y003894D02*
X001700Y003894D01*
X001700Y003775D02*
X001440Y003775D01*
X001440Y003657D02*
X001700Y003657D01*
X001700Y003538D02*
X001440Y003538D01*
X001440Y003420D02*
X001700Y003420D01*
X001700Y003301D02*
X001440Y003301D01*
X001440Y003183D02*
X001700Y003183D01*
X001700Y003064D02*
X001440Y003064D01*
X001440Y002946D02*
X001700Y002946D01*
X001700Y002827D02*
X001440Y002827D01*
X001440Y002709D02*
X001700Y002709D01*
X001700Y002590D02*
X001440Y002590D01*
X001440Y002472D02*
X001700Y002472D01*
X001700Y002353D02*
X001440Y002353D01*
X001440Y002235D02*
X001700Y002235D01*
X001700Y002116D02*
X001440Y002116D01*
X001440Y001998D02*
X001700Y001998D01*
X001700Y001879D02*
X001440Y001879D01*
X001440Y001761D02*
X001700Y001761D01*
X001700Y001642D02*
X001440Y001642D01*
X001440Y001524D02*
X001700Y001524D01*
X001700Y001405D02*
X001440Y001405D01*
X001440Y001287D02*
X001700Y001287D01*
X001700Y001168D02*
X001440Y001168D01*
X001440Y001050D02*
X001735Y001050D01*
X001811Y000931D02*
X001440Y000931D01*
X001440Y000813D02*
X001929Y000813D01*
X002048Y000694D02*
X001440Y000694D01*
X001440Y000576D02*
X002166Y000576D01*
X004460Y006738D02*
X008803Y006738D01*
X008542Y006856D02*
X004451Y006856D01*
X004402Y006975D02*
X008352Y006975D01*
X008234Y007093D02*
X004323Y007093D01*
X004193Y007212D02*
X008115Y007212D01*
X007997Y007330D02*
X004049Y007330D01*
X003650Y007330D02*
X003610Y007330D01*
X003610Y007449D02*
X003650Y007449D01*
X003650Y007567D02*
X003610Y007567D01*
X003610Y007686D02*
X003650Y007686D01*
X003650Y007804D02*
X003610Y007804D01*
X003610Y007923D02*
X003650Y007923D01*
X003650Y008041D02*
X003610Y008041D01*
X016342Y022972D02*
X018918Y022972D01*
X020185Y024513D02*
X023515Y024513D01*
X023681Y024394D02*
X020353Y024394D01*
X030487Y009345D02*
X032570Y009345D01*
X032452Y009226D02*
X032158Y009226D01*
D19*
X032554Y008720D02*
X033130Y008144D01*
X033130Y001220D01*
X032630Y000720D01*
X002630Y000720D01*
X002130Y001220D01*
X002130Y008220D01*
X002630Y008720D01*
X003630Y008720D01*
X003630Y007720D02*
X004630Y007720D01*
X007630Y004720D01*
X019630Y004720D01*
X021130Y006220D01*
X021130Y013220D01*
X023130Y015220D01*
X023130Y017719D01*
X023131Y017720D01*
X025630Y017720D01*
X025630Y018720D02*
X025630Y019220D01*
X026130Y019720D01*
X032630Y019720D01*
X033130Y020220D01*
X033130Y026720D01*
X032630Y027220D01*
X027708Y027220D01*
X027708Y023197D01*
X027755Y023150D01*
X029630Y020720D02*
X025130Y020720D01*
X023130Y018720D01*
X017630Y018720D01*
X017130Y018220D01*
X017130Y015720D01*
X019130Y013720D01*
X019130Y012720D01*
X019130Y011720D01*
X019130Y010720D01*
X023130Y017719D02*
X023130Y018720D01*
X024130Y018720D02*
X025630Y018720D01*
X026630Y018720D02*
X032630Y018720D01*
X033630Y017720D01*
X033630Y009796D01*
X032554Y008720D01*
X031630Y008720D01*
X032554Y008720D02*
X032630Y008720D01*
X029630Y020720D02*
X030630Y021720D01*
X030630Y023025D01*
X030505Y023150D01*
X027708Y027220D02*
X026761Y027220D01*
X026755Y027214D01*
X026749Y027220D01*
X004130Y027220D01*
X003630Y026720D01*
X003630Y023220D01*
X007630Y023220D02*
X007630Y024720D01*
X007130Y018720D02*
X008630Y018720D01*
D20*
X007130Y018720D03*
X007630Y024720D03*
X015130Y017720D03*
X018130Y017720D03*
X024130Y018720D03*
X014130Y009720D03*
X009130Y007220D03*
X025630Y006720D03*
X025630Y007720D03*
X025630Y008720D03*
M02*
