G75*
%MOIN*%
%OFA0B0*%
%FSLAX24Y24*%
%IPPOS*%
%LPD*%
%AMOC8*
5,1,8,0,0,1.08239X$1,22.5*
%
%ADD10R,0.0990X0.0990*%
%ADD11OC8,0.0520*%
%ADD12C,0.0520*%
%ADD13C,0.0520*%
%ADD14OC8,0.0600*%
%ADD15C,0.0560*%
%ADD16C,0.1310*%
%ADD17C,0.0600*%
%ADD18C,0.0240*%
%ADD19C,0.0525*%
%ADD20C,0.0120*%
D10*
X015661Y023720D03*
X017630Y025689D03*
X019599Y023720D03*
D11*
X012130Y024620D03*
X009630Y024620D03*
X007630Y020720D03*
X007130Y017720D03*
X007130Y015720D03*
X007130Y013720D03*
X007130Y012720D03*
X007130Y011720D03*
X003130Y011720D03*
X003130Y012720D03*
X003130Y013720D03*
X003130Y015720D03*
X003130Y017720D03*
X011630Y020720D03*
X012130Y016720D03*
X012130Y012720D03*
X012130Y011720D03*
X012130Y007720D03*
X028130Y012720D03*
X028130Y013720D03*
X028130Y014720D03*
X028130Y015720D03*
X028130Y016720D03*
X028130Y017720D03*
X032130Y017720D03*
X032130Y016720D03*
X032130Y015720D03*
X032130Y014720D03*
X032130Y013720D03*
X032130Y012720D03*
D12*
X012130Y023820D03*
X009630Y023820D03*
D13*
X013130Y020980D02*
X013130Y020460D01*
X014130Y020460D02*
X014130Y020980D01*
X015130Y020980D02*
X015130Y020460D01*
X016130Y020460D02*
X016130Y020980D01*
X017130Y020980D02*
X017130Y020460D01*
X018130Y020460D02*
X018130Y020980D01*
X019130Y020980D02*
X019130Y020460D01*
X020130Y020460D02*
X020130Y020980D01*
X021130Y020980D02*
X021130Y020460D01*
X022130Y020460D02*
X022130Y020980D01*
X019390Y013720D02*
X018870Y013720D01*
X018870Y012720D02*
X019390Y012720D01*
X019390Y011720D02*
X018870Y011720D01*
X018870Y010720D02*
X019390Y010720D01*
X016390Y010720D02*
X015870Y010720D01*
X015870Y011720D02*
X016390Y011720D01*
X016390Y012720D02*
X015870Y012720D01*
X015870Y013720D02*
X016390Y013720D01*
X003890Y008720D02*
X003370Y008720D01*
X003370Y007720D02*
X003890Y007720D01*
X003890Y006720D02*
X003370Y006720D01*
X003370Y005720D02*
X003890Y005720D01*
X003890Y004720D02*
X003370Y004720D01*
X003370Y003720D02*
X003890Y003720D01*
X003890Y002720D02*
X003370Y002720D01*
X003370Y001720D02*
X003890Y001720D01*
X031370Y001720D02*
X031890Y001720D01*
X031890Y002720D02*
X031370Y002720D01*
X031370Y003720D02*
X031890Y003720D01*
X031890Y004720D02*
X031370Y004720D01*
X031370Y005720D02*
X031890Y005720D01*
X031890Y006720D02*
X031370Y006720D01*
X031370Y007720D02*
X031890Y007720D01*
X031890Y008720D02*
X031370Y008720D01*
D14*
X026630Y009720D03*
X026630Y010720D03*
X026630Y011720D03*
X026630Y012720D03*
X025630Y012720D03*
X025630Y011720D03*
X025630Y010720D03*
X025630Y009720D03*
X025630Y013720D03*
X025630Y014720D03*
X025630Y015720D03*
X025630Y016720D03*
X025630Y017720D03*
X025630Y018720D03*
X026630Y018720D03*
X026630Y017720D03*
X026630Y016720D03*
X026630Y015720D03*
X026630Y014720D03*
X026630Y013720D03*
X009630Y013720D03*
X009630Y014720D03*
X009630Y015720D03*
X009630Y016720D03*
X009630Y017720D03*
X009630Y018720D03*
X008630Y018720D03*
X008630Y017720D03*
X008630Y016720D03*
X008630Y015720D03*
X008630Y014720D03*
X008630Y013720D03*
X008630Y012720D03*
X008630Y011720D03*
X008630Y010720D03*
X008630Y009720D03*
X009630Y009720D03*
X009630Y010720D03*
X009630Y011720D03*
X009630Y012720D03*
D15*
X027755Y023150D03*
X028735Y023150D03*
X029525Y023150D03*
X030505Y023150D03*
D16*
X031715Y024220D03*
X026545Y024220D03*
D17*
X007630Y023520D02*
X007630Y022920D01*
X006630Y022920D02*
X006630Y023520D01*
X005630Y023520D02*
X005630Y022920D01*
X004630Y022920D02*
X004630Y023520D01*
X003630Y023520D02*
X003630Y022920D01*
D18*
X001500Y027350D02*
X001500Y000590D01*
X033760Y000590D01*
X033760Y027350D01*
X001500Y027350D01*
X001500Y027171D02*
X033760Y027171D01*
X033760Y026932D02*
X001500Y026932D01*
X001500Y026694D02*
X033760Y026694D01*
X033760Y026455D02*
X001500Y026455D01*
X001500Y026217D02*
X015221Y026217D01*
X015273Y026269D02*
X015081Y026077D01*
X014977Y025825D01*
X014977Y025552D01*
X015081Y025301D01*
X015273Y025108D01*
X015525Y025004D01*
X015798Y025004D01*
X016049Y025108D01*
X016242Y025301D01*
X016346Y025552D01*
X016346Y025825D01*
X016242Y026077D01*
X016049Y026269D01*
X015798Y026373D01*
X015525Y026373D01*
X015273Y026269D01*
X015040Y025978D02*
X006279Y025978D01*
X006194Y026064D02*
X005828Y026215D01*
X005432Y026215D01*
X005066Y026064D01*
X004786Y025784D01*
X004635Y025418D01*
X004635Y025022D01*
X004786Y024656D01*
X005066Y024376D01*
X005432Y024225D01*
X005828Y024225D01*
X006194Y024376D01*
X006474Y024656D01*
X006625Y025022D01*
X006625Y025418D01*
X006474Y025784D01*
X006194Y026064D01*
X006492Y025740D02*
X014977Y025740D01*
X014998Y025501D02*
X006591Y025501D01*
X006625Y025263D02*
X015119Y025263D01*
X014934Y025024D02*
X015476Y025024D01*
X015847Y025024D02*
X016993Y025024D01*
X017000Y025017D02*
X017050Y024988D01*
X017106Y024974D01*
X017585Y024974D01*
X017585Y025643D01*
X017675Y025643D01*
X017675Y024974D01*
X018154Y024974D01*
X018210Y024988D01*
X018260Y025017D01*
X018301Y025058D01*
X018330Y025109D01*
X018345Y025165D01*
X018345Y025644D01*
X017675Y025644D01*
X017675Y025734D01*
X017585Y025734D01*
X017585Y026404D01*
X017106Y026404D01*
X017050Y026389D01*
X017000Y026360D01*
X016959Y026319D01*
X016930Y026268D01*
X016915Y026212D01*
X016915Y025734D01*
X017585Y025734D01*
X017585Y025644D01*
X016915Y025644D01*
X016915Y025165D01*
X016930Y025109D01*
X016959Y025058D01*
X017000Y025017D01*
X016915Y025263D02*
X016204Y025263D01*
X016325Y025501D02*
X016915Y025501D01*
X016915Y025740D02*
X016346Y025740D01*
X016283Y025978D02*
X016915Y025978D01*
X016916Y026217D02*
X016102Y026217D01*
X016630Y026720D02*
X011730Y026720D01*
X009709Y024699D01*
X009688Y024720D01*
X009530Y024720D01*
X009630Y024620D01*
X009709Y024699D01*
X009630Y024620D02*
X009630Y024620D01*
X009630Y025100D01*
X009829Y025100D01*
X010110Y024819D01*
X010110Y024620D01*
X009630Y024620D01*
X009630Y024620D01*
X009630Y024620D01*
X009150Y024620D01*
X009150Y024819D01*
X009431Y025100D01*
X009630Y025100D01*
X009630Y024620D01*
X010110Y024620D01*
X010110Y024421D01*
X010015Y024326D01*
X010091Y024250D01*
X011609Y024250D01*
X011500Y024359D01*
X011500Y024881D01*
X011869Y025250D01*
X012391Y025250D01*
X012491Y025150D01*
X014716Y025150D01*
X014874Y025085D01*
X014995Y024964D01*
X015373Y024585D01*
X016230Y024585D01*
X016366Y024529D01*
X016470Y024425D01*
X016526Y024289D01*
X016526Y023432D01*
X016808Y023150D01*
X017231Y023150D01*
X017049Y023332D01*
X016945Y023584D01*
X016945Y023856D01*
X017049Y024108D01*
X017242Y024301D01*
X017494Y024405D01*
X017766Y024405D01*
X018018Y024301D01*
X018211Y024108D01*
X018315Y023856D01*
X018315Y023584D01*
X018211Y023332D01*
X018029Y023150D01*
X018420Y023150D01*
X018734Y023463D01*
X018734Y024289D01*
X018790Y024425D01*
X018894Y024529D01*
X019030Y024585D01*
X020167Y024585D01*
X020303Y024529D01*
X020407Y024425D01*
X020464Y024289D01*
X020464Y023151D01*
X020407Y023015D01*
X020303Y022911D01*
X020167Y022855D01*
X019342Y022855D01*
X019197Y022710D01*
X020727Y022710D01*
X020908Y022635D01*
X021408Y022135D01*
X021545Y021998D01*
X021620Y021817D01*
X021620Y021381D01*
X021664Y021337D01*
X021713Y021219D01*
X021719Y021232D01*
X021764Y021293D01*
X021817Y021346D01*
X021878Y021391D01*
X021946Y021425D01*
X022018Y021448D01*
X022092Y021460D01*
X022130Y021460D01*
X022130Y020720D01*
X025130Y020720D01*
X026130Y019720D01*
X031630Y019720D01*
X033630Y017720D01*
X033630Y008720D01*
X032630Y007720D01*
X031630Y007720D01*
X032370Y007720D01*
X032370Y007758D01*
X032358Y007832D01*
X032335Y007904D01*
X032301Y007972D01*
X032256Y008033D01*
X032203Y008086D01*
X032142Y008131D01*
X032129Y008137D01*
X032247Y008186D01*
X032424Y008363D01*
X032520Y008595D01*
X032520Y008845D01*
X032424Y009077D01*
X032247Y009254D01*
X032015Y009350D01*
X031245Y009350D01*
X031013Y009254D01*
X030836Y009077D01*
X030740Y008845D01*
X030740Y008595D01*
X030836Y008363D01*
X031013Y008186D01*
X031131Y008137D01*
X031118Y008131D01*
X031057Y008086D01*
X031004Y008033D01*
X030959Y007972D01*
X030925Y007904D01*
X030902Y007832D01*
X030890Y007758D01*
X030890Y007720D01*
X031630Y007720D01*
X031630Y007720D01*
X031630Y007720D01*
X032370Y007720D01*
X032370Y007682D01*
X032358Y007608D01*
X032335Y007536D01*
X032301Y007468D01*
X032256Y007407D01*
X032203Y007354D01*
X032142Y007309D01*
X032129Y007303D01*
X032247Y007254D01*
X032424Y007077D01*
X032520Y006845D01*
X032520Y006595D01*
X032424Y006363D01*
X032281Y006220D01*
X032424Y006077D01*
X032520Y005845D01*
X032520Y005595D01*
X032424Y005363D01*
X032281Y005220D01*
X032424Y005077D01*
X032520Y004845D01*
X032520Y004595D01*
X032424Y004363D01*
X032281Y004220D01*
X032424Y004077D01*
X032520Y003845D01*
X032520Y003595D01*
X032424Y003363D01*
X032281Y003220D01*
X032424Y003077D01*
X032520Y002845D01*
X032520Y002595D01*
X032424Y002363D01*
X032281Y002220D01*
X032424Y002077D01*
X032520Y001845D01*
X032520Y001595D01*
X032424Y001363D01*
X032247Y001186D01*
X032015Y001090D01*
X031245Y001090D01*
X031013Y001186D01*
X030909Y001290D01*
X004351Y001290D01*
X004247Y001186D01*
X004015Y001090D01*
X003245Y001090D01*
X003013Y001186D01*
X002836Y001363D01*
X002740Y001595D01*
X002740Y001845D01*
X002836Y002077D01*
X002979Y002220D01*
X002836Y002363D01*
X002740Y002595D01*
X002740Y002845D01*
X002836Y003077D01*
X002979Y003220D01*
X002836Y003363D01*
X002740Y003595D01*
X002740Y003845D01*
X002836Y004077D01*
X002979Y004220D01*
X002836Y004363D01*
X002740Y004595D01*
X002740Y004845D01*
X002836Y005077D01*
X002979Y005220D01*
X002836Y005363D01*
X002740Y005595D01*
X002740Y005845D01*
X002836Y006077D01*
X002979Y006220D01*
X002836Y006363D01*
X002740Y006595D01*
X002740Y006845D01*
X002836Y007077D01*
X003013Y007254D01*
X003131Y007303D01*
X003118Y007309D01*
X003057Y007354D01*
X003004Y007407D01*
X002959Y007468D01*
X002925Y007536D01*
X002902Y007608D01*
X002890Y007682D01*
X002890Y007720D01*
X003630Y007720D01*
X004630Y007720D01*
X005130Y008220D01*
X005130Y008720D01*
X004130Y009720D01*
X002630Y009720D01*
X002130Y010220D01*
X002130Y018220D01*
X002630Y018720D01*
X002130Y019220D01*
X002130Y024720D01*
X004130Y026720D01*
X006630Y026720D01*
X007630Y025720D01*
X007630Y024720D01*
X009530Y024720D01*
X009630Y024786D02*
X009630Y024786D01*
X009630Y024620D02*
X009150Y024620D01*
X009150Y024421D01*
X009245Y024326D01*
X009096Y024177D01*
X009000Y023945D01*
X009000Y023695D01*
X009096Y023463D01*
X009273Y023286D01*
X009505Y023190D01*
X009755Y023190D01*
X009987Y023286D01*
X010091Y023390D01*
X011200Y023390D01*
X011200Y021181D01*
X011000Y020981D01*
X011000Y020459D01*
X011369Y020090D01*
X011891Y020090D01*
X012260Y020459D01*
X012260Y020981D01*
X012060Y021181D01*
X012060Y023142D01*
X012108Y023190D01*
X012255Y023190D01*
X012487Y023286D01*
X012664Y023463D01*
X012760Y023695D01*
X012760Y023945D01*
X012664Y024177D01*
X012621Y024220D01*
X012691Y024290D01*
X014452Y024290D01*
X014796Y023945D01*
X014796Y023151D01*
X014853Y023015D01*
X014957Y022911D01*
X015093Y022855D01*
X015887Y022855D01*
X016032Y022710D01*
X013533Y022710D01*
X013352Y022635D01*
X013215Y022498D01*
X013215Y022498D01*
X012715Y021998D01*
X012640Y021817D01*
X012640Y021381D01*
X012596Y021337D01*
X012500Y021105D01*
X012500Y020335D01*
X012596Y020103D01*
X012773Y019926D01*
X013005Y019830D01*
X013132Y019830D01*
X012886Y019585D01*
X012765Y019464D01*
X012700Y019306D01*
X012700Y017041D01*
X012391Y017350D01*
X011869Y017350D01*
X011500Y016981D01*
X011500Y016459D01*
X011869Y016090D01*
X012391Y016090D01*
X012700Y016399D01*
X012700Y013041D01*
X012391Y013350D01*
X011869Y013350D01*
X011500Y012981D01*
X011500Y012459D01*
X011739Y012220D01*
X011500Y011981D01*
X011500Y011459D01*
X011869Y011090D01*
X012391Y011090D01*
X012700Y011399D01*
X012700Y010398D01*
X009952Y007650D01*
X009594Y007650D01*
X009488Y007756D01*
X009256Y007852D01*
X009004Y007852D01*
X008772Y007756D01*
X008594Y007578D01*
X008498Y007346D01*
X008498Y007094D01*
X008592Y006866D01*
X008060Y007398D01*
X008060Y009342D01*
X008352Y009050D01*
X008908Y009050D01*
X009130Y009272D01*
X009352Y009050D01*
X009908Y009050D01*
X010300Y009442D01*
X010300Y009998D01*
X010078Y010220D01*
X010300Y010442D01*
X010300Y010998D01*
X010078Y011220D01*
X010300Y011442D01*
X010300Y011998D01*
X010078Y012220D01*
X010300Y012442D01*
X010300Y012998D01*
X010078Y013220D01*
X010300Y013442D01*
X010300Y013998D01*
X010078Y014220D01*
X010300Y014442D01*
X010300Y014998D01*
X010078Y015220D01*
X010300Y015442D01*
X010300Y015998D01*
X010078Y016220D01*
X010300Y016442D01*
X010300Y016998D01*
X010078Y017220D01*
X010300Y017442D01*
X010300Y017998D01*
X010078Y018220D01*
X010300Y018442D01*
X010300Y018998D01*
X009908Y019390D01*
X009352Y019390D01*
X009024Y019061D01*
X008845Y019240D01*
X008630Y019240D01*
X008630Y018720D01*
X008630Y018720D01*
X008630Y018720D01*
X008110Y018720D01*
X008110Y018935D01*
X008415Y019240D01*
X008630Y019240D01*
X008630Y018720D01*
X008110Y018720D01*
X008110Y018505D01*
X008289Y018326D01*
X007960Y017998D01*
X007960Y017442D01*
X008182Y017220D01*
X007960Y016998D01*
X007960Y016442D01*
X008182Y016220D01*
X007960Y015998D01*
X007960Y015442D01*
X008182Y015220D01*
X007960Y014998D01*
X007960Y014442D01*
X008182Y014220D01*
X007960Y013998D01*
X007960Y013442D01*
X008182Y013220D01*
X007960Y012998D01*
X007960Y012442D01*
X008182Y012220D01*
X007960Y011998D01*
X007960Y011442D01*
X008182Y011220D01*
X007960Y010998D01*
X007960Y010442D01*
X008182Y010220D01*
X007960Y009998D01*
X005995Y011964D01*
X005874Y012085D01*
X005716Y012150D01*
X003591Y012150D01*
X003521Y012220D01*
X003760Y012459D01*
X003760Y012981D01*
X003521Y013220D01*
X003760Y013459D01*
X003760Y013981D01*
X003391Y014350D01*
X002869Y014350D01*
X002500Y013981D01*
X002500Y013459D01*
X002739Y013220D01*
X002500Y012981D01*
X002500Y012459D01*
X002739Y012220D01*
X002500Y011981D01*
X002500Y011459D01*
X002869Y011090D01*
X003391Y011090D01*
X003591Y011290D01*
X005452Y011290D01*
X006168Y010574D01*
X005828Y010715D01*
X005432Y010715D01*
X005066Y010564D01*
X004786Y010284D01*
X004635Y009918D01*
X004635Y009522D01*
X004786Y009156D01*
X005066Y008876D01*
X005432Y008725D01*
X005828Y008725D01*
X006194Y008876D01*
X006474Y009156D01*
X006625Y009522D01*
X006625Y009918D01*
X006484Y010258D01*
X007200Y009542D01*
X007200Y007134D01*
X007265Y006976D01*
X008386Y005855D01*
X008544Y005790D01*
X010716Y005790D01*
X010874Y005855D01*
X010995Y005976D01*
X012108Y007090D01*
X012152Y007090D01*
X013765Y005476D01*
X013886Y005355D01*
X014044Y005290D01*
X026216Y005290D01*
X026374Y005355D01*
X028374Y007355D01*
X028495Y007476D01*
X028560Y007634D01*
X028560Y010542D01*
X030308Y012290D01*
X031669Y012290D01*
X031869Y012090D01*
X032391Y012090D01*
X032760Y012459D01*
X032760Y012981D01*
X032521Y013220D01*
X032760Y013459D01*
X032760Y013981D01*
X032521Y014220D01*
X032760Y014459D01*
X032760Y014981D01*
X032521Y015220D01*
X032760Y015459D01*
X032760Y015981D01*
X032521Y016220D01*
X032760Y016459D01*
X032760Y016981D01*
X032521Y017220D01*
X032760Y017459D01*
X032760Y017981D01*
X032391Y018350D01*
X031869Y018350D01*
X031500Y017981D01*
X031500Y017459D01*
X031739Y017220D01*
X031500Y016981D01*
X031500Y016459D01*
X031739Y016220D01*
X031500Y015981D01*
X031500Y015459D01*
X031739Y015220D01*
X031500Y014981D01*
X031500Y014459D01*
X031739Y014220D01*
X031500Y013981D01*
X031500Y013459D01*
X031739Y013220D01*
X031669Y013150D01*
X030044Y013150D01*
X029886Y013085D01*
X029765Y012964D01*
X027765Y010964D01*
X027700Y010806D01*
X027700Y007898D01*
X026168Y006366D01*
X026262Y006594D01*
X026262Y006846D01*
X026166Y007078D01*
X026024Y007220D01*
X026166Y007362D01*
X026262Y007594D01*
X026262Y007846D01*
X026166Y008078D01*
X026024Y008220D01*
X026166Y008362D01*
X026262Y008594D01*
X026262Y008846D01*
X026166Y009078D01*
X026051Y009193D01*
X026130Y009272D01*
X026352Y009050D01*
X026908Y009050D01*
X027300Y009442D01*
X027300Y009998D01*
X027078Y010220D01*
X027300Y010442D01*
X027300Y010998D01*
X027078Y011220D01*
X027300Y011442D01*
X027300Y011998D01*
X027078Y012220D01*
X027300Y012442D01*
X027300Y012998D01*
X027078Y013220D01*
X027300Y013442D01*
X027300Y013998D01*
X027078Y014220D01*
X027300Y014442D01*
X027300Y014998D01*
X027078Y015220D01*
X027300Y015442D01*
X027300Y015998D01*
X027078Y016220D01*
X027300Y016442D01*
X027300Y016998D01*
X027078Y017220D01*
X027300Y017442D01*
X027300Y017998D01*
X027078Y018220D01*
X027300Y018442D01*
X027300Y018998D01*
X026908Y019390D01*
X026352Y019390D01*
X026130Y019168D01*
X025908Y019390D01*
X025352Y019390D01*
X024960Y018998D01*
X024960Y018442D01*
X025289Y018114D01*
X025110Y017935D01*
X025110Y017720D01*
X025630Y017720D01*
X025630Y017720D01*
X025110Y017720D01*
X025110Y017505D01*
X025289Y017326D01*
X024960Y016998D01*
X024960Y016442D01*
X025182Y016220D01*
X024960Y015998D01*
X024960Y015442D01*
X025182Y015220D01*
X024960Y014998D01*
X024960Y014442D01*
X025182Y014220D01*
X024960Y013998D01*
X024960Y013442D01*
X025182Y013220D01*
X024960Y012998D01*
X024960Y012442D01*
X025182Y012220D01*
X024960Y011998D01*
X024960Y011442D01*
X025182Y011220D01*
X024960Y010998D01*
X024960Y010442D01*
X025182Y010220D01*
X024960Y009998D01*
X024960Y009442D01*
X025209Y009193D01*
X025166Y009150D01*
X024808Y009150D01*
X024560Y009398D01*
X024560Y015306D01*
X024495Y015464D01*
X024374Y015585D01*
X021728Y018230D01*
X023726Y018230D01*
X023772Y018184D01*
X024004Y018088D01*
X024256Y018088D01*
X024488Y018184D01*
X024666Y018362D01*
X024762Y018594D01*
X024762Y018846D01*
X024666Y019078D01*
X024488Y019256D01*
X024256Y019352D01*
X024004Y019352D01*
X023772Y019256D01*
X023726Y019210D01*
X021833Y019210D01*
X021620Y019423D01*
X021620Y020059D01*
X021664Y020103D01*
X021713Y020221D01*
X021719Y020208D01*
X021764Y020147D01*
X021817Y020094D01*
X021878Y020049D01*
X021946Y020015D01*
X022018Y019992D01*
X022092Y019980D01*
X022130Y019980D01*
X022168Y019980D01*
X022242Y019992D01*
X022314Y020015D01*
X022382Y020049D01*
X022443Y020094D01*
X022496Y020147D01*
X022541Y020208D01*
X022575Y020276D01*
X022598Y020348D01*
X022610Y020422D01*
X022610Y020720D01*
X022610Y021018D01*
X022598Y021092D01*
X022575Y021164D01*
X022541Y021232D01*
X022496Y021293D01*
X022443Y021346D01*
X022382Y021391D01*
X022314Y021425D01*
X022242Y021448D01*
X022168Y021460D01*
X022130Y021460D01*
X022130Y020720D01*
X022130Y025220D01*
X020630Y026720D01*
X018661Y026720D01*
X017630Y025689D01*
X017630Y025720D01*
X016630Y026720D01*
X017585Y026217D02*
X017675Y026217D01*
X017675Y026404D02*
X017675Y025734D01*
X018345Y025734D01*
X018345Y026212D01*
X018330Y026268D01*
X018301Y026319D01*
X018260Y026360D01*
X018210Y026389D01*
X018154Y026404D01*
X017675Y026404D01*
X017675Y025978D02*
X017585Y025978D01*
X017585Y025740D02*
X017675Y025740D01*
X017675Y025501D02*
X017585Y025501D01*
X017585Y025263D02*
X017675Y025263D01*
X017675Y025024D02*
X017585Y025024D01*
X018267Y025024D02*
X019413Y025024D01*
X019462Y025004D02*
X019735Y025004D01*
X019987Y025108D01*
X020179Y025301D01*
X020283Y025552D01*
X020283Y025825D01*
X020179Y026077D01*
X019987Y026269D01*
X019735Y026373D01*
X019462Y026373D01*
X019211Y026269D01*
X019018Y026077D01*
X018914Y025825D01*
X018914Y025552D01*
X019018Y025301D01*
X019211Y025108D01*
X019462Y025004D01*
X019784Y025024D02*
X023135Y025024D01*
X023135Y025022D02*
X023286Y024656D01*
X023566Y024376D01*
X023932Y024225D01*
X024328Y024225D01*
X024694Y024376D01*
X024974Y024656D01*
X025125Y025022D01*
X025125Y025418D01*
X024974Y025784D01*
X024694Y026064D01*
X024328Y026215D01*
X023932Y026215D01*
X023566Y026064D01*
X023286Y025784D01*
X023135Y025418D01*
X023135Y025022D01*
X023135Y025263D02*
X020141Y025263D01*
X020262Y025501D02*
X023169Y025501D01*
X023268Y025740D02*
X020283Y025740D01*
X020220Y025978D02*
X023481Y025978D01*
X023233Y024786D02*
X015173Y024786D01*
X014672Y024070D02*
X012708Y024070D01*
X012760Y023832D02*
X014796Y023832D01*
X014796Y023593D02*
X012718Y023593D01*
X012555Y023355D02*
X014796Y023355D01*
X014811Y023116D02*
X012060Y023116D01*
X012060Y022878D02*
X015039Y022878D01*
X013630Y022220D02*
X020630Y022220D01*
X021130Y021720D01*
X021130Y020720D01*
X021130Y019220D01*
X021630Y018720D01*
X024130Y018720D01*
X024651Y018346D02*
X025056Y018346D01*
X024960Y018585D02*
X024758Y018585D01*
X024762Y018823D02*
X024960Y018823D01*
X025024Y019062D02*
X024673Y019062D01*
X024383Y019300D02*
X025262Y019300D01*
X025998Y019300D02*
X026262Y019300D01*
X026998Y019300D02*
X033760Y019300D01*
X033760Y019062D02*
X027236Y019062D01*
X027300Y018823D02*
X033760Y018823D01*
X033760Y018585D02*
X027300Y018585D01*
X027204Y018346D02*
X027865Y018346D01*
X027869Y018350D02*
X027500Y017981D01*
X027500Y017459D01*
X027739Y017220D01*
X027500Y016981D01*
X027500Y016459D01*
X027739Y016220D01*
X027500Y015981D01*
X027500Y015459D01*
X027739Y015220D01*
X027500Y014981D01*
X027500Y014459D01*
X027739Y014220D01*
X027500Y013981D01*
X027500Y013459D01*
X027739Y013220D01*
X027500Y012981D01*
X027500Y012459D01*
X027869Y012090D01*
X028391Y012090D01*
X028760Y012459D01*
X028760Y012981D01*
X028521Y013220D01*
X028760Y013459D01*
X028760Y013981D01*
X028521Y014220D01*
X028760Y014459D01*
X028760Y014981D01*
X028521Y015220D01*
X028760Y015459D01*
X028760Y015981D01*
X028521Y016220D01*
X028760Y016459D01*
X028760Y016981D01*
X028521Y017220D01*
X028760Y017459D01*
X028760Y017981D01*
X028391Y018350D01*
X027869Y018350D01*
X027627Y018108D02*
X027190Y018108D01*
X027300Y017869D02*
X027500Y017869D01*
X027500Y017631D02*
X027300Y017631D01*
X027250Y017392D02*
X027567Y017392D01*
X027673Y017154D02*
X027144Y017154D01*
X027300Y016915D02*
X027500Y016915D01*
X027500Y016677D02*
X027300Y016677D01*
X027296Y016438D02*
X027521Y016438D01*
X027719Y016200D02*
X027098Y016200D01*
X027300Y015961D02*
X027500Y015961D01*
X027500Y015723D02*
X027300Y015723D01*
X027300Y015484D02*
X027500Y015484D01*
X027714Y015246D02*
X027103Y015246D01*
X027291Y015007D02*
X027526Y015007D01*
X027500Y014769D02*
X027300Y014769D01*
X027300Y014530D02*
X027500Y014530D01*
X027668Y014292D02*
X027149Y014292D01*
X027245Y014053D02*
X027572Y014053D01*
X027500Y013815D02*
X027300Y013815D01*
X027300Y013576D02*
X027500Y013576D01*
X027622Y013338D02*
X027195Y013338D01*
X027199Y013099D02*
X027618Y013099D01*
X027500Y012861D02*
X027300Y012861D01*
X027300Y012622D02*
X027500Y012622D01*
X027576Y012384D02*
X027241Y012384D01*
X027153Y012145D02*
X027814Y012145D01*
X027300Y011907D02*
X028708Y011907D01*
X028947Y012145D02*
X028446Y012145D01*
X028684Y012384D02*
X029185Y012384D01*
X029424Y012622D02*
X028760Y012622D01*
X028760Y012861D02*
X029662Y012861D01*
X029921Y013099D02*
X028642Y013099D01*
X028638Y013338D02*
X031622Y013338D01*
X031500Y013576D02*
X028760Y013576D01*
X028760Y013815D02*
X031500Y013815D01*
X031572Y014053D02*
X028688Y014053D01*
X028592Y014292D02*
X031668Y014292D01*
X031500Y014530D02*
X028760Y014530D01*
X028760Y014769D02*
X031500Y014769D01*
X031526Y015007D02*
X028734Y015007D01*
X028546Y015246D02*
X031714Y015246D01*
X031500Y015484D02*
X028760Y015484D01*
X028760Y015723D02*
X031500Y015723D01*
X031500Y015961D02*
X028760Y015961D01*
X028541Y016200D02*
X031719Y016200D01*
X031521Y016438D02*
X028739Y016438D01*
X028760Y016677D02*
X031500Y016677D01*
X031500Y016915D02*
X028760Y016915D01*
X028587Y017154D02*
X031673Y017154D01*
X031567Y017392D02*
X028693Y017392D01*
X028760Y017631D02*
X031500Y017631D01*
X031500Y017869D02*
X028760Y017869D01*
X028633Y018108D02*
X031627Y018108D01*
X031865Y018346D02*
X028395Y018346D01*
X025282Y018108D02*
X024304Y018108D01*
X023956Y018108D02*
X021851Y018108D01*
X022089Y017869D02*
X025110Y017869D01*
X025110Y017631D02*
X022328Y017631D01*
X022566Y017392D02*
X025223Y017392D01*
X025116Y017154D02*
X022805Y017154D01*
X023043Y016915D02*
X024960Y016915D01*
X024960Y016677D02*
X023282Y016677D01*
X023520Y016438D02*
X024964Y016438D01*
X025162Y016200D02*
X023759Y016200D01*
X023997Y015961D02*
X024960Y015961D01*
X024960Y015723D02*
X024236Y015723D01*
X024474Y015484D02*
X024960Y015484D01*
X025157Y015246D02*
X024560Y015246D01*
X024560Y015007D02*
X024969Y015007D01*
X024960Y014769D02*
X024560Y014769D01*
X024560Y014530D02*
X024960Y014530D01*
X025111Y014292D02*
X024560Y014292D01*
X024560Y014053D02*
X025015Y014053D01*
X024960Y013815D02*
X024560Y013815D01*
X024560Y013576D02*
X024960Y013576D01*
X025065Y013338D02*
X024560Y013338D01*
X024560Y013099D02*
X025061Y013099D01*
X024960Y012861D02*
X024560Y012861D01*
X024560Y012622D02*
X024960Y012622D01*
X025019Y012384D02*
X024560Y012384D01*
X024560Y012145D02*
X025107Y012145D01*
X024960Y011907D02*
X024560Y011907D01*
X024560Y011668D02*
X024960Y011668D01*
X024973Y011430D02*
X024560Y011430D01*
X024560Y011191D02*
X025153Y011191D01*
X024960Y010953D02*
X024560Y010953D01*
X024560Y010714D02*
X024960Y010714D01*
X024960Y010476D02*
X024560Y010476D01*
X024560Y010237D02*
X025165Y010237D01*
X024961Y009999D02*
X024560Y009999D01*
X024560Y009760D02*
X024960Y009760D01*
X024960Y009522D02*
X024560Y009522D01*
X024675Y009283D02*
X025119Y009283D01*
X026180Y009045D02*
X027700Y009045D01*
X027700Y009283D02*
X027141Y009283D01*
X027300Y009522D02*
X027700Y009522D01*
X027700Y009760D02*
X027300Y009760D01*
X027299Y009999D02*
X027700Y009999D01*
X027700Y010237D02*
X027095Y010237D01*
X027300Y010476D02*
X027700Y010476D01*
X027700Y010714D02*
X027300Y010714D01*
X027300Y010953D02*
X027761Y010953D01*
X027993Y011191D02*
X027107Y011191D01*
X027287Y011430D02*
X028231Y011430D01*
X028470Y011668D02*
X027300Y011668D01*
X028732Y010714D02*
X029430Y010714D01*
X029432Y010715D02*
X029066Y010564D01*
X028786Y010284D01*
X028635Y009918D01*
X028635Y009522D01*
X028786Y009156D01*
X029066Y008876D01*
X029432Y008725D01*
X029828Y008725D01*
X030194Y008876D01*
X030474Y009156D01*
X030625Y009522D01*
X030625Y009918D01*
X030474Y010284D01*
X030194Y010564D01*
X029828Y010715D01*
X029432Y010715D01*
X029830Y010714D02*
X033760Y010714D01*
X033760Y010476D02*
X030282Y010476D01*
X030493Y010237D02*
X033760Y010237D01*
X033760Y009999D02*
X030592Y009999D01*
X030625Y009760D02*
X033760Y009760D01*
X033760Y009522D02*
X030625Y009522D01*
X030526Y009283D02*
X031083Y009283D01*
X030823Y009045D02*
X030362Y009045D01*
X030023Y008806D02*
X030740Y008806D01*
X030751Y008568D02*
X028560Y008568D01*
X028560Y008806D02*
X029237Y008806D01*
X028898Y009045D02*
X028560Y009045D01*
X028560Y009283D02*
X028734Y009283D01*
X028635Y009522D02*
X028560Y009522D01*
X028560Y009760D02*
X028635Y009760D01*
X028668Y009999D02*
X028560Y009999D01*
X028560Y010237D02*
X028767Y010237D01*
X028560Y010476D02*
X028978Y010476D01*
X028971Y010953D02*
X033760Y010953D01*
X033760Y011191D02*
X029209Y011191D01*
X029448Y011430D02*
X033760Y011430D01*
X033760Y011668D02*
X029686Y011668D01*
X029925Y011907D02*
X033760Y011907D01*
X033760Y012145D02*
X032446Y012145D01*
X032684Y012384D02*
X033760Y012384D01*
X033760Y012622D02*
X032760Y012622D01*
X032760Y012861D02*
X033760Y012861D01*
X033760Y013099D02*
X032642Y013099D01*
X032638Y013338D02*
X033760Y013338D01*
X033760Y013576D02*
X032760Y013576D01*
X032760Y013815D02*
X033760Y013815D01*
X033760Y014053D02*
X032688Y014053D01*
X032592Y014292D02*
X033760Y014292D01*
X033760Y014530D02*
X032760Y014530D01*
X032760Y014769D02*
X033760Y014769D01*
X033760Y015007D02*
X032734Y015007D01*
X032546Y015246D02*
X033760Y015246D01*
X033760Y015484D02*
X032760Y015484D01*
X032760Y015723D02*
X033760Y015723D01*
X033760Y015961D02*
X032760Y015961D01*
X032541Y016200D02*
X033760Y016200D01*
X033760Y016438D02*
X032739Y016438D01*
X032760Y016677D02*
X033760Y016677D01*
X033760Y016915D02*
X032760Y016915D01*
X032587Y017154D02*
X033760Y017154D01*
X033760Y017392D02*
X032693Y017392D01*
X032760Y017631D02*
X033760Y017631D01*
X033760Y017869D02*
X032760Y017869D01*
X032633Y018108D02*
X033760Y018108D01*
X033760Y018346D02*
X032395Y018346D01*
X033760Y019539D02*
X021620Y019539D01*
X021620Y019777D02*
X033760Y019777D01*
X033760Y020016D02*
X022315Y020016D01*
X022130Y020016D02*
X022130Y020016D01*
X022130Y019980D02*
X022130Y020720D01*
X022130Y020720D01*
X022610Y020720D01*
X022130Y020720D01*
X022130Y020720D01*
X022130Y020720D01*
X022130Y019980D01*
X021945Y020016D02*
X021620Y020016D01*
X022130Y020254D02*
X022130Y020254D01*
X022130Y020493D02*
X022130Y020493D01*
X022130Y020731D02*
X022130Y020731D01*
X022130Y020970D02*
X022130Y020970D01*
X022130Y021208D02*
X022130Y021208D01*
X022130Y021447D02*
X022130Y021447D01*
X022012Y021447D02*
X021620Y021447D01*
X021620Y021685D02*
X033760Y021685D01*
X033760Y021447D02*
X022248Y021447D01*
X022553Y021208D02*
X033760Y021208D01*
X033760Y020970D02*
X022610Y020970D01*
X022610Y020731D02*
X033760Y020731D01*
X033760Y020493D02*
X022610Y020493D01*
X022564Y020254D02*
X033760Y020254D01*
X033760Y021924D02*
X021576Y021924D01*
X021381Y022162D02*
X033760Y022162D01*
X033760Y022401D02*
X021142Y022401D01*
X020899Y022639D02*
X027347Y022639D01*
X027387Y022599D02*
X027204Y022782D01*
X027105Y023021D01*
X027105Y023279D01*
X027149Y023385D01*
X026941Y023265D01*
X026680Y023195D01*
X026410Y023195D01*
X026149Y023265D01*
X025916Y023400D01*
X025725Y023591D01*
X025590Y023824D01*
X025520Y024085D01*
X025520Y024355D01*
X025590Y024616D01*
X025725Y024849D01*
X025916Y025040D01*
X026149Y025175D01*
X026410Y025245D01*
X026680Y025245D01*
X026941Y025175D01*
X027174Y025040D01*
X027365Y024849D01*
X027500Y024616D01*
X027570Y024355D01*
X027570Y024085D01*
X027500Y023824D01*
X027442Y023724D01*
X027626Y023800D01*
X027884Y023800D01*
X028123Y023701D01*
X028245Y023579D01*
X028367Y023701D01*
X028606Y023800D01*
X028864Y023800D01*
X029103Y023701D01*
X029130Y023674D01*
X029157Y023701D01*
X029396Y023800D01*
X029654Y023800D01*
X029893Y023701D01*
X030076Y023518D01*
X030105Y023449D01*
X030124Y023476D01*
X030179Y023531D01*
X030243Y023578D01*
X030313Y023613D01*
X030388Y023638D01*
X030466Y023650D01*
X030505Y023650D01*
X030544Y023650D01*
X030622Y023638D01*
X030697Y023613D01*
X030767Y023578D01*
X030831Y023531D01*
X030886Y023476D01*
X030933Y023412D01*
X030968Y023342D01*
X030993Y023267D01*
X031005Y023189D01*
X031005Y023150D01*
X030505Y023150D01*
X030505Y023150D01*
X030505Y023150D01*
X030505Y023650D01*
X030505Y023150D01*
X031005Y023150D01*
X031005Y023111D01*
X030993Y023033D01*
X030968Y022958D01*
X030933Y022888D01*
X030886Y022824D01*
X030831Y022769D01*
X030767Y022722D01*
X030697Y022687D01*
X030622Y022662D01*
X030544Y022650D01*
X030505Y022650D01*
X030505Y023150D01*
X030505Y023150D01*
X030505Y022650D01*
X030466Y022650D01*
X030388Y022662D01*
X030313Y022687D01*
X030243Y022722D01*
X030179Y022769D01*
X030124Y022824D01*
X030105Y022851D01*
X030076Y022782D01*
X029893Y022599D01*
X029654Y022500D01*
X029396Y022500D01*
X029157Y022599D01*
X029130Y022626D01*
X029103Y022599D01*
X028864Y022500D01*
X028606Y022500D01*
X028367Y022599D01*
X028245Y022721D01*
X028123Y022599D01*
X027884Y022500D01*
X027626Y022500D01*
X027387Y022599D01*
X027164Y022878D02*
X020221Y022878D01*
X020449Y023116D02*
X027105Y023116D01*
X027096Y023355D02*
X027136Y023355D01*
X027502Y023832D02*
X030758Y023832D01*
X030760Y023824D02*
X030895Y023591D01*
X031086Y023400D01*
X031319Y023265D01*
X031580Y023195D01*
X031850Y023195D01*
X032111Y023265D01*
X032344Y023400D01*
X032535Y023591D01*
X032670Y023824D01*
X032740Y024085D01*
X032740Y024355D01*
X032670Y024616D01*
X032535Y024849D01*
X032344Y025040D01*
X032111Y025175D01*
X031850Y025245D01*
X031580Y025245D01*
X031319Y025175D01*
X031086Y025040D01*
X030895Y024849D01*
X030760Y024616D01*
X030690Y024355D01*
X030690Y024085D01*
X030760Y023824D01*
X030737Y023593D02*
X030893Y023593D01*
X030962Y023355D02*
X031164Y023355D01*
X031005Y023116D02*
X033760Y023116D01*
X033760Y022878D02*
X030925Y022878D01*
X030505Y022878D02*
X030505Y022878D01*
X030505Y023116D02*
X030505Y023116D01*
X030505Y023355D02*
X030505Y023355D01*
X030505Y023593D02*
X030505Y023593D01*
X030273Y023593D02*
X030001Y023593D01*
X030694Y024070D02*
X027566Y024070D01*
X027570Y024309D02*
X030690Y024309D01*
X030741Y024547D02*
X027519Y024547D01*
X027402Y024786D02*
X030858Y024786D01*
X031069Y025024D02*
X027191Y025024D01*
X025899Y025024D02*
X025125Y025024D01*
X025125Y025263D02*
X033760Y025263D01*
X033760Y025501D02*
X025091Y025501D01*
X024992Y025740D02*
X033760Y025740D01*
X033760Y025978D02*
X024779Y025978D01*
X025027Y024786D02*
X025688Y024786D01*
X025571Y024547D02*
X024864Y024547D01*
X024530Y024309D02*
X025520Y024309D01*
X025524Y024070D02*
X020464Y024070D01*
X020464Y023832D02*
X025588Y023832D01*
X025723Y023593D02*
X020464Y023593D01*
X020464Y023355D02*
X025994Y023355D01*
X028163Y022639D02*
X028327Y022639D01*
X028259Y023593D02*
X028231Y023593D01*
X029933Y022639D02*
X033760Y022639D01*
X033760Y023355D02*
X032266Y023355D01*
X032537Y023593D02*
X033760Y023593D01*
X033760Y023832D02*
X032672Y023832D01*
X032736Y024070D02*
X033760Y024070D01*
X033760Y024309D02*
X032740Y024309D01*
X032689Y024547D02*
X033760Y024547D01*
X033760Y024786D02*
X032572Y024786D01*
X032361Y025024D02*
X033760Y025024D01*
X033760Y026217D02*
X020039Y026217D01*
X019158Y026217D02*
X018344Y026217D01*
X018345Y025978D02*
X018977Y025978D01*
X018914Y025740D02*
X018345Y025740D01*
X018345Y025501D02*
X018935Y025501D01*
X019056Y025263D02*
X018345Y025263D01*
X018938Y024547D02*
X016322Y024547D01*
X016518Y024309D02*
X017261Y024309D01*
X017034Y024070D02*
X016526Y024070D01*
X016526Y023832D02*
X016945Y023832D01*
X016945Y023593D02*
X016526Y023593D01*
X016604Y023355D02*
X017040Y023355D01*
X018220Y023355D02*
X018625Y023355D01*
X018734Y023593D02*
X018315Y023593D01*
X018315Y023832D02*
X018734Y023832D01*
X018734Y024070D02*
X018226Y024070D01*
X017999Y024309D02*
X018742Y024309D01*
X020259Y024547D02*
X023396Y024547D01*
X023730Y024309D02*
X020455Y024309D01*
X021743Y019300D02*
X023877Y019300D01*
X021065Y016677D02*
X019195Y016677D01*
X019374Y016855D02*
X019495Y016976D01*
X019560Y017134D01*
X019560Y018182D01*
X023200Y014542D01*
X023200Y008634D01*
X023265Y008476D01*
X023386Y008355D01*
X023386Y008355D01*
X024265Y007476D01*
X024386Y007355D01*
X024544Y007290D01*
X025166Y007290D01*
X025236Y007220D01*
X025166Y007150D01*
X020808Y007150D01*
X018060Y009898D01*
X018060Y013806D01*
X017995Y013964D01*
X017874Y014085D01*
X014776Y017182D01*
X015004Y017088D01*
X015256Y017088D01*
X015488Y017184D01*
X015594Y017290D01*
X016452Y017290D01*
X017265Y016476D01*
X017386Y016355D01*
X017544Y016290D01*
X018716Y016290D01*
X018874Y016355D01*
X019374Y016855D01*
X019433Y016915D02*
X020827Y016915D01*
X020588Y017154D02*
X019560Y017154D01*
X019560Y017392D02*
X020350Y017392D01*
X020111Y017631D02*
X019560Y017631D01*
X019560Y017869D02*
X019873Y017869D01*
X019634Y018108D02*
X019560Y018108D01*
X018956Y016438D02*
X021304Y016438D01*
X021542Y016200D02*
X015759Y016200D01*
X015520Y016438D02*
X017304Y016438D01*
X017265Y016476D02*
X017265Y016476D01*
X017065Y016677D02*
X015282Y016677D01*
X015043Y016915D02*
X016827Y016915D01*
X016588Y017154D02*
X015415Y017154D01*
X014845Y017154D02*
X014805Y017154D01*
X015997Y015961D02*
X021781Y015961D01*
X022019Y015723D02*
X016236Y015723D01*
X016474Y015484D02*
X022258Y015484D01*
X022496Y015246D02*
X016713Y015246D01*
X016951Y015007D02*
X022735Y015007D01*
X022973Y014769D02*
X017190Y014769D01*
X017428Y014530D02*
X023200Y014530D01*
X023200Y014292D02*
X017667Y014292D01*
X017905Y014053D02*
X018524Y014053D01*
X018504Y014033D02*
X018459Y013972D01*
X018425Y013904D01*
X018402Y013832D01*
X018390Y013758D01*
X018390Y013720D01*
X019130Y013720D01*
X019130Y013720D01*
X019130Y014200D01*
X019428Y014200D01*
X019502Y014188D01*
X019574Y014165D01*
X019642Y014131D01*
X019703Y014086D01*
X019756Y014033D01*
X019801Y013972D01*
X019835Y013904D01*
X019858Y013832D01*
X019870Y013758D01*
X019870Y013720D01*
X019130Y013720D01*
X019130Y013720D01*
X019130Y013240D01*
X019428Y013240D01*
X019502Y013252D01*
X019574Y013275D01*
X019642Y013309D01*
X019703Y013354D01*
X019756Y013407D01*
X019801Y013468D01*
X019835Y013536D01*
X019858Y013608D01*
X019870Y013682D01*
X019870Y013720D01*
X019130Y013720D01*
X019130Y013720D01*
X019130Y013720D01*
X019130Y014200D01*
X018832Y014200D01*
X018758Y014188D01*
X018686Y014165D01*
X018618Y014131D01*
X018557Y014086D01*
X018504Y014033D01*
X018399Y013815D02*
X018056Y013815D01*
X018060Y013576D02*
X018412Y013576D01*
X018402Y013608D02*
X018425Y013536D01*
X018459Y013468D01*
X018504Y013407D01*
X018557Y013354D01*
X018618Y013309D01*
X018686Y013275D01*
X018758Y013252D01*
X018832Y013240D01*
X019130Y013240D01*
X019130Y013720D01*
X018390Y013720D01*
X018390Y013682D01*
X018402Y013608D01*
X018580Y013338D02*
X018060Y013338D01*
X018060Y013099D02*
X018575Y013099D01*
X018557Y013086D02*
X018504Y013033D01*
X018459Y012972D01*
X018425Y012904D01*
X018402Y012832D01*
X018390Y012758D01*
X018390Y012720D01*
X019130Y012720D01*
X019130Y012720D01*
X019130Y013200D01*
X019428Y013200D01*
X019502Y013188D01*
X019574Y013165D01*
X019642Y013131D01*
X019703Y013086D01*
X019756Y013033D01*
X019801Y012972D01*
X019835Y012904D01*
X019858Y012832D01*
X019870Y012758D01*
X019870Y012720D01*
X019130Y012720D01*
X019130Y012720D01*
X019130Y012240D01*
X019428Y012240D01*
X019502Y012252D01*
X019574Y012275D01*
X019642Y012309D01*
X019703Y012354D01*
X019756Y012407D01*
X019801Y012468D01*
X019835Y012536D01*
X019858Y012608D01*
X019870Y012682D01*
X019870Y012720D01*
X019130Y012720D01*
X019130Y012720D01*
X019130Y012720D01*
X019130Y013200D01*
X018832Y013200D01*
X018758Y013188D01*
X018686Y013165D01*
X018618Y013131D01*
X018557Y013086D01*
X018411Y012861D02*
X018060Y012861D01*
X018060Y012622D02*
X018400Y012622D01*
X018402Y012608D02*
X018425Y012536D01*
X018459Y012468D01*
X018504Y012407D01*
X018557Y012354D01*
X018618Y012309D01*
X018686Y012275D01*
X018758Y012252D01*
X018832Y012240D01*
X019130Y012240D01*
X019130Y012720D01*
X018390Y012720D01*
X018390Y012682D01*
X018402Y012608D01*
X018528Y012384D02*
X018060Y012384D01*
X018060Y012145D02*
X018647Y012145D01*
X018618Y012131D02*
X018557Y012086D01*
X018504Y012033D01*
X018459Y011972D01*
X018425Y011904D01*
X018402Y011832D01*
X018390Y011758D01*
X018390Y011720D01*
X019130Y011720D01*
X019130Y011720D01*
X019130Y012200D01*
X019428Y012200D01*
X019502Y012188D01*
X019574Y012165D01*
X019642Y012131D01*
X019703Y012086D01*
X019756Y012033D01*
X019801Y011972D01*
X019835Y011904D01*
X019858Y011832D01*
X019870Y011758D01*
X019870Y011720D01*
X019130Y011720D01*
X019130Y011720D01*
X019130Y011240D01*
X019428Y011240D01*
X019502Y011252D01*
X019574Y011275D01*
X019642Y011309D01*
X019703Y011354D01*
X019756Y011407D01*
X019801Y011468D01*
X019835Y011536D01*
X019858Y011608D01*
X019870Y011682D01*
X019870Y011720D01*
X019130Y011720D01*
X019130Y011720D01*
X019130Y011720D01*
X019130Y012200D01*
X018832Y012200D01*
X018758Y012188D01*
X018686Y012165D01*
X018618Y012131D01*
X018426Y011907D02*
X018060Y011907D01*
X018060Y011668D02*
X018392Y011668D01*
X018390Y011682D02*
X018402Y011608D01*
X018425Y011536D01*
X018459Y011468D01*
X018504Y011407D01*
X018557Y011354D01*
X018618Y011309D01*
X018686Y011275D01*
X018758Y011252D01*
X018832Y011240D01*
X019130Y011240D01*
X019130Y011720D01*
X018390Y011720D01*
X018390Y011682D01*
X018488Y011430D02*
X018060Y011430D01*
X018060Y011191D02*
X018775Y011191D01*
X018758Y011188D02*
X018686Y011165D01*
X018618Y011131D01*
X018557Y011086D01*
X018504Y011033D01*
X018459Y010972D01*
X018425Y010904D01*
X018402Y010832D01*
X018390Y010758D01*
X018390Y010720D01*
X019130Y010720D01*
X019130Y010720D01*
X019130Y011200D01*
X019428Y011200D01*
X019502Y011188D01*
X019574Y011165D01*
X019642Y011131D01*
X019703Y011086D01*
X019756Y011033D01*
X019801Y010972D01*
X019835Y010904D01*
X019858Y010832D01*
X019870Y010758D01*
X019870Y010720D01*
X019130Y010720D01*
X019130Y010720D01*
X019130Y010240D01*
X019428Y010240D01*
X019502Y010252D01*
X019574Y010275D01*
X019642Y010309D01*
X019703Y010354D01*
X019756Y010407D01*
X019801Y010468D01*
X019835Y010536D01*
X019858Y010608D01*
X019870Y010682D01*
X019870Y010720D01*
X019130Y010720D01*
X019130Y010720D01*
X019130Y010720D01*
X019130Y011200D01*
X018832Y011200D01*
X018758Y011188D01*
X019130Y011191D02*
X019130Y011191D01*
X019130Y010953D02*
X019130Y010953D01*
X019130Y010720D02*
X018390Y010720D01*
X018390Y010682D01*
X018402Y010608D01*
X018425Y010536D01*
X018459Y010468D01*
X018504Y010407D01*
X018557Y010354D01*
X018618Y010309D01*
X018686Y010275D01*
X018758Y010252D01*
X018832Y010240D01*
X019130Y010240D01*
X019130Y010720D01*
X019130Y010714D02*
X019130Y010714D01*
X019130Y010476D02*
X019130Y010476D01*
X019804Y010476D02*
X023200Y010476D01*
X023200Y010714D02*
X019870Y010714D01*
X019810Y010953D02*
X023200Y010953D01*
X023200Y011191D02*
X019485Y011191D01*
X019772Y011430D02*
X023200Y011430D01*
X023200Y011668D02*
X019868Y011668D01*
X019834Y011907D02*
X023200Y011907D01*
X023200Y012145D02*
X019613Y012145D01*
X019732Y012384D02*
X023200Y012384D01*
X023200Y012622D02*
X019860Y012622D01*
X019849Y012861D02*
X023200Y012861D01*
X023200Y013099D02*
X019685Y013099D01*
X019680Y013338D02*
X023200Y013338D01*
X023200Y013576D02*
X019848Y013576D01*
X019861Y013815D02*
X023200Y013815D01*
X023200Y014053D02*
X019736Y014053D01*
X019130Y014053D02*
X019130Y014053D01*
X019130Y013815D02*
X019130Y013815D01*
X019130Y013576D02*
X019130Y013576D01*
X019130Y013338D02*
X019130Y013338D01*
X019130Y013099D02*
X019130Y013099D01*
X019130Y012861D02*
X019130Y012861D01*
X019130Y012622D02*
X019130Y012622D01*
X019130Y012384D02*
X019130Y012384D01*
X019130Y012145D02*
X019130Y012145D01*
X019130Y011907D02*
X019130Y011907D01*
X019130Y011668D02*
X019130Y011668D01*
X019130Y011430D02*
X019130Y011430D01*
X018450Y010953D02*
X018060Y010953D01*
X018060Y010714D02*
X018390Y010714D01*
X018456Y010476D02*
X018060Y010476D01*
X018060Y010237D02*
X023200Y010237D01*
X023200Y009999D02*
X018060Y009999D01*
X018198Y009760D02*
X023200Y009760D01*
X023200Y009522D02*
X018437Y009522D01*
X018675Y009283D02*
X023200Y009283D01*
X023200Y009045D02*
X018914Y009045D01*
X019152Y008806D02*
X023200Y008806D01*
X023228Y008568D02*
X019391Y008568D01*
X019629Y008329D02*
X023413Y008329D01*
X023651Y008091D02*
X019868Y008091D01*
X020106Y007852D02*
X023890Y007852D01*
X024128Y007614D02*
X020345Y007614D01*
X020583Y007375D02*
X024367Y007375D01*
X026108Y007137D02*
X026938Y007137D01*
X027177Y007375D02*
X026172Y007375D01*
X026262Y007614D02*
X027415Y007614D01*
X027654Y007852D02*
X026260Y007852D01*
X026154Y008091D02*
X027700Y008091D01*
X027700Y008329D02*
X026133Y008329D01*
X026251Y008568D02*
X027700Y008568D01*
X027700Y008806D02*
X026262Y008806D01*
X028155Y007137D02*
X030896Y007137D01*
X030836Y007077D02*
X030806Y007004D01*
X028452Y004650D01*
X006808Y004650D01*
X004495Y006964D01*
X004454Y007004D01*
X004424Y007077D01*
X004247Y007254D01*
X004129Y007303D01*
X004142Y007309D01*
X004203Y007354D01*
X004256Y007407D01*
X004301Y007468D01*
X004335Y007536D01*
X004358Y007608D01*
X004370Y007682D01*
X004370Y007720D01*
X004370Y007758D01*
X004358Y007832D01*
X004335Y007904D01*
X004301Y007972D01*
X004256Y008033D01*
X004203Y008086D01*
X004142Y008131D01*
X004129Y008137D01*
X004247Y008186D01*
X004424Y008363D01*
X004520Y008595D01*
X004520Y008845D01*
X004424Y009077D01*
X004247Y009254D01*
X004015Y009350D01*
X003245Y009350D01*
X003013Y009254D01*
X002836Y009077D01*
X002740Y008845D01*
X002740Y008595D01*
X002836Y008363D01*
X003013Y008186D01*
X003131Y008137D01*
X003118Y008131D01*
X003057Y008086D01*
X003004Y008033D01*
X002959Y007972D01*
X002925Y007904D01*
X002902Y007832D01*
X002890Y007758D01*
X002890Y007720D01*
X003630Y007720D01*
X004370Y007720D01*
X003630Y007720D01*
X003630Y007720D01*
X003630Y007720D01*
X004197Y008091D02*
X007200Y008091D01*
X007200Y008329D02*
X004390Y008329D01*
X004509Y008568D02*
X007200Y008568D01*
X007200Y008806D02*
X006023Y008806D01*
X006362Y009045D02*
X007200Y009045D01*
X007200Y009283D02*
X006526Y009283D01*
X006625Y009522D02*
X007200Y009522D01*
X006982Y009760D02*
X006625Y009760D01*
X006592Y009999D02*
X006743Y009999D01*
X006505Y010237D02*
X006493Y010237D01*
X006028Y010714D02*
X005830Y010714D01*
X005789Y010953D02*
X001500Y010953D01*
X001500Y011191D02*
X002768Y011191D01*
X002530Y011430D02*
X001500Y011430D01*
X001500Y011668D02*
X002500Y011668D01*
X002500Y011907D02*
X001500Y011907D01*
X001500Y012145D02*
X002664Y012145D01*
X002576Y012384D02*
X001500Y012384D01*
X001500Y012622D02*
X002500Y012622D01*
X002500Y012861D02*
X001500Y012861D01*
X001500Y013099D02*
X002618Y013099D01*
X002622Y013338D02*
X001500Y013338D01*
X001500Y013576D02*
X002500Y013576D01*
X002500Y013815D02*
X001500Y013815D01*
X001500Y014053D02*
X002572Y014053D01*
X002811Y014292D02*
X001500Y014292D01*
X001500Y014530D02*
X007960Y014530D01*
X007960Y014769D02*
X001500Y014769D01*
X001500Y015007D02*
X007969Y015007D01*
X008157Y015246D02*
X007546Y015246D01*
X007391Y015090D02*
X007760Y015459D01*
X007760Y015981D01*
X007391Y016350D01*
X006869Y016350D01*
X006500Y015981D01*
X006500Y015459D01*
X006869Y015090D01*
X007391Y015090D01*
X006714Y015246D02*
X003546Y015246D01*
X003391Y015090D02*
X003760Y015459D01*
X003760Y015981D01*
X003391Y016350D01*
X002869Y016350D01*
X002500Y015981D01*
X002500Y015459D01*
X002869Y015090D01*
X003391Y015090D01*
X003760Y015484D02*
X006500Y015484D01*
X006500Y015723D02*
X003760Y015723D01*
X003760Y015961D02*
X006500Y015961D01*
X006719Y016200D02*
X003541Y016200D01*
X002719Y016200D02*
X001500Y016200D01*
X001500Y016438D02*
X007964Y016438D01*
X007960Y016677D02*
X001500Y016677D01*
X001500Y016915D02*
X007960Y016915D01*
X008116Y017154D02*
X007454Y017154D01*
X007391Y017090D02*
X007760Y017459D01*
X007760Y017981D01*
X007391Y018350D01*
X006869Y018350D01*
X006500Y017981D01*
X006500Y017459D01*
X006869Y017090D01*
X007391Y017090D01*
X007693Y017392D02*
X008010Y017392D01*
X007960Y017631D02*
X007760Y017631D01*
X007760Y017869D02*
X007960Y017869D01*
X008070Y018108D02*
X007633Y018108D01*
X007395Y018346D02*
X008269Y018346D01*
X008110Y018585D02*
X001500Y018585D01*
X001500Y018823D02*
X008110Y018823D01*
X008236Y019062D02*
X001500Y019062D01*
X001500Y019300D02*
X009262Y019300D01*
X009024Y019062D02*
X009024Y019062D01*
X008630Y019062D02*
X008630Y019062D01*
X008630Y018823D02*
X008630Y018823D01*
X009998Y019300D02*
X012700Y019300D01*
X012700Y019062D02*
X010236Y019062D01*
X010300Y018823D02*
X012700Y018823D01*
X012700Y018585D02*
X010300Y018585D01*
X010204Y018346D02*
X012700Y018346D01*
X012700Y018108D02*
X010190Y018108D01*
X010300Y017869D02*
X012700Y017869D01*
X012700Y017631D02*
X010300Y017631D01*
X010250Y017392D02*
X012700Y017392D01*
X012700Y017154D02*
X012587Y017154D01*
X011673Y017154D02*
X010144Y017154D01*
X010300Y016915D02*
X011500Y016915D01*
X011500Y016677D02*
X010300Y016677D01*
X010296Y016438D02*
X011521Y016438D01*
X011760Y016200D02*
X010098Y016200D01*
X010300Y015961D02*
X012700Y015961D01*
X012700Y015723D02*
X010300Y015723D01*
X010300Y015484D02*
X012700Y015484D01*
X012700Y015246D02*
X010103Y015246D01*
X010291Y015007D02*
X012700Y015007D01*
X012700Y014769D02*
X010300Y014769D01*
X010300Y014530D02*
X012700Y014530D01*
X012700Y014292D02*
X010149Y014292D01*
X010245Y014053D02*
X012700Y014053D01*
X012700Y013815D02*
X010300Y013815D01*
X010300Y013576D02*
X012700Y013576D01*
X012700Y013338D02*
X012403Y013338D01*
X012642Y013099D02*
X012700Y013099D01*
X011857Y013338D02*
X010195Y013338D01*
X010199Y013099D02*
X011618Y013099D01*
X011500Y012861D02*
X010300Y012861D01*
X010300Y012622D02*
X011500Y012622D01*
X011576Y012384D02*
X010241Y012384D01*
X010153Y012145D02*
X011664Y012145D01*
X011500Y011907D02*
X010300Y011907D01*
X010300Y011668D02*
X011500Y011668D01*
X011530Y011430D02*
X010287Y011430D01*
X010107Y011191D02*
X011768Y011191D01*
X012492Y011191D02*
X012700Y011191D01*
X012700Y010953D02*
X010300Y010953D01*
X010300Y010714D02*
X012700Y010714D01*
X012700Y010476D02*
X010300Y010476D01*
X010095Y010237D02*
X012539Y010237D01*
X012300Y009999D02*
X010299Y009999D01*
X010300Y009760D02*
X012062Y009760D01*
X011823Y009522D02*
X010300Y009522D01*
X010141Y009283D02*
X011585Y009283D01*
X011346Y009045D02*
X008060Y009045D01*
X008060Y009283D02*
X008119Y009283D01*
X008060Y008806D02*
X011108Y008806D01*
X010869Y008568D02*
X008060Y008568D01*
X008060Y008329D02*
X010631Y008329D01*
X010392Y008091D02*
X008060Y008091D01*
X008060Y007852D02*
X009003Y007852D01*
X009257Y007852D02*
X010154Y007852D01*
X008629Y007614D02*
X008060Y007614D01*
X008083Y007375D02*
X008510Y007375D01*
X008498Y007137D02*
X008322Y007137D01*
X008560Y006898D02*
X008579Y006898D01*
X008059Y006183D02*
X005276Y006183D01*
X005037Y006421D02*
X007821Y006421D01*
X007582Y006660D02*
X004799Y006660D01*
X004560Y006898D02*
X007344Y006898D01*
X007200Y007137D02*
X004364Y007137D01*
X004224Y007375D02*
X007200Y007375D01*
X007200Y007614D02*
X004359Y007614D01*
X004352Y007852D02*
X007200Y007852D01*
X005237Y008806D02*
X004520Y008806D01*
X004437Y009045D02*
X004898Y009045D01*
X004734Y009283D02*
X004177Y009283D01*
X004635Y009522D02*
X001500Y009522D01*
X001500Y009760D02*
X004635Y009760D01*
X004668Y009999D02*
X001500Y009999D01*
X001500Y010237D02*
X004767Y010237D01*
X004978Y010476D02*
X001500Y010476D01*
X001500Y010714D02*
X005430Y010714D01*
X005551Y011191D02*
X003492Y011191D01*
X003684Y012384D02*
X006576Y012384D01*
X006500Y012459D02*
X006739Y012220D01*
X006500Y011981D01*
X006500Y011459D01*
X006869Y011090D01*
X007391Y011090D01*
X007760Y011459D01*
X007760Y011981D01*
X007521Y012220D01*
X007760Y012459D01*
X007760Y012981D01*
X007521Y013220D01*
X007760Y013459D01*
X007760Y013981D01*
X007391Y014350D01*
X006869Y014350D01*
X006500Y013981D01*
X006500Y013459D01*
X006739Y013220D01*
X006500Y012981D01*
X006500Y012459D01*
X006500Y012622D02*
X003760Y012622D01*
X003760Y012861D02*
X006500Y012861D01*
X006618Y013099D02*
X003642Y013099D01*
X003638Y013338D02*
X006622Y013338D01*
X006500Y013576D02*
X003760Y013576D01*
X003760Y013815D02*
X006500Y013815D01*
X006572Y014053D02*
X003688Y014053D01*
X003449Y014292D02*
X006811Y014292D01*
X007449Y014292D02*
X008111Y014292D01*
X008015Y014053D02*
X007688Y014053D01*
X007760Y013815D02*
X007960Y013815D01*
X007960Y013576D02*
X007760Y013576D01*
X007638Y013338D02*
X008065Y013338D01*
X008061Y013099D02*
X007642Y013099D01*
X007760Y012861D02*
X007960Y012861D01*
X007960Y012622D02*
X007760Y012622D01*
X007684Y012384D02*
X008019Y012384D01*
X008107Y012145D02*
X007596Y012145D01*
X007760Y011907D02*
X007960Y011907D01*
X007960Y011668D02*
X007760Y011668D01*
X007730Y011430D02*
X007973Y011430D01*
X008153Y011191D02*
X007492Y011191D01*
X007960Y010953D02*
X007006Y010953D01*
X006768Y011191D02*
X006767Y011191D01*
X006530Y011430D02*
X006529Y011430D01*
X006500Y011668D02*
X006290Y011668D01*
X006500Y011907D02*
X006052Y011907D01*
X005728Y012145D02*
X006664Y012145D01*
X007244Y010714D02*
X007960Y010714D01*
X007960Y010476D02*
X007483Y010476D01*
X007721Y010237D02*
X008165Y010237D01*
X007961Y009999D02*
X007960Y009999D01*
X011439Y006421D02*
X012821Y006421D01*
X013059Y006183D02*
X011201Y006183D01*
X010962Y005944D02*
X013298Y005944D01*
X013536Y005706D02*
X005753Y005706D01*
X005514Y005944D02*
X008298Y005944D01*
X006707Y004752D02*
X028553Y004752D01*
X028792Y004990D02*
X006468Y004990D01*
X006230Y005229D02*
X029030Y005229D01*
X029269Y005467D02*
X026485Y005467D01*
X026724Y005706D02*
X029507Y005706D01*
X029746Y005944D02*
X026962Y005944D01*
X027201Y006183D02*
X029984Y006183D01*
X030223Y006421D02*
X027439Y006421D01*
X027678Y006660D02*
X030461Y006660D01*
X030700Y006898D02*
X027916Y006898D01*
X028393Y007375D02*
X031036Y007375D01*
X031057Y007354D02*
X031118Y007309D01*
X031131Y007303D01*
X031013Y007254D01*
X030836Y007077D01*
X031057Y007354D02*
X031004Y007407D01*
X030959Y007468D01*
X030925Y007536D01*
X030902Y007608D01*
X030890Y007682D01*
X030890Y007720D01*
X031630Y007720D01*
X031063Y008091D02*
X028560Y008091D01*
X028560Y008329D02*
X030870Y008329D01*
X030908Y007852D02*
X028560Y007852D01*
X028551Y007614D02*
X030901Y007614D01*
X032224Y007375D02*
X033760Y007375D01*
X033760Y007137D02*
X032364Y007137D01*
X032498Y006898D02*
X033760Y006898D01*
X033760Y006660D02*
X032520Y006660D01*
X032448Y006421D02*
X033760Y006421D01*
X033760Y006183D02*
X032318Y006183D01*
X032479Y005944D02*
X033760Y005944D01*
X033760Y005706D02*
X032520Y005706D01*
X032467Y005467D02*
X033760Y005467D01*
X033760Y005229D02*
X032289Y005229D01*
X032460Y004990D02*
X033760Y004990D01*
X033760Y004752D02*
X032520Y004752D01*
X032486Y004513D02*
X033760Y004513D01*
X033760Y004275D02*
X032335Y004275D01*
X032441Y004036D02*
X033760Y004036D01*
X033760Y003798D02*
X032520Y003798D01*
X032505Y003559D02*
X033760Y003559D01*
X033760Y003321D02*
X032381Y003321D01*
X032419Y003082D02*
X033760Y003082D01*
X033760Y002844D02*
X032520Y002844D01*
X032520Y002605D02*
X033760Y002605D01*
X033760Y002367D02*
X032425Y002367D01*
X032373Y002128D02*
X033760Y002128D01*
X033760Y001890D02*
X032502Y001890D01*
X032520Y001651D02*
X033760Y001651D01*
X033760Y001413D02*
X032445Y001413D01*
X032218Y001174D02*
X033760Y001174D01*
X033760Y000936D02*
X001500Y000936D01*
X001500Y001174D02*
X003042Y001174D01*
X002815Y001413D02*
X001500Y001413D01*
X001500Y001651D02*
X002740Y001651D01*
X002758Y001890D02*
X001500Y001890D01*
X001500Y002128D02*
X002887Y002128D01*
X002835Y002367D02*
X001500Y002367D01*
X001500Y002605D02*
X002740Y002605D01*
X002740Y002844D02*
X001500Y002844D01*
X001500Y003082D02*
X002841Y003082D01*
X002879Y003321D02*
X001500Y003321D01*
X001500Y003559D02*
X002755Y003559D01*
X002740Y003798D02*
X001500Y003798D01*
X001500Y004036D02*
X002819Y004036D01*
X002925Y004275D02*
X001500Y004275D01*
X001500Y004513D02*
X002774Y004513D01*
X002740Y004752D02*
X001500Y004752D01*
X001500Y004990D02*
X002800Y004990D01*
X002971Y005229D02*
X001500Y005229D01*
X001500Y005467D02*
X002793Y005467D01*
X002740Y005706D02*
X001500Y005706D01*
X001500Y005944D02*
X002781Y005944D01*
X002942Y006183D02*
X001500Y006183D01*
X001500Y006421D02*
X002812Y006421D01*
X002740Y006660D02*
X001500Y006660D01*
X001500Y006898D02*
X002762Y006898D01*
X002896Y007137D02*
X001500Y007137D01*
X001500Y007375D02*
X003036Y007375D01*
X002901Y007614D02*
X001500Y007614D01*
X001500Y007852D02*
X002908Y007852D01*
X003063Y008091D02*
X001500Y008091D01*
X001500Y008329D02*
X002870Y008329D01*
X002751Y008568D02*
X001500Y008568D01*
X001500Y008806D02*
X002740Y008806D01*
X002823Y009045D02*
X001500Y009045D01*
X001500Y009283D02*
X003083Y009283D01*
X005991Y005467D02*
X013775Y005467D01*
X012582Y006660D02*
X011678Y006660D01*
X011916Y006898D02*
X012344Y006898D01*
X004218Y001174D02*
X031042Y001174D01*
X033760Y000697D02*
X001500Y000697D01*
X001500Y015246D02*
X002714Y015246D01*
X002500Y015484D02*
X001500Y015484D01*
X001500Y015723D02*
X002500Y015723D01*
X002500Y015961D02*
X001500Y015961D01*
X001500Y017154D02*
X002806Y017154D01*
X002869Y017090D02*
X002500Y017459D01*
X002500Y017981D01*
X002869Y018350D01*
X003391Y018350D01*
X003760Y017981D01*
X003760Y017459D01*
X003391Y017090D01*
X002869Y017090D01*
X002567Y017392D02*
X001500Y017392D01*
X001500Y017631D02*
X002500Y017631D01*
X002500Y017869D02*
X001500Y017869D01*
X001500Y018108D02*
X002627Y018108D01*
X002865Y018346D02*
X001500Y018346D01*
X002630Y018720D02*
X007130Y018720D01*
X006865Y018346D02*
X003395Y018346D01*
X003633Y018108D02*
X006627Y018108D01*
X006500Y017869D02*
X003760Y017869D01*
X003760Y017631D02*
X006500Y017631D01*
X006567Y017392D02*
X003693Y017392D01*
X003454Y017154D02*
X006806Y017154D01*
X007541Y016200D02*
X008162Y016200D01*
X007960Y015961D02*
X007760Y015961D01*
X007760Y015723D02*
X007960Y015723D01*
X007960Y015484D02*
X007760Y015484D01*
X012500Y016200D02*
X012700Y016200D01*
X012840Y019539D02*
X001500Y019539D01*
X001500Y019777D02*
X013079Y019777D01*
X012684Y020016D02*
X001500Y020016D01*
X001500Y020254D02*
X007205Y020254D01*
X007369Y020090D02*
X007891Y020090D01*
X008260Y020459D01*
X008260Y020981D01*
X007891Y021350D01*
X007369Y021350D01*
X007000Y020981D01*
X007000Y020459D01*
X007369Y020090D01*
X007000Y020493D02*
X001500Y020493D01*
X001500Y020731D02*
X007000Y020731D01*
X007000Y020970D02*
X001500Y020970D01*
X001500Y021208D02*
X007227Y021208D01*
X008033Y021208D02*
X011200Y021208D01*
X011200Y021447D02*
X001500Y021447D01*
X001500Y021685D02*
X011200Y021685D01*
X011200Y021924D02*
X001500Y021924D01*
X001500Y022162D02*
X011200Y022162D01*
X011200Y022401D02*
X007674Y022401D01*
X007671Y022400D02*
X007752Y022413D01*
X007830Y022438D01*
X007903Y022475D01*
X007969Y022523D01*
X008027Y022581D01*
X008075Y022647D01*
X008112Y022720D01*
X008137Y022798D01*
X008150Y022879D01*
X008150Y023220D01*
X008150Y023561D01*
X008137Y023642D01*
X008112Y023720D01*
X008075Y023793D01*
X008027Y023859D01*
X007969Y023917D01*
X007903Y023965D01*
X007830Y024002D01*
X007752Y024027D01*
X007671Y024040D01*
X007630Y024040D01*
X007630Y023220D01*
X008150Y023220D01*
X007630Y023220D01*
X007630Y023220D01*
X007630Y023220D01*
X007630Y022400D01*
X007671Y022400D01*
X007630Y022401D02*
X007630Y022401D01*
X007630Y022400D02*
X007630Y023220D01*
X007630Y023220D01*
X007630Y024040D01*
X007589Y024040D01*
X007508Y024027D01*
X007430Y024002D01*
X007357Y023965D01*
X007291Y023917D01*
X007233Y023859D01*
X007222Y023843D01*
X007198Y023900D01*
X007010Y024088D01*
X006763Y024190D01*
X006497Y024190D01*
X006250Y024088D01*
X006130Y023968D01*
X006010Y024088D01*
X005763Y024190D01*
X005497Y024190D01*
X005250Y024088D01*
X005130Y023968D01*
X005010Y024088D01*
X004763Y024190D01*
X004497Y024190D01*
X004250Y024088D01*
X004130Y023968D01*
X004010Y024088D01*
X003763Y024190D01*
X003497Y024190D01*
X003250Y024088D01*
X003062Y023900D01*
X002960Y023653D01*
X002960Y022787D01*
X003062Y022540D01*
X003250Y022352D01*
X003497Y022250D01*
X003763Y022250D01*
X004010Y022352D01*
X004130Y022472D01*
X004250Y022352D01*
X004497Y022250D01*
X004763Y022250D01*
X005010Y022352D01*
X005130Y022472D01*
X005250Y022352D01*
X005497Y022250D01*
X005763Y022250D01*
X006010Y022352D01*
X006130Y022472D01*
X006250Y022352D01*
X006497Y022250D01*
X006763Y022250D01*
X007010Y022352D01*
X007198Y022540D01*
X007222Y022597D01*
X007233Y022581D01*
X007291Y022523D01*
X007357Y022475D01*
X007430Y022438D01*
X007508Y022413D01*
X007589Y022400D01*
X007630Y022400D01*
X007586Y022401D02*
X007058Y022401D01*
X007630Y022639D02*
X007630Y022639D01*
X007630Y022878D02*
X007630Y022878D01*
X007630Y023116D02*
X007630Y023116D01*
X007630Y023355D02*
X007630Y023355D01*
X007630Y023593D02*
X007630Y023593D01*
X007630Y023832D02*
X007630Y023832D01*
X008046Y023832D02*
X009000Y023832D01*
X009042Y023593D02*
X008145Y023593D01*
X008150Y023355D02*
X009205Y023355D01*
X009052Y024070D02*
X007027Y024070D01*
X006233Y024070D02*
X006027Y024070D01*
X006030Y024309D02*
X009228Y024309D01*
X009150Y024547D02*
X006364Y024547D01*
X006527Y024786D02*
X009150Y024786D01*
X009355Y025024D02*
X006625Y025024D01*
X005230Y024309D02*
X001500Y024309D01*
X001500Y024547D02*
X004896Y024547D01*
X004733Y024786D02*
X001500Y024786D01*
X001500Y025024D02*
X004635Y025024D01*
X004635Y025263D02*
X001500Y025263D01*
X001500Y025501D02*
X004669Y025501D01*
X004768Y025740D02*
X001500Y025740D01*
X001500Y025978D02*
X004981Y025978D01*
X005027Y024070D02*
X005233Y024070D01*
X004233Y024070D02*
X004027Y024070D01*
X003233Y024070D02*
X001500Y024070D01*
X001500Y023832D02*
X003034Y023832D01*
X002960Y023593D02*
X001500Y023593D01*
X001500Y023355D02*
X002960Y023355D01*
X002960Y023116D02*
X001500Y023116D01*
X001500Y022878D02*
X002960Y022878D01*
X003021Y022639D02*
X001500Y022639D01*
X001500Y022401D02*
X003202Y022401D01*
X004058Y022401D02*
X004202Y022401D01*
X005058Y022401D02*
X005202Y022401D01*
X006058Y022401D02*
X006202Y022401D01*
X008069Y022639D02*
X011200Y022639D01*
X011200Y022878D02*
X008150Y022878D01*
X008150Y023116D02*
X011200Y023116D01*
X011200Y023355D02*
X010055Y023355D01*
X010032Y024309D02*
X011551Y024309D01*
X011500Y024547D02*
X010110Y024547D01*
X010110Y024786D02*
X011500Y024786D01*
X011643Y025024D02*
X009905Y025024D01*
X009630Y025024D02*
X009630Y025024D01*
X012060Y022639D02*
X013361Y022639D01*
X013118Y022401D02*
X012060Y022401D01*
X012060Y022162D02*
X012879Y022162D01*
X012684Y021924D02*
X012060Y021924D01*
X012060Y021685D02*
X012640Y021685D01*
X012640Y021447D02*
X012060Y021447D01*
X012060Y021208D02*
X012543Y021208D01*
X012500Y020970D02*
X012260Y020970D01*
X012260Y020731D02*
X012500Y020731D01*
X012500Y020493D02*
X012260Y020493D01*
X012055Y020254D02*
X012533Y020254D01*
X013130Y020720D02*
X013130Y021720D01*
X013630Y022220D01*
X011000Y020970D02*
X008260Y020970D01*
X008260Y020731D02*
X011000Y020731D01*
X011000Y020493D02*
X008260Y020493D01*
X008055Y020254D02*
X011205Y020254D01*
X026241Y006898D02*
X026700Y006898D01*
X026461Y006660D02*
X026262Y006660D01*
X026223Y006421D02*
X026191Y006421D01*
X032197Y008091D02*
X033760Y008091D01*
X033760Y008329D02*
X032390Y008329D01*
X032509Y008568D02*
X033760Y008568D01*
X033760Y008806D02*
X032520Y008806D01*
X032437Y009045D02*
X033760Y009045D01*
X033760Y009283D02*
X032177Y009283D01*
X032352Y007852D02*
X033760Y007852D01*
X033760Y007614D02*
X032359Y007614D01*
X031814Y012145D02*
X030163Y012145D01*
D19*
X025630Y008720D03*
X025630Y007720D03*
X025630Y006720D03*
X014130Y009720D03*
X009130Y007220D03*
X015130Y017720D03*
X018130Y017720D03*
X024130Y018720D03*
X007630Y024720D03*
X007130Y018720D03*
D20*
X011630Y020720D02*
X011630Y023320D01*
X012130Y023820D01*
X009630Y023820D01*
X012130Y024620D02*
X012230Y024720D01*
X014630Y024720D01*
X015630Y023720D01*
X015661Y023720D01*
X015661Y023689D01*
X016630Y022720D01*
X018599Y022720D01*
X019599Y023720D01*
X019130Y020720D02*
X019130Y019220D01*
X023630Y014720D01*
X023630Y008720D01*
X024630Y007720D01*
X025630Y007720D01*
X025630Y008720D02*
X024630Y008720D01*
X024130Y009220D01*
X024130Y015220D01*
X021118Y018232D01*
X021130Y018220D01*
X021118Y018232D02*
X020130Y019220D01*
X020130Y020720D01*
X018130Y020720D02*
X018130Y019220D01*
X019130Y018220D01*
X019130Y017220D01*
X018630Y016720D01*
X017630Y016720D01*
X016630Y017720D01*
X015130Y017720D01*
X014130Y018220D02*
X016130Y020220D01*
X016130Y020720D01*
X015130Y020720D02*
X015130Y020220D01*
X013630Y018720D01*
X013630Y010220D01*
X014130Y009720D01*
X013130Y010220D02*
X013130Y019220D01*
X014130Y020220D01*
X014130Y020720D01*
X014130Y018220D02*
X014130Y017220D01*
X017630Y013720D01*
X017630Y009720D01*
X020630Y006720D01*
X025630Y006720D01*
X026130Y005720D02*
X028130Y007720D01*
X028130Y010720D01*
X030130Y012720D01*
X032130Y012720D01*
X031630Y006720D02*
X031130Y006720D01*
X028630Y004220D01*
X006630Y004220D01*
X004130Y006720D01*
X003630Y006720D01*
X003630Y005720D02*
X004130Y005720D01*
X006130Y003720D01*
X029130Y003720D01*
X031130Y005720D01*
X031630Y005720D01*
X031630Y004720D02*
X031130Y004720D01*
X029630Y003220D01*
X005630Y003220D01*
X004130Y004720D01*
X003630Y004720D01*
X003630Y003720D02*
X004130Y003720D01*
X005130Y002720D01*
X030130Y002720D01*
X031130Y003720D01*
X031630Y003720D01*
X031630Y002720D02*
X031130Y002720D01*
X030630Y002220D01*
X004630Y002220D01*
X004130Y002720D01*
X003630Y002720D01*
X003630Y001720D02*
X031630Y001720D01*
X026130Y005720D02*
X014130Y005720D01*
X012130Y007720D01*
X010630Y006220D01*
X008630Y006220D01*
X007630Y007220D01*
X007630Y009720D01*
X005630Y011720D01*
X003130Y011720D01*
X009130Y007220D02*
X010130Y007220D01*
X013130Y010220D01*
X018130Y017720D02*
X017130Y018720D01*
X017130Y020720D01*
M02*
