%
M48
M72
T01C0.0320
T02C0.0350
T03C0.0360
T04C0.0400
T05C0.0630
T06C0.0660
T07C0.0910
T08C0.1250
%
T01
X3630Y1720
X3630Y2720
X3630Y3720
X3630Y4720
X3630Y5720
X3630Y6720
X3630Y7720
X3630Y8720
X3130Y11720
X3130Y12720
X3130Y13720
X3130Y15720
X3130Y17720
X7130Y17720
X7130Y15720
X7130Y13720
X7130Y12720
X7130Y11720
X12130Y11720
X12130Y12720
X16130Y12720
X16130Y11720
X16130Y10720
X19130Y10720
X19130Y11720
X19130Y12720
X19130Y13720
X16130Y13720
X12130Y16720
X11630Y20720
X13130Y20720
X14130Y20720
X15130Y20720
X16130Y20720
X17130Y20720
X18130Y20720
X19130Y20720
X20130Y20720
X21130Y20720
X22130Y20720
X28130Y17720
X28130Y16720
X28130Y15720
X28130Y14720
X28130Y13720
X28130Y12720
X32130Y12720
X32130Y13720
X32130Y14720
X32130Y15720
X32130Y16720
X32130Y17720
X31630Y8720
X31630Y7720
X31630Y6720
X31630Y5720
X31630Y4720
X31630Y3720
X31630Y2720
X31630Y1720
X12130Y7720
X7630Y20720
X9630Y23820
X9630Y24620
X12130Y24620
X12130Y23820
T02
X7630Y24720
X7130Y18720
X15130Y17720
X18130Y17720
X24130Y18720
X14130Y9720
X9130Y7220
X25630Y6720
X25630Y7720
X25630Y8720
T03
X27755Y23150
X28735Y23150
X29525Y23150
X30505Y23150
T04
X26630Y18720
X26630Y17720
X26630Y16720
X26630Y15720
X26630Y14720
X26630Y13720
X25630Y13720
X25630Y14720
X25630Y15720
X25630Y16720
X25630Y17720
X25630Y18720
X25630Y12720
X25630Y11720
X25630Y10720
X25630Y9720
X26630Y9720
X26630Y10720
X26630Y11720
X26630Y12720
X9630Y12720
X9630Y11720
X9630Y10720
X9630Y9720
X8630Y9720
X8630Y10720
X8630Y11720
X8630Y12720
X8630Y13720
X8630Y14720
X8630Y15720
X8630Y16720
X8630Y17720
X8630Y18720
X9630Y18720
X9630Y17720
X9630Y16720
X9630Y15720
X9630Y14720
X9630Y13720
X7630Y23220
X6630Y23220
X5630Y23220
X4630Y23220
X3630Y23220
T05
X15661Y25689
X17630Y23720
X19599Y25689
T06
X17630Y25689
X15661Y23720
X19599Y23720
T07
X26545Y24220
X31715Y24220
T08
X24130Y25220
X29630Y9720
X17630Y7220
X5630Y9720
X5630Y25220
M30
